<?xml version="1.0" encoding="utf-8" standalone="no"?>
<!DOCTYPE svg PUBLIC "-//W3C//DTD SVG 1.1//EN"
  "http://www.w3.org/Graphics/SVG/1.1/DTD/svg11.dtd">
<svg xmlns:xlink="http://www.w3.org/1999/xlink" width="460.8pt" height="345.6pt" viewBox="0 0 460.8 345.6" xmlns="http://www.w3.org/2000/svg" version="1.1">
 <metadata>
  <rdf:RDF xmlns:dc="http://purl.org/dc/elements/1.1/" xmlns:cc="http://creativecommons.org/ns#" xmlns:rdf="http://www.w3.org/1999/02/22-rdf-syntax-ns#">
   <cc:Work>
    <dc:type rdf:resource="http://purl.org/dc/dcmitype/StillImage"/>
    <dc:date>2025-04-09T10:18:19.968857</dc:date>
    <dc:format>image/svg+xml</dc:format>
    <dc:creator>
     <cc:Agent>
      <dc:title>Matplotlib v3.10.1, https://matplotlib.org/</dc:title>
     </cc:Agent>
    </dc:creator>
   </cc:Work>
  </rdf:RDF>
 </metadata>
 <defs>
  <style type="text/css">*{stroke-linejoin: round; stroke-linecap: butt}</style>
 </defs>
 <g id="figure_1">
  <g id="patch_1">
   <path d="M 0 345.6 
L 460.8 345.6 
L 460.8 0 
L 0 0 
z
" style="fill: #ffffff"/>
  </g>
  <g id="axes_1">
   <g id="patch_2">
    <path d="M 57.6 307.584 
L 414.72 307.584 
L 414.72 41.472 
L 57.6 41.472 
z
" style="fill: #ffffff"/>
   </g>
   <g id="matplotlib.axis_1">
    <g id="xtick_1">
     <g id="line2d_1">
      <defs>
       <path id="mcff0a9af8a" d="M 0 0 
L 0 3.5 
" style="stroke: #000000; stroke-width: 0.8"/>
      </defs>
      <g>
       <use xlink:href="#mcff0a9af8a" x="58.094626" y="307.584" style="stroke: #000000; stroke-width: 0.8"/>
      </g>
     </g>
     <g id="text_1">
      <!-- 0 -->
      <g transform="translate(54.913376 322.182437) scale(0.1 -0.1)">
       <defs>
        <path id="DejaVuSans-30" d="M 2034 4250 
Q 1547 4250 1301 3770 
Q 1056 3291 1056 2328 
Q 1056 1369 1301 889 
Q 1547 409 2034 409 
Q 2525 409 2770 889 
Q 3016 1369 3016 2328 
Q 3016 3291 2770 3770 
Q 2525 4250 2034 4250 
z
M 2034 4750 
Q 2819 4750 3233 4129 
Q 3647 3509 3647 2328 
Q 3647 1150 3233 529 
Q 2819 -91 2034 -91 
Q 1250 -91 836 529 
Q 422 1150 422 2328 
Q 422 3509 836 4129 
Q 1250 4750 2034 4750 
z
" transform="scale(0.015625)"/>
       </defs>
       <use xlink:href="#DejaVuSans-30"/>
      </g>
     </g>
    </g>
    <g id="xtick_2">
     <g id="line2d_2">
      <g>
       <use xlink:href="#mcff0a9af8a" x="107.55723" y="307.584" style="stroke: #000000; stroke-width: 0.8"/>
      </g>
     </g>
     <g id="text_2">
      <!-- 1000 -->
      <g transform="translate(94.83223 322.182437) scale(0.1 -0.1)">
       <defs>
        <path id="DejaVuSans-31" d="M 794 531 
L 1825 531 
L 1825 4091 
L 703 3866 
L 703 4441 
L 1819 4666 
L 2450 4666 
L 2450 531 
L 3481 531 
L 3481 0 
L 794 0 
L 794 531 
z
" transform="scale(0.015625)"/>
       </defs>
       <use xlink:href="#DejaVuSans-31"/>
       <use xlink:href="#DejaVuSans-30" transform="translate(63.623047 0)"/>
       <use xlink:href="#DejaVuSans-30" transform="translate(127.246094 0)"/>
       <use xlink:href="#DejaVuSans-30" transform="translate(190.869141 0)"/>
      </g>
     </g>
    </g>
    <g id="xtick_3">
     <g id="line2d_3">
      <g>
       <use xlink:href="#mcff0a9af8a" x="157.019834" y="307.584" style="stroke: #000000; stroke-width: 0.8"/>
      </g>
     </g>
     <g id="text_3">
      <!-- 2000 -->
      <g transform="translate(144.294834 322.182437) scale(0.1 -0.1)">
       <defs>
        <path id="DejaVuSans-32" d="M 1228 531 
L 3431 531 
L 3431 0 
L 469 0 
L 469 531 
Q 828 903 1448 1529 
Q 2069 2156 2228 2338 
Q 2531 2678 2651 2914 
Q 2772 3150 2772 3378 
Q 2772 3750 2511 3984 
Q 2250 4219 1831 4219 
Q 1534 4219 1204 4116 
Q 875 4013 500 3803 
L 500 4441 
Q 881 4594 1212 4672 
Q 1544 4750 1819 4750 
Q 2544 4750 2975 4387 
Q 3406 4025 3406 3419 
Q 3406 3131 3298 2873 
Q 3191 2616 2906 2266 
Q 2828 2175 2409 1742 
Q 1991 1309 1228 531 
z
" transform="scale(0.015625)"/>
       </defs>
       <use xlink:href="#DejaVuSans-32"/>
       <use xlink:href="#DejaVuSans-30" transform="translate(63.623047 0)"/>
       <use xlink:href="#DejaVuSans-30" transform="translate(127.246094 0)"/>
       <use xlink:href="#DejaVuSans-30" transform="translate(190.869141 0)"/>
      </g>
     </g>
    </g>
    <g id="xtick_4">
     <g id="line2d_4">
      <g>
       <use xlink:href="#mcff0a9af8a" x="206.482438" y="307.584" style="stroke: #000000; stroke-width: 0.8"/>
      </g>
     </g>
     <g id="text_4">
      <!-- 3000 -->
      <g transform="translate(193.757438 322.182437) scale(0.1 -0.1)">
       <defs>
        <path id="DejaVuSans-33" d="M 2597 2516 
Q 3050 2419 3304 2112 
Q 3559 1806 3559 1356 
Q 3559 666 3084 287 
Q 2609 -91 1734 -91 
Q 1441 -91 1130 -33 
Q 819 25 488 141 
L 488 750 
Q 750 597 1062 519 
Q 1375 441 1716 441 
Q 2309 441 2620 675 
Q 2931 909 2931 1356 
Q 2931 1769 2642 2001 
Q 2353 2234 1838 2234 
L 1294 2234 
L 1294 2753 
L 1863 2753 
Q 2328 2753 2575 2939 
Q 2822 3125 2822 3475 
Q 2822 3834 2567 4026 
Q 2313 4219 1838 4219 
Q 1578 4219 1281 4162 
Q 984 4106 628 3988 
L 628 4550 
Q 988 4650 1302 4700 
Q 1616 4750 1894 4750 
Q 2613 4750 3031 4423 
Q 3450 4097 3450 3541 
Q 3450 3153 3228 2886 
Q 3006 2619 2597 2516 
z
" transform="scale(0.015625)"/>
       </defs>
       <use xlink:href="#DejaVuSans-33"/>
       <use xlink:href="#DejaVuSans-30" transform="translate(63.623047 0)"/>
       <use xlink:href="#DejaVuSans-30" transform="translate(127.246094 0)"/>
       <use xlink:href="#DejaVuSans-30" transform="translate(190.869141 0)"/>
      </g>
     </g>
    </g>
    <g id="xtick_5">
     <g id="line2d_5">
      <g>
       <use xlink:href="#mcff0a9af8a" x="255.945042" y="307.584" style="stroke: #000000; stroke-width: 0.8"/>
      </g>
     </g>
     <g id="text_5">
      <!-- 4000 -->
      <g transform="translate(243.220042 322.182437) scale(0.1 -0.1)">
       <defs>
        <path id="DejaVuSans-34" d="M 2419 4116 
L 825 1625 
L 2419 1625 
L 2419 4116 
z
M 2253 4666 
L 3047 4666 
L 3047 1625 
L 3713 1625 
L 3713 1100 
L 3047 1100 
L 3047 0 
L 2419 0 
L 2419 1100 
L 313 1100 
L 313 1709 
L 2253 4666 
z
" transform="scale(0.015625)"/>
       </defs>
       <use xlink:href="#DejaVuSans-34"/>
       <use xlink:href="#DejaVuSans-30" transform="translate(63.623047 0)"/>
       <use xlink:href="#DejaVuSans-30" transform="translate(127.246094 0)"/>
       <use xlink:href="#DejaVuSans-30" transform="translate(190.869141 0)"/>
      </g>
     </g>
    </g>
    <g id="xtick_6">
     <g id="line2d_6">
      <g>
       <use xlink:href="#mcff0a9af8a" x="305.407645" y="307.584" style="stroke: #000000; stroke-width: 0.8"/>
      </g>
     </g>
     <g id="text_6">
      <!-- 5000 -->
      <g transform="translate(292.682645 322.182437) scale(0.1 -0.1)">
       <defs>
        <path id="DejaVuSans-35" d="M 691 4666 
L 3169 4666 
L 3169 4134 
L 1269 4134 
L 1269 2991 
Q 1406 3038 1543 3061 
Q 1681 3084 1819 3084 
Q 2600 3084 3056 2656 
Q 3513 2228 3513 1497 
Q 3513 744 3044 326 
Q 2575 -91 1722 -91 
Q 1428 -91 1123 -41 
Q 819 9 494 109 
L 494 744 
Q 775 591 1075 516 
Q 1375 441 1709 441 
Q 2250 441 2565 725 
Q 2881 1009 2881 1497 
Q 2881 1984 2565 2268 
Q 2250 2553 1709 2553 
Q 1456 2553 1204 2497 
Q 953 2441 691 2322 
L 691 4666 
z
" transform="scale(0.015625)"/>
       </defs>
       <use xlink:href="#DejaVuSans-35"/>
       <use xlink:href="#DejaVuSans-30" transform="translate(63.623047 0)"/>
       <use xlink:href="#DejaVuSans-30" transform="translate(127.246094 0)"/>
       <use xlink:href="#DejaVuSans-30" transform="translate(190.869141 0)"/>
      </g>
     </g>
    </g>
    <g id="xtick_7">
     <g id="line2d_7">
      <g>
       <use xlink:href="#mcff0a9af8a" x="354.870249" y="307.584" style="stroke: #000000; stroke-width: 0.8"/>
      </g>
     </g>
     <g id="text_7">
      <!-- 6000 -->
      <g transform="translate(342.145249 322.182437) scale(0.1 -0.1)">
       <defs>
        <path id="DejaVuSans-36" d="M 2113 2584 
Q 1688 2584 1439 2293 
Q 1191 2003 1191 1497 
Q 1191 994 1439 701 
Q 1688 409 2113 409 
Q 2538 409 2786 701 
Q 3034 994 3034 1497 
Q 3034 2003 2786 2293 
Q 2538 2584 2113 2584 
z
M 3366 4563 
L 3366 3988 
Q 3128 4100 2886 4159 
Q 2644 4219 2406 4219 
Q 1781 4219 1451 3797 
Q 1122 3375 1075 2522 
Q 1259 2794 1537 2939 
Q 1816 3084 2150 3084 
Q 2853 3084 3261 2657 
Q 3669 2231 3669 1497 
Q 3669 778 3244 343 
Q 2819 -91 2113 -91 
Q 1303 -91 875 529 
Q 447 1150 447 2328 
Q 447 3434 972 4092 
Q 1497 4750 2381 4750 
Q 2619 4750 2861 4703 
Q 3103 4656 3366 4563 
z
" transform="scale(0.015625)"/>
       </defs>
       <use xlink:href="#DejaVuSans-36"/>
       <use xlink:href="#DejaVuSans-30" transform="translate(63.623047 0)"/>
       <use xlink:href="#DejaVuSans-30" transform="translate(127.246094 0)"/>
       <use xlink:href="#DejaVuSans-30" transform="translate(190.869141 0)"/>
      </g>
     </g>
    </g>
    <g id="xtick_8">
     <g id="line2d_8">
      <g>
       <use xlink:href="#mcff0a9af8a" x="404.332853" y="307.584" style="stroke: #000000; stroke-width: 0.8"/>
      </g>
     </g>
     <g id="text_8">
      <!-- 7000 -->
      <g transform="translate(391.607853 322.182437) scale(0.1 -0.1)">
       <defs>
        <path id="DejaVuSans-37" d="M 525 4666 
L 3525 4666 
L 3525 4397 
L 1831 0 
L 1172 0 
L 2766 4134 
L 525 4134 
L 525 4666 
z
" transform="scale(0.015625)"/>
       </defs>
       <use xlink:href="#DejaVuSans-37"/>
       <use xlink:href="#DejaVuSans-30" transform="translate(63.623047 0)"/>
       <use xlink:href="#DejaVuSans-30" transform="translate(127.246094 0)"/>
       <use xlink:href="#DejaVuSans-30" transform="translate(190.869141 0)"/>
      </g>
     </g>
    </g>
    <g id="text_9">
     <!-- Fish Population -->
     <g transform="translate(198.62875 335.860562) scale(0.1 -0.1)">
      <defs>
       <path id="DejaVuSans-46" d="M 628 4666 
L 3309 4666 
L 3309 4134 
L 1259 4134 
L 1259 2759 
L 3109 2759 
L 3109 2228 
L 1259 2228 
L 1259 0 
L 628 0 
L 628 4666 
z
" transform="scale(0.015625)"/>
       <path id="DejaVuSans-69" d="M 603 3500 
L 1178 3500 
L 1178 0 
L 603 0 
L 603 3500 
z
M 603 4863 
L 1178 4863 
L 1178 4134 
L 603 4134 
L 603 4863 
z
" transform="scale(0.015625)"/>
       <path id="DejaVuSans-73" d="M 2834 3397 
L 2834 2853 
Q 2591 2978 2328 3040 
Q 2066 3103 1784 3103 
Q 1356 3103 1142 2972 
Q 928 2841 928 2578 
Q 928 2378 1081 2264 
Q 1234 2150 1697 2047 
L 1894 2003 
Q 2506 1872 2764 1633 
Q 3022 1394 3022 966 
Q 3022 478 2636 193 
Q 2250 -91 1575 -91 
Q 1294 -91 989 -36 
Q 684 19 347 128 
L 347 722 
Q 666 556 975 473 
Q 1284 391 1588 391 
Q 1994 391 2212 530 
Q 2431 669 2431 922 
Q 2431 1156 2273 1281 
Q 2116 1406 1581 1522 
L 1381 1569 
Q 847 1681 609 1914 
Q 372 2147 372 2553 
Q 372 3047 722 3315 
Q 1072 3584 1716 3584 
Q 2034 3584 2315 3537 
Q 2597 3491 2834 3397 
z
" transform="scale(0.015625)"/>
       <path id="DejaVuSans-68" d="M 3513 2113 
L 3513 0 
L 2938 0 
L 2938 2094 
Q 2938 2591 2744 2837 
Q 2550 3084 2163 3084 
Q 1697 3084 1428 2787 
Q 1159 2491 1159 1978 
L 1159 0 
L 581 0 
L 581 4863 
L 1159 4863 
L 1159 2956 
Q 1366 3272 1645 3428 
Q 1925 3584 2291 3584 
Q 2894 3584 3203 3211 
Q 3513 2838 3513 2113 
z
" transform="scale(0.015625)"/>
       <path id="DejaVuSans-20" transform="scale(0.015625)"/>
       <path id="DejaVuSans-50" d="M 1259 4147 
L 1259 2394 
L 2053 2394 
Q 2494 2394 2734 2622 
Q 2975 2850 2975 3272 
Q 2975 3691 2734 3919 
Q 2494 4147 2053 4147 
L 1259 4147 
z
M 628 4666 
L 2053 4666 
Q 2838 4666 3239 4311 
Q 3641 3956 3641 3272 
Q 3641 2581 3239 2228 
Q 2838 1875 2053 1875 
L 1259 1875 
L 1259 0 
L 628 0 
L 628 4666 
z
" transform="scale(0.015625)"/>
       <path id="DejaVuSans-6f" d="M 1959 3097 
Q 1497 3097 1228 2736 
Q 959 2375 959 1747 
Q 959 1119 1226 758 
Q 1494 397 1959 397 
Q 2419 397 2687 759 
Q 2956 1122 2956 1747 
Q 2956 2369 2687 2733 
Q 2419 3097 1959 3097 
z
M 1959 3584 
Q 2709 3584 3137 3096 
Q 3566 2609 3566 1747 
Q 3566 888 3137 398 
Q 2709 -91 1959 -91 
Q 1206 -91 779 398 
Q 353 888 353 1747 
Q 353 2609 779 3096 
Q 1206 3584 1959 3584 
z
" transform="scale(0.015625)"/>
       <path id="DejaVuSans-70" d="M 1159 525 
L 1159 -1331 
L 581 -1331 
L 581 3500 
L 1159 3500 
L 1159 2969 
Q 1341 3281 1617 3432 
Q 1894 3584 2278 3584 
Q 2916 3584 3314 3078 
Q 3713 2572 3713 1747 
Q 3713 922 3314 415 
Q 2916 -91 2278 -91 
Q 1894 -91 1617 61 
Q 1341 213 1159 525 
z
M 3116 1747 
Q 3116 2381 2855 2742 
Q 2594 3103 2138 3103 
Q 1681 3103 1420 2742 
Q 1159 2381 1159 1747 
Q 1159 1113 1420 752 
Q 1681 391 2138 391 
Q 2594 391 2855 752 
Q 3116 1113 3116 1747 
z
" transform="scale(0.015625)"/>
       <path id="DejaVuSans-75" d="M 544 1381 
L 544 3500 
L 1119 3500 
L 1119 1403 
Q 1119 906 1312 657 
Q 1506 409 1894 409 
Q 2359 409 2629 706 
Q 2900 1003 2900 1516 
L 2900 3500 
L 3475 3500 
L 3475 0 
L 2900 0 
L 2900 538 
Q 2691 219 2414 64 
Q 2138 -91 1772 -91 
Q 1169 -91 856 284 
Q 544 659 544 1381 
z
M 1991 3584 
L 1991 3584 
z
" transform="scale(0.015625)"/>
       <path id="DejaVuSans-6c" d="M 603 4863 
L 1178 4863 
L 1178 0 
L 603 0 
L 603 4863 
z
" transform="scale(0.015625)"/>
       <path id="DejaVuSans-61" d="M 2194 1759 
Q 1497 1759 1228 1600 
Q 959 1441 959 1056 
Q 959 750 1161 570 
Q 1363 391 1709 391 
Q 2188 391 2477 730 
Q 2766 1069 2766 1631 
L 2766 1759 
L 2194 1759 
z
M 3341 1997 
L 3341 0 
L 2766 0 
L 2766 531 
Q 2569 213 2275 61 
Q 1981 -91 1556 -91 
Q 1019 -91 701 211 
Q 384 513 384 1019 
Q 384 1609 779 1909 
Q 1175 2209 1959 2209 
L 2766 2209 
L 2766 2266 
Q 2766 2663 2505 2880 
Q 2244 3097 1772 3097 
Q 1472 3097 1187 3025 
Q 903 2953 641 2809 
L 641 3341 
Q 956 3463 1253 3523 
Q 1550 3584 1831 3584 
Q 2591 3584 2966 3190 
Q 3341 2797 3341 1997 
z
" transform="scale(0.015625)"/>
       <path id="DejaVuSans-74" d="M 1172 4494 
L 1172 3500 
L 2356 3500 
L 2356 3053 
L 1172 3053 
L 1172 1153 
Q 1172 725 1289 603 
Q 1406 481 1766 481 
L 2356 481 
L 2356 0 
L 1766 0 
Q 1100 0 847 248 
Q 594 497 594 1153 
L 594 3053 
L 172 3053 
L 172 3500 
L 594 3500 
L 594 4494 
L 1172 4494 
z
" transform="scale(0.015625)"/>
       <path id="DejaVuSans-6e" d="M 3513 2113 
L 3513 0 
L 2938 0 
L 2938 2094 
Q 2938 2591 2744 2837 
Q 2550 3084 2163 3084 
Q 1697 3084 1428 2787 
Q 1159 2491 1159 1978 
L 1159 0 
L 581 0 
L 581 3500 
L 1159 3500 
L 1159 2956 
Q 1366 3272 1645 3428 
Q 1925 3584 2291 3584 
Q 2894 3584 3203 3211 
Q 3513 2838 3513 2113 
z
" transform="scale(0.015625)"/>
      </defs>
      <use xlink:href="#DejaVuSans-46"/>
      <use xlink:href="#DejaVuSans-69" transform="translate(50.269531 0)"/>
      <use xlink:href="#DejaVuSans-73" transform="translate(78.052734 0)"/>
      <use xlink:href="#DejaVuSans-68" transform="translate(130.152344 0)"/>
      <use xlink:href="#DejaVuSans-20" transform="translate(193.53125 0)"/>
      <use xlink:href="#DejaVuSans-50" transform="translate(225.318359 0)"/>
      <use xlink:href="#DejaVuSans-6f" transform="translate(281.996094 0)"/>
      <use xlink:href="#DejaVuSans-70" transform="translate(343.177734 0)"/>
      <use xlink:href="#DejaVuSans-75" transform="translate(406.654297 0)"/>
      <use xlink:href="#DejaVuSans-6c" transform="translate(470.033203 0)"/>
      <use xlink:href="#DejaVuSans-61" transform="translate(497.816406 0)"/>
      <use xlink:href="#DejaVuSans-74" transform="translate(559.095703 0)"/>
      <use xlink:href="#DejaVuSans-69" transform="translate(598.304688 0)"/>
      <use xlink:href="#DejaVuSans-6f" transform="translate(626.087891 0)"/>
      <use xlink:href="#DejaVuSans-6e" transform="translate(687.269531 0)"/>
     </g>
    </g>
   </g>
   <g id="matplotlib.axis_2">
    <g id="ytick_1">
     <g id="line2d_9">
      <defs>
       <path id="m26d6ca5745" d="M 0 0 
L -3.5 0 
" style="stroke: #000000; stroke-width: 0.8"/>
      </defs>
      <g>
       <use xlink:href="#m26d6ca5745" x="57.6" y="307.215424" style="stroke: #000000; stroke-width: 0.8"/>
      </g>
     </g>
     <g id="text_10">
      <!-- 0 -->
      <g transform="translate(44.2375 311.014643) scale(0.1 -0.1)">
       <use xlink:href="#DejaVuSans-30"/>
      </g>
     </g>
    </g>
    <g id="ytick_2">
     <g id="line2d_10">
      <g>
       <use xlink:href="#m26d6ca5745" x="57.6" y="270.357806" style="stroke: #000000; stroke-width: 0.8"/>
      </g>
     </g>
     <g id="text_11">
      <!-- 1000 -->
      <g transform="translate(25.15 274.157025) scale(0.1 -0.1)">
       <use xlink:href="#DejaVuSans-31"/>
       <use xlink:href="#DejaVuSans-30" transform="translate(63.623047 0)"/>
       <use xlink:href="#DejaVuSans-30" transform="translate(127.246094 0)"/>
       <use xlink:href="#DejaVuSans-30" transform="translate(190.869141 0)"/>
      </g>
     </g>
    </g>
    <g id="ytick_3">
     <g id="line2d_11">
      <g>
       <use xlink:href="#m26d6ca5745" x="57.6" y="233.500188" style="stroke: #000000; stroke-width: 0.8"/>
      </g>
     </g>
     <g id="text_12">
      <!-- 2000 -->
      <g transform="translate(25.15 237.299407) scale(0.1 -0.1)">
       <use xlink:href="#DejaVuSans-32"/>
       <use xlink:href="#DejaVuSans-30" transform="translate(63.623047 0)"/>
       <use xlink:href="#DejaVuSans-30" transform="translate(127.246094 0)"/>
       <use xlink:href="#DejaVuSans-30" transform="translate(190.869141 0)"/>
      </g>
     </g>
    </g>
    <g id="ytick_4">
     <g id="line2d_12">
      <g>
       <use xlink:href="#m26d6ca5745" x="57.6" y="196.642571" style="stroke: #000000; stroke-width: 0.8"/>
      </g>
     </g>
     <g id="text_13">
      <!-- 3000 -->
      <g transform="translate(25.15 200.441789) scale(0.1 -0.1)">
       <use xlink:href="#DejaVuSans-33"/>
       <use xlink:href="#DejaVuSans-30" transform="translate(63.623047 0)"/>
       <use xlink:href="#DejaVuSans-30" transform="translate(127.246094 0)"/>
       <use xlink:href="#DejaVuSans-30" transform="translate(190.869141 0)"/>
      </g>
     </g>
    </g>
    <g id="ytick_5">
     <g id="line2d_13">
      <g>
       <use xlink:href="#m26d6ca5745" x="57.6" y="159.784953" style="stroke: #000000; stroke-width: 0.8"/>
      </g>
     </g>
     <g id="text_14">
      <!-- 4000 -->
      <g transform="translate(25.15 163.584172) scale(0.1 -0.1)">
       <use xlink:href="#DejaVuSans-34"/>
       <use xlink:href="#DejaVuSans-30" transform="translate(63.623047 0)"/>
       <use xlink:href="#DejaVuSans-30" transform="translate(127.246094 0)"/>
       <use xlink:href="#DejaVuSans-30" transform="translate(190.869141 0)"/>
      </g>
     </g>
    </g>
    <g id="ytick_6">
     <g id="line2d_14">
      <g>
       <use xlink:href="#m26d6ca5745" x="57.6" y="122.927335" style="stroke: #000000; stroke-width: 0.8"/>
      </g>
     </g>
     <g id="text_15">
      <!-- 5000 -->
      <g transform="translate(25.15 126.726554) scale(0.1 -0.1)">
       <use xlink:href="#DejaVuSans-35"/>
       <use xlink:href="#DejaVuSans-30" transform="translate(63.623047 0)"/>
       <use xlink:href="#DejaVuSans-30" transform="translate(127.246094 0)"/>
       <use xlink:href="#DejaVuSans-30" transform="translate(190.869141 0)"/>
      </g>
     </g>
    </g>
    <g id="ytick_7">
     <g id="line2d_15">
      <g>
       <use xlink:href="#m26d6ca5745" x="57.6" y="86.069717" style="stroke: #000000; stroke-width: 0.8"/>
      </g>
     </g>
     <g id="text_16">
      <!-- 6000 -->
      <g transform="translate(25.15 89.868936) scale(0.1 -0.1)">
       <use xlink:href="#DejaVuSans-36"/>
       <use xlink:href="#DejaVuSans-30" transform="translate(63.623047 0)"/>
       <use xlink:href="#DejaVuSans-30" transform="translate(127.246094 0)"/>
       <use xlink:href="#DejaVuSans-30" transform="translate(190.869141 0)"/>
      </g>
     </g>
    </g>
    <g id="ytick_8">
     <g id="line2d_16">
      <g>
       <use xlink:href="#m26d6ca5745" x="57.6" y="49.2121" style="stroke: #000000; stroke-width: 0.8"/>
      </g>
     </g>
     <g id="text_17">
      <!-- 7000 -->
      <g transform="translate(25.15 53.011318) scale(0.1 -0.1)">
       <use xlink:href="#DejaVuSans-37"/>
       <use xlink:href="#DejaVuSans-30" transform="translate(63.623047 0)"/>
       <use xlink:href="#DejaVuSans-30" transform="translate(127.246094 0)"/>
       <use xlink:href="#DejaVuSans-30" transform="translate(190.869141 0)"/>
      </g>
     </g>
    </g>
    <g id="text_18">
     <!-- Shark Population -->
     <g transform="translate(19.070312 216.741281) rotate(-90) scale(0.1 -0.1)">
      <defs>
       <path id="DejaVuSans-53" d="M 3425 4513 
L 3425 3897 
Q 3066 4069 2747 4153 
Q 2428 4238 2131 4238 
Q 1616 4238 1336 4038 
Q 1056 3838 1056 3469 
Q 1056 3159 1242 3001 
Q 1428 2844 1947 2747 
L 2328 2669 
Q 3034 2534 3370 2195 
Q 3706 1856 3706 1288 
Q 3706 609 3251 259 
Q 2797 -91 1919 -91 
Q 1588 -91 1214 -16 
Q 841 59 441 206 
L 441 856 
Q 825 641 1194 531 
Q 1563 422 1919 422 
Q 2459 422 2753 634 
Q 3047 847 3047 1241 
Q 3047 1584 2836 1778 
Q 2625 1972 2144 2069 
L 1759 2144 
Q 1053 2284 737 2584 
Q 422 2884 422 3419 
Q 422 4038 858 4394 
Q 1294 4750 2059 4750 
Q 2388 4750 2728 4690 
Q 3069 4631 3425 4513 
z
" transform="scale(0.015625)"/>
       <path id="DejaVuSans-72" d="M 2631 2963 
Q 2534 3019 2420 3045 
Q 2306 3072 2169 3072 
Q 1681 3072 1420 2755 
Q 1159 2438 1159 1844 
L 1159 0 
L 581 0 
L 581 3500 
L 1159 3500 
L 1159 2956 
Q 1341 3275 1631 3429 
Q 1922 3584 2338 3584 
Q 2397 3584 2469 3576 
Q 2541 3569 2628 3553 
L 2631 2963 
z
" transform="scale(0.015625)"/>
       <path id="DejaVuSans-6b" d="M 581 4863 
L 1159 4863 
L 1159 1991 
L 2875 3500 
L 3609 3500 
L 1753 1863 
L 3688 0 
L 2938 0 
L 1159 1709 
L 1159 0 
L 581 0 
L 581 4863 
z
" transform="scale(0.015625)"/>
      </defs>
      <use xlink:href="#DejaVuSans-53"/>
      <use xlink:href="#DejaVuSans-68" transform="translate(63.476562 0)"/>
      <use xlink:href="#DejaVuSans-61" transform="translate(126.855469 0)"/>
      <use xlink:href="#DejaVuSans-72" transform="translate(188.134766 0)"/>
      <use xlink:href="#DejaVuSans-6b" transform="translate(229.248047 0)"/>
      <use xlink:href="#DejaVuSans-20" transform="translate(287.158203 0)"/>
      <use xlink:href="#DejaVuSans-50" transform="translate(318.945312 0)"/>
      <use xlink:href="#DejaVuSans-6f" transform="translate(375.623047 0)"/>
      <use xlink:href="#DejaVuSans-70" transform="translate(436.804688 0)"/>
      <use xlink:href="#DejaVuSans-75" transform="translate(500.28125 0)"/>
      <use xlink:href="#DejaVuSans-6c" transform="translate(563.660156 0)"/>
      <use xlink:href="#DejaVuSans-61" transform="translate(591.443359 0)"/>
      <use xlink:href="#DejaVuSans-74" transform="translate(652.722656 0)"/>
      <use xlink:href="#DejaVuSans-69" transform="translate(691.931641 0)"/>
      <use xlink:href="#DejaVuSans-6f" transform="translate(719.714844 0)"/>
      <use xlink:href="#DejaVuSans-6e" transform="translate(780.896484 0)"/>
     </g>
    </g>
   </g>
   <g id="LineCollection_1">
    <path d="M 69.914483 307.584 
L 69.914483 307.584 
L 81.804488 307.35756 
L 93.708061 307.307726 
L 105.612031 307.29349 
L 117.516028 307.292268 
L 129.420019 307.299138 
L 141.323996 307.313822 
L 153.227937 307.338409 
L 165.131769 307.37735 
L 177.035353 307.438771 
L 188.938431 307.537203 
L 193.331144 307.584 
" clip-path="url(#pf10e1d3833)" style="fill: none; stroke: #1f77b4; stroke-width: 1.5"/>
    <path d="M 207.020009 307.260784 
L 218.923753 307.28752 
L 230.82738 307.334971 
L 242.730365 307.421464 
L 254.631724 307.584 
L 254.631724 307.584 
" clip-path="url(#pf10e1d3833)" style="fill: none; stroke: #1f77b4; stroke-width: 1.5"/>
    <path d="M 268.600741 307.241463 
L 280.503944 307.264471 
L 292.407064 307.311284 
L 304.308263 307.404936 
L 316.204138 307.584 
L 316.204138 307.584 
" clip-path="url(#pf10e1d3833)" style="fill: none; stroke: #1f77b4; stroke-width: 1.5"/>
    <path d="M 323.961666 307.301223 
L 335.86171 307.353877 
L 347.553916 307.403518 
L 356.528039 307.515632 
L 365.462069 307.584 
L 365.462069 307.584 
L 365.462069 307.584 
" clip-path="url(#pf10e1d3833)" style="fill: none; stroke: #1f77b4; stroke-width: 1.5"/>
    <path d="M 414.72 298.407724 
L 414.72 298.407724 
L 405.660409 292.653987 
L 396.67361 286.836857 
L 387.703544 281.005375 
L 378.727005 275.179432 
L 369.730819 269.370352 
L 360.705677 263.58628 
L 351.643855 257.834154 
L 342.538181 252.120631 
L 333.381452 246.452619 
L 324.166069 240.837668 
L 314.883744 235.284323 
L 305.525233 229.80249 
L 296.080082 224.403873 
L 286.536339 219.102512 
L 276.880255 213.915489 
L 267.09596 208.863853 
L 257.165134 203.973891 
L 247.066745 199.278845 
L 236.776961 194.821315 
L 226.269532 190.656553 
L 215.517173 186.856987 
L 204.495033 183.51821 
L 193.188231 180.766102 
L 181.606527 178.763423 
L 169.809406 177.710241 
L 157.939723 177.826647 
L 147.013509 179.153705 
L 137.204407 181.521404 
L 128.300768 184.817824 
L 120.136308 188.994291 
L 112.596692 194.048006 
L 105.611377 200.008712 
L 99.144972 206.929179 
L 93.3355 214.657837 
L 88.407374 222.723327 
L 84.2464 231.027967 
L 80.752332 239.503267 
L 77.843193 248.101483 
L 75.458722 256.78956 
L 73.567469 265.545035 
L 72.186517 274.352957 
L 71.448448 283.201533 
L 71.898159 292.04475 
L 71.898159 292.04475 
L 73.063786 296.296967 
L 73.063786 296.296967 
L 75.037527 299.39918 
L 75.037527 299.39918 
L 77.886206 301.555709 
L 81.511135 302.973849 
" clip-path="url(#pf10e1d3833)" style="fill: none; stroke: #1f77b4; stroke-width: 1.5"/>
    <path d="M 414.72 289.231448 
L 414.72 289.231448 
L 405.610343 283.521477 
L 396.538705 277.777915 
L 387.477568 272.025144 
L 378.410139 266.277885 
" clip-path="url(#pf10e1d3833)" style="fill: none; stroke: #1f77b4; stroke-width: 1.5"/>
    <path d="M 414.72 280.055172 
L 414.72 280.055172 
L 405.570729 274.380412 
L 396.440627 268.688511 
L 387.312387 262.99495 
" clip-path="url(#pf10e1d3833)" style="fill: none; stroke: #1f77b4; stroke-width: 1.5"/>
    <path d="M 414.72 270.878897 
L 414.72 270.878897 
L 405.533145 265.237932 
L 396.352954 259.590941 
L 387.166826 253.949318 
L 377.964405 248.322469 
L 368.736568 242.718792 
L 359.474785 237.146318 
L 350.170661 231.613171 
L 340.815595 226.127956 
L 331.400488 220.700126 
L 321.915473 215.340358 
L 312.349663 210.060999 
L 302.69088 204.876591 
L 292.925387 199.804547 
L 283.037618 194.866014 
L 273.009939 190.087009 
L 262.822507 185.499935 
L 252.453348 181.145583 
L 241.878908 177.075783 
L 231.075533 173.356801 
L 220.022673 170.073452 
L 208.709063 167.33345 
L 197.143537 165.270413 
L 185.371584 164.041988 
L 173.49557 163.817302 
L 161.689176 164.748375 
L 150.808862 166.770434 
L 140.819027 169.76451 
L 131.575759 173.669808 
L 122.983357 178.462983 
" clip-path="url(#pf10e1d3833)" style="fill: none; stroke: #1f77b4; stroke-width: 1.5"/>
    <path d="M 414.72 261.702621 
L 414.72 261.702621 
L 405.49489 256.096424 
L 396.267015 250.492757 
L 387.026225 244.900928 
L 377.763482 239.329315 
" clip-path="url(#pf10e1d3833)" style="fill: none; stroke: #1f77b4; stroke-width: 1.5"/>
    <path d="M 414.72 243.350069 
L 414.72 243.350069 
L 405.411547 237.820901 
L 396.085573 232.308163 
L 386.733971 226.819597 
L 377.348738 221.363017 
L 367.921717 215.946609 
L 358.444361 210.579229 
L 348.907527 205.270714 
L 339.301255 200.032239 
L 329.614559 194.876737 
L 319.835201 189.819416 
L 309.949484 184.878411 
L 299.942053 180.075617 
L 289.795766 175.437755 
L 279.491716 170.997736 
L 269.009526 166.796414 
L 258.328194 162.884728 
L 247.42788 159.326211 
L 236.293253 156.199594 
L 224.919174 153.600788 
L 213.319362 151.642702 
L 201.537674 150.450633 
L 189.659245 150.150436 
L 177.81556 150.849339 
L 166.176735 152.613912 
L 155.084922 155.405766 
L 144.687201 159.137669 
L 134.920035 163.779476 
" clip-path="url(#pf10e1d3833)" style="fill: none; stroke: #1f77b4; stroke-width: 1.5"/>
    <path d="M 414.72 224.997517 
L 414.72 224.997517 
L 405.31371 219.561085 
L 395.876851 214.154165 
L 386.401655 208.784625 
L 376.879972 203.460972 
L 367.303091 198.192623 
L 357.661554 192.990221 
L 347.944971 187.866007 
L 338.141824 182.834276 
L 328.239286 177.911939 
L 318.223054 173.119238 
L 308.077242 168.480642 
L 297.784399 164.025971 
L 287.325759 159.791797 
L 276.68192 155.823129 
L 265.834253 152.175285 
L 254.767455 148.915778 
L 243.473771 146.125562 
L 231.959248 143.89871 
L 220.251726 142.338936 
L 208.408859 141.551368 
L 196.522665 141.629686 
L 184.716487 142.641103 
L 173.133338 144.615196 
" clip-path="url(#pf10e1d3833)" style="fill: none; stroke: #1f77b4; stroke-width: 1.5"/>
    <path d="M 414.72 206.644966 
L 414.72 206.644966 
L 405.194852 201.32472 
L 395.625427 196.048808 
L 386.003369 190.826356 
L 376.319613 185.667665 
L 366.564212 180.584549 
L 356.726173 175.590747 
L 346.793297 170.702429 
L 336.752042 165.938832 
L 326.587437 161.323048 
L 316.283124 156.882984 
L 305.821599 152.652544 
L 295.184841 148.672978 
L 284.355535 144.994337 
L 273.319244 141.676792 
L 262.067842 138.791291 
L 250.604418 136.418809 
L 238.949277 134.647042 
L 227.145676 133.563645 
L 215.262828 133.246363 
L 203.39369 133.752393 
L 191.646977 135.110835 
L 180.13626 137.321496 
" clip-path="url(#pf10e1d3833)" style="fill: none; stroke: #1f77b4; stroke-width: 1.5"/>
    <path d="M 414.72 188.292414 
L 414.72 188.292414 
L 405.046313 183.123191 
L 395.312244 178.017347 
L 385.508143 172.986521 
L 375.623363 168.044226 
L 365.646119 163.206326 
L 355.563381 158.49161 
L 345.360821 153.922522 
L 335.022886 149.526009 
L 324.533076 145.334541 
L 313.874578 141.387226 
L 303.031462 137.730925 
L 291.990675 134.421105 
L 280.745085 131.521934 
L 269.297585 129.104962 
L 257.665783 127.245562 
L 245.886027 126.016651 
L 234.014836 125.480481 
L 222.126147 125.680636 
L 210.304628 126.637476 
L 198.637685 128.348987 
" clip-path="url(#pf10e1d3833)" style="fill: none; stroke: #1f77b4; stroke-width: 1.5"/>
    <path d="M 414.72 169.939862 
L 414.72 169.939862 
L 404.85519 164.975377 
L 394.909724 160.101163 
L 384.872033 155.333208 
L 374.729384 150.69041 
L 364.46787 146.195241 
L 354.072533 141.874553 
L 343.527721 137.760437 
L 332.817794 133.891177 
L 321.928394 130.311996 
L 310.848425 127.075491 
L 299.57293 124.241042 
L 288.106651 121.872835 
L 276.46771 120.035729 
L 264.690098 118.789076 
L 252.823524 118.179686 
L 240.929721 118.235978 
L 229.076348 118.966171 
" clip-path="url(#pf10e1d3833)" style="fill: none; stroke: #1f77b4; stroke-width: 1.5"/>
    <path d="M 414.72 151.58731 
L 414.72 151.58731 
L 404.601234 146.915526 
L 394.375529 142.375076 
L 384.029233 137.989224 
L 373.54788 133.785611 
L 362.916676 129.797 
L 352.121373 126.061968 
L 341.149694 122.62533 
L 329.993445 119.537908 
L 318.651292 116.85517 
L 307.131846 114.634331 
L 295.45624 112.92952 
L 283.658977 111.785708 
" clip-path="url(#pf10e1d3833)" style="fill: none; stroke: #1f77b4; stroke-width: 1.5"/>
    <path d="M 414.72 133.234759 
L 414.72 133.234759 
L 404.252262 129.012131 
L 393.64522 124.987635 
L 382.885317 121.195826 
L 371.960451 117.676627 
L 360.861687 114.475126 
L 349.58553 111.640464 
L 338.136518 109.223352 
L 326.529506 107.27194 
L 314.790671 105.826589 
L 302.95629 104.914494 
L 291.069184 104.546268 
L 279.173782 104.715849 
L 267.311646 105.403974 
L 255.518927 106.583891 
L 243.826069 108.227265 
" clip-path="url(#pf10e1d3833)" style="fill: none; stroke: #1f77b4; stroke-width: 1.5"/>
    <path d="M 414.72 114.882207 
L 414.72 114.882207 
L 403.762842 111.418979 
L 392.640326 108.263191 
L 381.349993 105.459358 
L 369.896772 103.05214 
L 358.294712 101.082347 
L 346.567438 99.582098 
L 334.746622 98.570247 
L 322.868551 98.049863 
L 310.969776 98.008804 
L 299.083377 98.423354 
L 287.236959 99.263587 
L 275.452498 100.498709 
" clip-path="url(#pf10e1d3833)" style="fill: none; stroke: #1f77b4; stroke-width: 1.5"/>
    <path d="M 414.72 105.705931 
L 414.72 105.705931 
L 403.456331 102.842471 
L 392.033554 100.355231 
L 380.463323 98.28269 
L 368.766105 96.655371 
" clip-path="url(#pf10e1d3833)" style="fill: none; stroke: #1f77b4; stroke-width: 1.5"/>
    <path d="M 414.72 87.353379 
L 414.72 87.353379 
L 402.862928 86.597594 
L 390.972727 86.224389 
L 379.071518 86.205804 
L 367.1768 86.509429 
L 355.301312 87.102406 
L 343.453938 87.954749 
L 331.640899 89.041326 
L 319.866838 90.342683 
L 308.13595 91.845331 
" clip-path="url(#pf10e1d3833)" style="fill: none; stroke: #1f77b4; stroke-width: 1.5"/>
    <path d="M 414.72 78.177103 
L 414.72 78.177103 
L 402.899642 79.22542 
L 391.091603 80.348175 
L 379.297207 81.547978 
" clip-path="url(#pf10e1d3833)" style="fill: none; stroke: #1f77b4; stroke-width: 1.5"/>
    <path d="M 414.72 50.648276 
L 414.72 50.648276 
L 414.72 50.648276 
L 412.102132 55.599701 
L 408.132746 60.165395 
L 403.155414 64.082316 
L 397.044838 67.608884 
L 389.55227 70.905254 
" clip-path="url(#pf10e1d3833)" style="fill: none; stroke: #1f77b4; stroke-width: 1.5"/>
    <path d="M 390.091034 41.472 
L 390.091034 41.472 
L 390.091034 41.472 
L 389.708023 47.976779 
L 387.598443 54.468399 
L 384.179079 59.727389 
L 379.732106 64.121762 
L 374.230817 67.999018 
L 367.491165 71.574798 
L 359.213749 74.994941 
L 348.963009 78.38581 
L 337.808117 81.470788 
" clip-path="url(#pf10e1d3833)" style="fill: none; stroke: #1f77b4; stroke-width: 1.5"/>
    <path d="M 365.462069 41.472 
L 365.462069 41.472 
L 365.462069 41.472 
L 365.339206 48.391789 
L 363.462873 55.312834 
L 360.201348 60.934105 
L 355.8786 65.624188 
L 350.50588 69.754444 
L 343.921708 73.564883 
" clip-path="url(#pf10e1d3833)" style="fill: none; stroke: #1f77b4; stroke-width: 1.5"/>
    <path d="M 340.833103 41.472 
L 340.833103 41.472 
L 340.833103 41.472 
L 340.957712 48.851585 
L 339.307076 56.234707 
L 336.198715 62.259095 
L 331.987864 67.291167 
L 326.721718 71.721882 
L 320.262945 75.81476 
L 312.345204 79.757628 
" clip-path="url(#pf10e1d3833)" style="fill: none; stroke: #1f77b4; stroke-width: 1.5"/>
    <path d="M 328.518621 41.472 
L 328.518621 41.472 
L 328.632974 50.308024 
L 326.81073 57.795888 
L 323.583385 63.85095 
L 319.259415 68.953364 
L 313.86434 73.485619 
L 307.250139 77.70687 
L 299.137866 81.810413 
L 289.090408 85.982958 
L 278.365344 89.823472 
L 267.45878 93.374922 
L 256.465425 96.776924 
L 245.446451 100.1331 
L 234.446373 103.523319 
L 223.502147 107.011901 
L 212.648179 110.652885 
L 201.919327 114.493315 
L 191.352881 118.575171 
L 180.990095 122.936247 
L 170.876791 127.610151 
L 161.06354 132.625589 
L 151.604917 138.005019 
L 142.557611 143.763044 
L 133.977619 149.904694 
" clip-path="url(#pf10e1d3833)" style="fill: none; stroke: #1f77b4; stroke-width: 1.5"/>
    <path d="M 303.889655 41.472 
L 303.889655 41.472 
L 304.311653 50.31099 
L 302.82672 58.390177 
L 299.832238 65.007041 
L 295.682418 70.591372 
L 290.449474 75.548362 
L 284.019029 80.166833 
" clip-path="url(#pf10e1d3833)" style="fill: none; stroke: #1f77b4; stroke-width: 1.5"/>
    <path d="M 279.26069 41.472 
L 279.26069 41.472 
L 279.922349 50.309267 
L 278.761668 59.031219 
L 276.001935 66.280222 
L 272.021606 72.428582 
L 266.932897 77.897734 
L 260.653708 83.005275 
L 252.951943 88.007234 
" clip-path="url(#pf10e1d3833)" style="fill: none; stroke: #1f77b4; stroke-width: 1.5"/>
    <path d="M 254.631724 41.472 
L 254.631724 41.472 
L 255.466297 50.306187 
L 254.734464 59.134723 
L 252.322309 67.162063 
L 248.595751 74.042363 
L 243.721252 80.174375 
L 237.658127 85.908907 
L 230.205467 91.542449 
L 221.150562 97.287911 
" clip-path="url(#pf10e1d3833)" style="fill: none; stroke: #1f77b4; stroke-width: 1.5"/>
    <path d="M 230.002759 41.472 
L 230.002759 41.472 
L 230.945151 50.304113 
L 230.572803 59.15303 
L 228.586418 67.873 
L 225.16041 75.643036 
L 220.530335 82.604046 
L 214.698184 89.134853 
L 207.494833 95.580005 
L 199.155207 101.900046 
L 190.362485 107.875937 
L 181.337035 113.658915 
L 172.239698 119.379832 
" clip-path="url(#pf10e1d3833)" style="fill: none; stroke: #1f77b4; stroke-width: 1.5"/>
    <path d="M 217.688276 41.472 
L 217.688276 41.472 
L 218.660708 50.303942 
L 218.435614 59.158747 
L 216.7526 67.91923 
" clip-path="url(#pf10e1d3833)" style="fill: none; stroke: #1f77b4; stroke-width: 1.5"/>
    <path d="M 205.373793 41.472 
L 205.373793 41.472 
L 206.36062 50.3045 
L 206.261771 59.163254 
L 204.854742 67.95505 
L 201.979001 76.541588 
L 197.730569 84.601164 
L 192.255655 92.177037 
L 185.590172 99.513074 
L 178.188598 106.453234 
" clip-path="url(#pf10e1d3833)" style="fill: none; stroke: #1f77b4; stroke-width: 1.5"/>
    <path d="M 193.05931 41.472 
L 193.05931 41.472 
L 194.045081 50.30584 
L 194.052048 59.167162 
L 192.893565 67.982669 
L 190.427697 76.644395 
L 186.619965 85.031032 
" clip-path="url(#pf10e1d3833)" style="fill: none; stroke: #1f77b4; stroke-width: 1.5"/>
    <path d="M 180.744828 41.472 
L 180.744828 41.472 
L 181.714254 50.307965 
L 181.807236 59.170929 
L 180.870253 68.004004 
L 178.782679 76.724659 
" clip-path="url(#pf10e1d3833)" style="fill: none; stroke: #1f77b4; stroke-width: 1.5"/>
    <path d="M 168.430345 41.472 
L 168.430345 41.472 
L 169.368298 50.310835 
L 169.528133 59.174876 
L 168.786308 68.020654 
L 167.04413 76.786478 
L 164.258928 85.400722 
L 160.468807 93.800099 
L 155.79405 101.950426 
L 150.412371 109.857759 
L 144.52341 117.564272 
L 138.320346 125.134367 
L 131.975117 132.639469 
L 125.634072 140.146541 
L 119.418573 147.711276 
L 113.426893 155.375086 
L 107.735859 163.164561 
L 102.402179 171.092809 
L 97.463787 179.161765 
L 92.941605 187.365008 
L 88.841939 195.690697 
L 85.159265 204.124043 
L 81.879385 212.649423 
L 78.98235 221.251681 
" clip-path="url(#pf10e1d3833)" style="fill: none; stroke: #1f77b4; stroke-width: 1.5"/>
    <path d="M 156.115862 41.472 
L 156.115862 41.472 
L 157.007346 50.314363 
L 157.215513 59.179187 
L 156.64342 68.033905 
L 155.213439 76.833549 
L 152.888204 85.525972 
L 149.688582 94.063116 
L 145.698642 102.414789 
" clip-path="url(#pf10e1d3833)" style="fill: none; stroke: #1f77b4; stroke-width: 1.5"/>
    <path d="M 143.801379 41.472 
L 143.801379 41.472 
L 144.631522 50.318422 
L 144.87012 59.183927 
L 144.443383 68.044743 
L 143.29287 76.869067 
L 141.389125 85.620399 
" clip-path="url(#pf10e1d3833)" style="fill: none; stroke: #1f77b4; stroke-width: 1.5"/>
    <path d="M 131.486897 41.472 
L 131.486897 41.472 
L 132.240933 50.32284 
L 132.49266 59.189049 
L 132.188013 68.053872 
L 131.285255 76.89568 
L 129.763519 85.690072 
L 127.630513 94.413787 
L 124.926527 103.049621 
L 121.72276 111.590706 
L 118.114158 120.042437 
L 114.209141 128.421345 
L 110.119225 136.751559 
L 105.950613 145.060266 
L 101.798498 153.373525 
L 97.743815 161.713297 
L 93.851812 170.095792 
" clip-path="url(#pf10e1d3833)" style="fill: none; stroke: #1f77b4; stroke-width: 1.5"/>
    <path d="M 119.172414 41.472 
L 119.172414 41.472 
L 119.835684 50.327409 
L 120.083803 59.194397 
L 119.879111 68.061745 
L 119.193769 76.915498 
L 118.014861 85.740278 
L 116.34892 94.52145 
" clip-path="url(#pf10e1d3833)" style="fill: none; stroke: #1f77b4; stroke-width: 1.5"/>
    <path d="M 106.857931 41.472 
L 106.857931 41.472 
L 107.415873 50.331876 
L 107.644181 59.199724 
L 107.518411 68.068581 
L 107.02172 76.930124 
L 106.147697 85.775426 
L 104.902758 94.596085 
L 103.307512 103.385513 
L 101.396644 112.140123 
L 99.217082 120.86004 
L 96.824844 129.549166 
L 94.280975 138.214512 
L 91.647445 146.865072 
L 88.983462 155.510489 
L 86.342591 164.159818 
L 83.770886 172.82066 
L 81.305893 181.498646 
L 78.976491 190.197333 
L 76.803414 198.918407 
L 74.800123 207.661995 
L 72.974024 216.427089 
L 71.327908 225.21196 
L 69.861403 234.014482 
L 68.57278 242.83245 
" clip-path="url(#pf10e1d3833)" style="fill: none; stroke: #1f77b4; stroke-width: 1.5"/>
    <path d="M 94.543448 41.472 
L 94.543448 41.472 
L 94.9816 50.335953 
L 95.174394 59.204688 
L 95.107574 68.074394 
L 94.772431 76.940695 
L 94.167178 85.799039 
L 93.298024 94.645217 
L 92.179738 103.475913 
L 90.835471 112.28919 
" clip-path="url(#pf10e1d3833)" style="fill: none; stroke: #1f77b4; stroke-width: 1.5"/>
    <path d="M 82.228966 41.472 
L 82.228966 41.472 
L 82.532977 50.339314 
L 82.675016 59.208867 
L 82.648178 68.079014 
L 82.449142 76.947937 
L 82.078694 85.81381 
L 81.542073 94.674979 
L 80.849073 103.53015 
L 80.01384 112.378539 
L 79.05437 121.219968 
L 77.991742 130.054882 
L 76.849107 138.884282 
L 75.650588 147.709587 
L 74.420221 156.532471 
L 73.180924 165.354664 
L 71.9537 174.177789 
L 70.757052 183.003236 
L 69.606633 191.832082 
L 68.515148 200.665066 
" clip-path="url(#pf10e1d3833)" style="fill: none; stroke: #1f77b4; stroke-width: 1.5"/>
    <path d="M 69.914483 41.472 
L 69.914483 41.472 
L 70.070128 50.341595 
L 70.146607 59.211761 
L 70.141713 68.082108 
L 70.054952 76.952219 
L 69.887638 85.821693 
L 69.642928 94.690172 
L 69.325758 103.557384 
L 68.942703 112.423157 
L 68.501751 121.287444 
L 68.012017 130.150316 
L 67.483387 139.011953 
" clip-path="url(#pf10e1d3833)" style="fill: none; stroke: #1f77b4; stroke-width: 1.5"/>
    <path d="M 57.6 69.000828 
L 57.6 69.000828 
L 57.603471 77.871227 
L 57.610102 86.741626 
L 57.619733 95.612023 
L 57.632148 104.482418 
L 57.647079 113.35281 
L 57.664221 122.2232 
L 57.683234 131.093587 
L 57.703761 139.963972 
L 57.725434 148.834355 
L 57.747887 157.704735 
L 57.770762 166.575114 
L 57.793718 175.445492 
L 57.816439 184.31587 
L 57.83864 193.186248 
L 57.860065 202.056628 
L 57.880491 210.927008 
L 57.899729 219.797392 
L 57.917613 228.667777 
L 57.933998 237.538166 
L 57.948739 246.408558 
L 57.961663 255.278952 
L 57.97251 264.149347 
L 57.980804 273.019744 
L 57.985463 281.890143 
L 57.983269 290.760541 
L 57.95768 299.630896 
L 57.912048 307.584 
" clip-path="url(#pf10e1d3833)" style="fill: none; stroke: #1f77b4; stroke-width: 1.5"/>
    <path d="M 195.931383 302.768733 
L 200.181704 301.500152 
L 203.253498 300.017802 
L 205.545782 298.014977 
L 206.608441 295.527873 
L 206.608441 295.527873 
L 206.26675 292.415995 
L 206.26675 292.415995 
L 204.180642 288.442207 
L 204.180642 288.442207 
L 199.497663 283.070276 
L 199.497663 283.070276 
L 191.641896 276.426148 
L 182.890543 270.424722 
L 173.49544 264.988683 
L 163.523594 260.159225 
L 153.329427 256.199159 
L 143.998689 253.506857 
L 135.443265 251.938134 
L 127.505494 251.397816 
L 119.984749 251.878296 
L 112.666857 253.5144 
L 105.461569 256.613561 
L 98.663936 261.459855 
L 92.969115 267.805025 
L 88.99004 274.632113 
L 86.789997 280.807687 
L 86.006164 285.84057 
L 86.2661 289.817246 
L 87.478726 293.129531 
L 90.296567 296.240019 
L 94.543448 298.407724 
L 94.543448 298.407724 
L 94.543448 298.407724 
L 101.144316 299.970075 
L 107.332634 300.588373 
L 116.292742 300.771602 
L 127.948041 300.086478 
L 127.948041 300.086478 
L 137.761351 298.439224 
L 137.761351 298.439224 
L 143.464265 296.435296 
L 143.464265 296.435296 
L 146.592181 294.180424 
L 146.592181 294.180424 
L 147.818722 291.714652 
L 147.503829 289.109198 
L 146.003241 286.580412 
L 143.225245 283.844017 
L 138.920011 280.966264 
L 133.038138 278.297236 
L 126.050674 276.438927 
L 118.957728 275.919439 
L 112.715728 276.798251 
L 107.712569 278.768554 
L 103.93677 281.553936 
L 101.492662 284.975758 
L 100.866583 288.642311 
L 100.866583 288.642311 
L 101.925174 291.174609 
L 104.302629 293.147416 
" clip-path="url(#pf10e1d3833)" style="fill: none; stroke: #1f77b4; stroke-width: 1.5"/>
    <path d="M 150.545996 302.840598 
L 158.086136 301.697266 
L 163.185345 300.485534 
L 168.430345 298.407724 
L 168.430345 298.407724 
L 168.430345 298.407724 
L 171.478833 295.944967 
L 172.667938 292.799946 
L 172.142232 289.990402 
L 170.465293 286.994266 
L 167.411322 283.512611 
L 162.637094 279.500962 
L 155.878297 275.122209 
L 147.262162 270.875254 
L 137.556474 267.532033 
L 127.949842 265.73596 
L 119.420145 265.614651 
L 112.333533 266.858371 
L 106.541107 269.101042 
L 101.753306 272.1554 
L 97.817784 275.979994 
L 94.823859 280.547314 
L 93.189509 285.647511 
L 93.189509 285.647511 
L 93.326745 289.603103 
L 93.326745 289.603103 
L 94.770545 292.633624 
" clip-path="url(#pf10e1d3833)" style="fill: none; stroke: #1f77b4; stroke-width: 1.5"/>
    <path d="M 225.598116 302.022564 
L 228.234669 300.494479 
L 230.002759 298.407724 
L 230.002759 298.407724 
L 230.002759 298.407724 
L 230.002759 298.407724 
L 230.002759 298.407724 
L 230.469804 295.571729 
L 229.663473 292.81127 
L 227.687377 289.499206 
L 224.174756 285.349337 
L 218.608495 280.122337 
L 210.436127 273.682782 
L 201.679139 267.680455 
L 192.466785 262.068315 
L 182.836364 256.861048 
L 172.781311 252.12283 
" clip-path="url(#pf10e1d3833)" style="fill: none; stroke: #1f77b4; stroke-width: 1.5"/>
    <path d="M 238.077296 302.362322 
L 240.578455 300.835183 
L 242.317241 298.407724 
L 242.317241 298.407724 
L 242.317241 298.407724 
L 242.317241 298.407724 
L 242.353796 295.419686 
L 241.203852 292.606927 
L 238.769645 289.060288 
L 234.624314 284.548255 
L 228.176208 278.799848 
L 219.890087 272.43807 
" clip-path="url(#pf10e1d3833)" style="fill: none; stroke: #1f77b4; stroke-width: 1.5"/>
    <path d="M 251.054853 302.514299 
L 253.350793 300.881934 
L 254.631724 298.407724 
L 254.631724 298.407724 
L 254.631724 298.407724 
L 254.631724 298.407724 
L 254.213878 295.23573 
L 252.692974 292.324466 
L 249.713552 288.485012 
L 244.805891 283.53649 
L 237.29251 277.168296 
L 228.88463 270.89348 
L 220.081187 264.925889 
L 210.947373 259.240284 
L 201.501932 253.845061 
L 191.737809 248.775556 
L 181.630289 244.096687 
L 171.141878 239.91346 
L 160.230741 236.391493 
L 148.875292 233.790922 
L 137.144465 232.508065 
L 127.045485 232.829551 
L 118.569438 234.39978 
L 111.347934 236.938021 
L 105.042922 240.318424 
L 99.419468 244.530972 
L 94.345443 249.634628 
L 89.776298 255.722505 
L 85.752203 262.888903 
L 82.428807 271.167216 
" clip-path="url(#pf10e1d3833)" style="fill: none; stroke: #1f77b4; stroke-width: 1.5"/>
    <path d="M 276.965761 302.889388 
L 278.912169 300.93357 
L 279.26069 298.407724 
L 279.26069 298.407724 
L 279.26069 298.407724 
L 279.26069 298.407724 
L 277.793172 294.750086 
L 275.376265 291.483943 
L 270.956155 286.839154 
L 264.010327 280.718939 
L 255.791614 274.305858 
L 247.212036 268.158992 
L 238.354807 262.234252 
L 229.252411 256.51944 
L 219.912613 251.021592 
L 210.327841 245.763501 
L 200.478924 240.784687 
L 190.336763 236.14591 
L 179.864012 231.937971 
L 169.019723 228.296784 
L 157.773786 225.427437 
L 146.14759 223.635948 
L 134.974412 223.305965 
L 125.465078 224.367558 
L 117.361761 226.505752 
L 110.314222 229.536605 
" clip-path="url(#pf10e1d3833)" style="fill: none; stroke: #1f77b4; stroke-width: 1.5"/>
    <path d="M 303.702301 302.774675 
L 304.448701 300.874751 
L 304.448701 300.874751 
L 303.889655 298.407724 
L 303.889655 298.407724 
L 303.889655 298.407724 
L 300.621257 293.510269 
L 296.783294 289.551898 
L 289.812315 283.418504 
L 281.621308 276.984979 
L 273.11445 270.781605 
L 264.375926 264.759178 
L 255.440685 258.89905 
L 246.32136 253.198554 
L 237.017793 247.665959 
L 227.520876 242.319151 
L 217.814062 237.186376 
L 207.873868 232.308734 
L 197.670091 227.74476 
L 187.166695 223.577994 
L 176.325263 219.929084 
L 165.115733 216.974146 
L 153.545105 214.968911 
L 141.723116 214.264508 
L 131.474978 215.0068 
L 122.693564 216.893702 
L 115.042047 219.717529 
" clip-path="url(#pf10e1d3833)" style="fill: none; stroke: #1f77b4; stroke-width: 1.5"/>
    <path d="M 330.10031 302.80434 
L 330.10031 302.80434 
L 329.842369 300.730165 
L 329.842369 300.730165 
L 328.518621 298.407724 
L 328.518621 298.407724 
L 328.518621 298.407724 
L 323.361769 292.645796 
L 317.676903 287.656801 
L 309.520615 281.198733 
L 301.064859 274.956363 
L 292.407291 268.869026 
L 283.587607 262.912135 
L 274.622365 257.077093 
L 265.516188 251.364539 
L 256.266191 245.781845 
" clip-path="url(#pf10e1d3833)" style="fill: none; stroke: #1f77b4; stroke-width: 1.5"/>
    <path d="M 356.414288 302.773992 
L 356.414288 302.773992 
L 355.191391 300.72785 
L 355.191391 300.72785 
L 353.147586 298.407724 
L 353.147586 298.407724 
L 345.585696 291.576694 
L 337.35507 285.170732 
L 328.861337 278.956685 
L 320.20263 272.869971 
L 311.416138 266.885668 
L 302.517392 260.994141 
L 293.511638 255.193603 
" clip-path="url(#pf10e1d3833)" style="fill: none; stroke: #1f77b4; stroke-width: 1.5"/>
    <path d="M 369.666719 302.975649 
L 369.666719 302.975649 
L 368.194844 301.097807 
L 368.194844 301.097807 
L 365.462069 298.407724 
L 365.462069 298.407724 
L 357.532084 291.801652 
L 349.144591 285.508556 
L 340.559437 279.364323 
L 331.844264 273.322355 
L 323.024808 267.364927 
L 314.111311 261.485706 
L 305.10649 255.684279 
" clip-path="url(#pf10e1d3833)" style="fill: none; stroke: #1f77b4; stroke-width: 1.5"/>
    <path d="M 387.529611 307.584 
L 382.07269 302.21005 
L 377.776552 298.407724 
L 377.776552 298.407724 
L 369.517271 292.023462 
L 360.975217 285.846108 
L 352.296158 279.77532 
L 343.520389 273.782123 
" clip-path="url(#pf10e1d3833)" style="fill: none; stroke: #1f77b4; stroke-width: 1.5"/>
    <path d="M 400.28457 307.584 
L 397.962208 305.036473 
L 390.091034 298.407724 
L 381.536441 292.240201 
L 372.84265 286.181059 
L 364.067753 280.187085 
L 355.227857 274.246354 
" clip-path="url(#pf10e1d3833)" style="fill: none; stroke: #1f77b4; stroke-width: 1.5"/>
    <path d="M 414.72 306.686049 
L 411.237555 304.354986 
L 402.405517 298.407724 
L 393.585356 292.450639 
L 384.74315 286.511738 
L 375.871077 280.59763 
" clip-path="url(#pf10e1d3833)" style="fill: none; stroke: #1f77b4; stroke-width: 1.5"/>
    <path d="M 241.406349 41.472 
L 241.463667 41.813202 
L 242.317241 50.648276 
L 241.72676 59.48684 
L 239.450959 67.927674 
" clip-path="url(#pf10e1d3833)" style="fill: none; stroke: #1f77b4; stroke-width: 1.5"/>
    <path d="M 114.159333 290.507367 
L 116.718698 290.683388 
L 118.347579 290.28234 
L 119.172414 289.231448 
L 119.172414 289.231448 
L 118.467609 288.212507 
L 116.933159 287.844769 
L 114.900526 288.283769 
L 114.900526 288.283769 
L 114.604087 289.329849 
L 115.817849 289.911338 
L 117.51417 289.779401 
L 117.51417 289.779401 
L 118.246639 288.85067 
L 117.115582 288.203847 
L 115.533126 288.376347 
L 115.533126 288.376347 
L 115.051782 289.28152 
L 116.225366 289.773488 
L 117.744199 289.445158 
L 117.744199 289.445158 
L 117.720004 288.585511 
L 116.499065 288.304006 
L 115.105697 288.902964 
L 115.105697 288.902964 
L 115.782174 289.653947 
L 117.133059 289.646076 
L 117.133059 289.646076 
L 117.8758 288.821525 
L 116.724123 288.300804 
L 115.298818 288.691965 
L 115.298818 288.691965 
L 115.509836 289.502455 
L 116.753373 289.675757 
L 117.948429 288.909786 
L 116.764393 288.250292 
L 115.309865 288.607981 
L 115.309865 288.607981 
L 115.38293 289.454587 
L 116.611769 289.699727 
L 117.955041 289.045196 
L 116.963911 288.255432 
L 115.492315 288.47569 
L 115.492315 288.47569 
L 115.242434 289.357069 
L 116.432599 289.726778 
L 117.867876 289.244067 
L 117.867876 289.244067 
L 117.414313 288.440008 
L 116.110946 288.355987 
L 115.092041 289.247504 
L 116.372033 289.785662 
L 117.860691 289.364675 
L 117.860691 289.364675 
L 117.62011 288.517924 
L 116.35464 288.307363 
L 115.061239 289.025288 
L 116.081432 289.779461 
L 117.552858 289.564634 
L 117.552858 289.564634 
L 117.836651 288.689551 
L 116.640315 288.306115 
L 115.200339 288.785796 
L 115.200339 288.785796 
L 115.644452 289.571847 
L 116.944332 289.657885 
L 117.916307 288.742733 
L 116.60559 288.25812 
L 115.147916 288.760652 
L 115.147916 288.760652 
L 115.559532 289.566224 
L 116.857933 289.693232 
L 117.989909 288.842912 
L 116.746606 288.235323 
L 115.25666 288.621323 
L 115.25666 288.621323 
L 115.370017 289.473095 
L 116.614798 289.710729 
L 117.976774 289.048542 
L 116.984197 288.248187 
L 115.504317 288.45976 
L 115.504317 288.45976 
L 115.21389 289.345066 
L 116.400372 289.734229 
L 117.853924 289.2782 
L 117.853924 289.2782 
L 117.461949 288.462186 
L 116.165355 288.346907 
L 115.076949 289.205935 
L 116.334131 289.784489 
L 117.816188 289.395823 
L 117.816188 289.395823 
L 117.657631 288.544784 
L 116.409204 288.305126 
L 115.07781 288.975652 
L 116.022425 289.77566 
L 117.476251 289.601439 
L 117.476251 289.601439 
L 117.867145 288.720978 
L 116.686386 288.299624 
L 115.23568 288.739272 
L 115.23568 288.739272 
L 115.578206 289.537103 
L 116.849196 289.666781 
L 117.934714 288.824951 
L 116.685317 288.25482 
L 115.226462 288.682125 
L 115.226462 288.682125 
L 115.444904 289.510206 
L 116.695824 289.705166 
L 118.002063 288.976756 
L 116.890228 288.23598 
L 115.401902 288.509127 
L 115.401902 288.509127 
L 115.257012 289.388853 
L 116.465816 289.730041 
L 117.901886 289.212893 
L 117.901886 289.212893 
L 117.388062 288.414188 
L 116.072722 288.354411 
L 115.088444 289.27271 
L 116.385573 289.79127 
L 117.885338 289.355593 
L 117.885338 289.355593 
L 117.620545 288.506418 
L 116.345242 288.301482 
L 115.049338 289.029272 
L 116.078138 289.783096 
L 117.555331 289.568751 
L 117.555331 289.568751 
L 117.844942 288.691566 
L 116.649219 288.303448 
L 115.204248 288.776572 
L 115.204248 288.776572 
L 115.629737 289.565591 
L 116.924704 289.660828 
L 117.922377 288.760365 
L 116.624217 288.256682 
L 115.164639 288.741564 
L 115.164639 288.741564 
L 115.535203 289.5513 
L 116.820331 289.694987 
L 117.991575 288.874207 
L 116.772554 288.235356 
L 115.286931 288.598013 
L 115.286931 288.598013 
L 115.355391 289.454205 
L 116.588311 289.710129 
L 117.959229 289.074057 
L 117.015912 288.255261 
L 115.544567 288.445517 
L 115.544567 288.445517 
L 115.194473 289.327149 
L 116.376661 289.737499 
L 117.837313 289.302932 
L 117.837313 289.302932 
L 117.493185 288.480433 
L 116.206639 288.342571 
L 115.07034 289.176402 
L 116.290155 289.78299 
L 117.774827 289.426141 
L 117.774827 289.426141 
L 117.697718 288.569384 
L 116.464716 288.30334 
L 115.09322 288.929799 
L 115.09322 288.929799 
L 115.813854 289.673506 
L 117.174026 289.644006 
L 117.174026 289.644006 
L 117.877314 288.813574 
L 116.725513 288.300991 
L 115.297068 288.692819 
L 115.297068 288.692819 
L 115.510834 289.50332 
L 116.755134 289.67592 
L 117.948808 288.908643 
L 116.763834 288.250197 
L 115.308912 288.608498 
L 115.308912 288.608498 
L 115.383076 289.455073 
L 116.612293 289.699807 
L 117.955527 289.044706 
L 116.963403 288.255231 
L 115.491588 288.475869 
L 115.491588 288.475869 
L 115.242374 289.357239 
L 116.432636 289.726844 
L 117.868037 289.244057 
L 117.868037 289.244057 
L 117.414405 288.439969 
L 116.110995 288.35593 
L 115.091937 289.247442 
L 116.371918 289.785689 
L 117.86061 289.364784 
L 117.86061 289.364784 
L 117.620251 288.518016 
L 116.354853 288.307349 
L 115.061292 289.025092 
L 116.081195 289.779446 
L 117.552559 289.564784 
L 117.552559 289.564784 
L 117.836783 288.68969 
L 116.640521 288.306089 
L 115.200495 288.785587 
L 115.200495 288.785587 
L 115.644166 289.571701 
L 116.943925 289.657928 
L 117.916379 288.743058 
L 116.605911 288.258111 
L 115.148226 288.760326 
L 115.148226 288.760326 
L 115.559158 289.565967 
L 116.857334 289.693243 
L 117.989906 288.843393 
L 116.746979 288.235338 
L 115.257117 288.620989 
L 115.257117 288.620989 
L 115.369819 289.472825 
L 116.614534 289.710642 
L 117.97653 289.048678 
L 116.984243 288.248269 
L 115.50446 288.459779 
L 115.50446 288.459779 
L 115.213994 289.345055 
L 116.40047 289.734189 
L 117.85393 289.278092 
L 117.85393 289.278092 
L 117.46177 288.462124 
L 116.165161 288.346952 
L 115.077024 289.206089 
L 116.334288 289.784485 
L 117.816358 289.395687 
L 117.816358 289.395687 
L 117.657443 288.544679 
L 116.408956 288.305141 
L 115.077754 288.975862 
L 116.022686 289.775663 
L 117.476579 289.601271 
L 117.476579 289.601271 
L 117.866904 288.720785 
L 116.686094 288.29969 
L 115.235477 288.739581 
L 115.235477 288.739581 
L 115.578757 289.537276 
L 116.849862 289.666639 
L 117.934436 288.824289 
L 116.68456 288.254904 
L 115.225784 288.682859 
L 115.225784 288.682859 
L 115.446154 289.510701 
L 116.697504 289.70501 
L 118.002472 288.975222 
L 116.888236 288.23572 
L 115.399877 288.51019 
L 115.399877 288.51019 
L 115.257946 289.389786 
L 116.467241 289.729946 
L 117.902888 289.211424 
L 117.902888 289.211424 
L 117.386611 288.412927 
L 116.070671 288.354414 
L 115.088422 289.274103 
L 116.386447 289.79152 
L 117.886736 289.354948 
L 117.886736 289.354948 
L 117.620333 288.505684 
L 116.344419 288.30121 
L 115.048655 289.029799 
L 116.078365 289.783307 
L 117.555952 289.568711 
L 117.555952 289.568711 
L 117.845144 288.69144 
L 116.649328 288.303357 
L 115.204187 288.776449 
L 115.204187 288.776449 
L 115.629465 289.565532 
L 116.924392 289.660917 
L 117.92257 288.76069 
L 116.624637 288.256628 
L 115.16497 288.74114 
L 115.16497 288.74114 
L 115.534617 289.550974 
L 116.819452 289.695048 
L 117.991647 288.874961 
L 116.773208 288.235339 
L 115.287671 288.597426 
L 115.287671 288.597426 
L 115.355014 289.453721 
L 116.587586 289.710135 
L 117.958778 289.074801 
L 117.016896 288.255431 
L 115.54578 288.445047 
L 115.54578 288.445047 
L 115.193765 289.326567 
L 116.375803 289.737634 
L 117.836751 289.303827 
L 117.836751 289.303827 
L 117.494351 288.481122 
L 116.208213 288.342414 
L 115.070107 289.175284 
L 116.288404 289.78292 
L 117.773173 289.427312 
L 117.773173 289.427312 
L 117.699255 288.570378 
L 116.466992 288.303321 
L 115.093936 288.927978 
L 115.093936 288.927978 
L 115.81163 289.672208 
L 117.171251 289.644192 
L 117.171251 289.644192 
L 117.87728 288.814134 
L 116.725472 288.300955 
L 115.297208 288.692703 
L 115.297208 288.692703 
L 115.510647 289.503228 
L 116.754867 289.675934 
L 117.948828 288.908847 
L 116.764007 288.250183 
L 115.309104 288.608335 
L 115.309104 288.608335 
L 115.382965 289.454944 
L 116.612094 289.699814 
L 117.955411 289.04491 
L 116.963673 288.255285 
L 115.491915 288.475743 
L 115.491915 288.475743 
L 115.242316 289.357141 
L 116.432526 289.726839 
L 117.867934 289.244161 
L 117.867934 289.244161 
L 117.414506 288.440048 
L 116.111128 288.355927 
L 115.091934 289.24735 
L 116.371857 289.785675 
L 117.860517 289.364829 
L 117.860517 289.364829 
L 117.62027 288.518068 
L 116.354914 288.307367 
L 115.061339 289.025052 
L 116.081173 289.779431 
L 117.552509 289.564792 
L 117.552509 289.564792 
L 117.836773 288.689702 
L 116.640521 288.306094 
L 115.200504 288.785589 
L 115.644175 289.571699 
L 116.943932 289.657923 
L 117.916368 288.743048 
L 116.605895 288.258115 
L 115.148215 288.760344 
L 115.148215 288.760344 
L 115.559183 289.56598 
L 116.85737 289.69324 
L 117.989901 288.843362 
L 116.74695 288.235339 
L 115.257086 288.621016 
L 115.257086 288.621016 
L 115.369838 289.472846 
L 116.614557 289.710647 
L 117.976548 289.048664 
L 116.984232 288.248263 
L 115.504441 288.459782 
L 115.504441 288.459782 
L 115.213993 289.34506 
L 116.400471 289.73419 
L 117.853934 289.278092 
L 117.853934 289.278092 
L 117.461773 288.462123 
L 116.165163 288.34695 
L 115.077022 289.206088 
L 116.334285 289.784486 
L 117.816356 289.39569 
L 117.816356 289.39569 
L 117.657448 288.544681 
L 116.408962 288.30514 
L 115.077754 288.975857 
L 116.022678 289.775664 
L 117.47657 289.601276 
L 117.47657 289.601276 
L 117.866912 288.720791 
L 116.686103 288.299688 
L 115.235483 288.739571 
L 115.235483 288.739571 
L 115.57874 289.537271 
L 116.849842 289.666643 
L 117.934444 288.824309 
L 116.684582 288.254901 
L 115.225804 288.682837 
L 115.225804 288.682837 
L 115.446117 289.510686 
L 116.697454 289.705014 
L 118.00246 288.975268 
L 116.888296 288.235728 
L 115.399938 288.510158 
L 115.399938 288.510158 
L 115.257918 289.389758 
L 116.467198 289.729949 
L 117.902858 289.211468 
L 117.902858 289.211468 
L 117.386655 288.412965 
L 116.070732 288.354414 
L 115.088422 289.274062 
L 116.386421 289.791513 
L 117.886694 289.354967 
L 117.886694 289.354967 
L 117.620339 288.505706 
L 116.344444 288.301218 
L 115.048676 289.029783 
L 116.078358 289.783301 
L 117.555933 289.568713 
L 117.555933 289.568713 
L 117.845138 288.691444 
L 116.649325 288.30336 
L 115.204189 288.776453 
L 115.204189 288.776453 
L 115.629473 289.565533 
L 116.924401 289.660914 
L 117.922564 288.760681 
L 116.624624 288.256629 
L 115.164961 288.741153 
L 115.164961 288.741153 
L 115.534634 289.550984 
L 116.819477 289.695046 
L 117.991645 288.874939 
L 116.773189 288.23534 
L 115.287649 288.597443 
L 115.287649 288.597443 
L 115.355025 289.453735 
L 116.587608 289.710135 
L 117.958791 289.074779 
L 117.016865 288.255426 
L 115.545744 288.445062 
L 115.545744 288.445062 
L 115.193788 289.326585 
L 116.375831 289.737629 
L 117.836769 289.303798 
L 117.836769 289.303798 
L 117.494313 288.4811 
L 116.208163 288.342419 
L 115.070115 289.17532 
L 116.288461 289.782922 
L 117.773227 289.427273 
L 117.773227 289.427273 
L 117.699205 288.570346 
L 116.466917 288.303321 
L 115.093913 288.928037 
L 115.093913 288.928037 
L 115.811703 289.672251 
L 117.171342 289.644186 
L 117.171342 289.644186 
L 117.877281 288.814116 
L 116.725473 288.300957 
L 115.297204 288.692707 
L 115.297204 288.692707 
L 115.510654 289.503231 
L 116.754877 289.675933 
L 117.948827 288.90884 
L 116.764001 288.250184 
L 115.309097 288.608341 
L 115.309097 288.608341 
L 115.382969 289.454948 
L 116.612101 289.699813 
L 117.955415 289.044903 
L 116.963664 288.255283 
L 115.491904 288.475747 
L 115.491904 288.475747 
L 115.242318 289.357144 
L 116.43253 289.726839 
L 117.867937 289.244158 
L 117.867937 289.244158 
L 117.414502 288.440045 
L 116.111123 288.355927 
L 115.091934 289.247353 
L 116.371859 289.785675 
L 117.860521 289.364827 
L 117.860521 289.364827 
L 117.620269 288.518066 
L 116.354912 288.307367 
L 115.061337 289.025053 
L 116.081174 289.779432 
L 117.55251 289.564791 
L 117.55251 289.564791 
L 117.836774 288.689702 
L 116.640521 288.306094 
L 115.200504 288.785589 
L 115.200504 288.785589 
L 115.644175 289.5717 
L 116.943932 289.657923 
L 117.916369 288.743048 
L 116.605896 288.258115 
L 115.148215 288.760343 
L 115.148215 288.760343 
L 115.559182 289.565979 
L 116.857369 289.69324 
L 117.989901 288.843363 
L 116.746951 288.235339 
L 115.257087 288.621015 
L 115.257087 288.621015 
L 115.369837 289.472845 
L 116.614557 289.710647 
L 117.976547 289.048664 
L 116.984233 288.248263 
L 115.504442 288.459781 
L 115.504442 288.459781 
L 115.213993 289.34506 
L 116.40047 289.73419 
L 117.853934 289.278092 
L 117.853934 289.278092 
L 117.461772 288.462123 
L 116.165163 288.34695 
L 115.077022 289.206088 
L 116.334285 289.784486 
L 117.816356 289.39569 
L 117.816356 289.39569 
L 117.657448 288.544681 
L 116.408962 288.30514 
L 115.077754 288.975857 
L 116.022679 289.775664 
L 117.47657 289.601276 
L 117.47657 289.601276 
L 117.866911 288.720791 
L 116.686102 288.299688 
L 115.235482 288.739572 
L 115.235482 288.739572 
L 115.578741 289.537271 
L 116.849843 289.666643 
L 117.934444 288.824308 
L 116.684582 288.254901 
L 115.225804 288.682838 
L 115.225804 288.682838 
L 115.446118 289.510686 
L 116.697455 289.705014 
L 118.00246 288.975267 
L 116.888294 288.235728 
L 115.399936 288.510159 
L 115.399936 288.510159 
L 115.257918 289.389759 
L 116.4672 289.729948 
L 117.902859 289.211467 
L 117.902859 289.211467 
L 117.386654 288.412964 
L 116.070731 288.354414 
L 115.088422 289.274063 
L 116.386422 289.791513 
L 117.886696 289.354967 
L 117.886696 289.354967 
L 117.620339 288.505705 
L 116.344443 288.301218 
L 115.048675 289.029784 
L 116.078358 289.783301 
L 117.555934 289.568713 
L 117.555934 289.568713 
L 117.845138 288.691444 
L 116.649325 288.30336 
L 115.204189 288.776452 
L 115.204189 288.776452 
L 115.629473 289.565533 
L 115.629473 289.565533 
" clip-path="url(#pf10e1d3833)" style="fill: none; stroke: #1f77b4; stroke-width: 1.5"/>
    <path d="M 190.482515 293.452292 
L 190.482515 293.452292 
L 189.537617 290.054295 
L 189.537617 290.054295 
L 186.59649 285.712182 
L 186.59649 285.712182 
L 180.744828 280.055172 
L 180.744828 280.055172 
L 172.242283 273.874044 
L 162.848826 268.475557 
L 152.68945 263.881995 
L 141.815723 260.333711 
L 141.815723 260.333711 
" clip-path="url(#pf10e1d3833)" style="fill: none; stroke: #1f77b4; stroke-width: 1.5"/>
    <path d="M 377.776552 234.173793 
L 368.44583 228.665548 
L 359.073353 223.196831 
L 349.650504 217.776423 
L 340.168113 212.414025 
L 330.616218 207.120622 
L 320.983833 201.908916 
L 311.258704 196.793851 
" clip-path="url(#pf10e1d3833)" style="fill: none; stroke: #1f77b4; stroke-width: 1.5"/>
    <path d="M 377.776552 160.763586 
L 367.697961 156.043895 
L 357.504416 151.46357 
L 347.180977 147.048067 
L 336.71175 142.827944 
" clip-path="url(#pf10e1d3833)" style="fill: none; stroke: #1f77b4; stroke-width: 1.5"/>
    <path d="M 365.462069 252.526345 
L 356.284273 246.877234 
L 347.065823 241.26502 
L 337.798434 235.697766 
L 328.473472 230.184188 
L 319.08165 224.734035 
L 309.612752 219.358507 
L 300.055359 214.070743 
L 290.396557 208.886427 
L 280.621647 203.824569 
L 270.713842 198.908532 
L 260.654023 194.167408 
L 250.420609 189.637877 
L 239.989743 185.366723 
L 229.336149 181.414188 
L 218.435311 177.858376 
" clip-path="url(#pf10e1d3833)" style="fill: none; stroke: #1f77b4; stroke-width: 1.5"/>
    <path d="M 247.073538 236.833629 
L 237.441739 231.622176 
L 227.625814 226.605552 
L 217.601375 221.824083 
L 207.339232 217.332564 
L 196.806025 213.206378 
L 185.966928 209.550667 
L 174.793465 206.513686 
L 163.593472 204.348064 
L 153.215356 203.270692 
L 143.454274 203.232258 
L 134.111626 204.258996 
L 125.001511 206.479777 
L 115.96887 210.163929 
L 106.857931 215.821241 
L 106.857931 215.821241 
" clip-path="url(#pf10e1d3833)" style="fill: none; stroke: #1f77b4; stroke-width: 1.5"/>
    <path d="M 328.518621 261.702621 
L 319.499146 255.913765 
L 310.403591 250.191414 
L 301.226298 244.542031 
L 291.959711 238.974226 
L 282.594371 233.499017 
L 273.118759 228.130305 
L 263.519049 222.885604 
L 253.778792 217.787069 
L 243.878555 212.862983 
L 233.795616 208.149839 
L 223.503846 203.695356 
L 212.974188 199.562764 
L 202.176501 195.836937 
L 191.084475 192.632708 
L 179.686821 190.105175 
L 168.010112 188.45873 
L 156.158238 187.944033 
L 145.032015 188.722218 
" clip-path="url(#pf10e1d3833)" style="fill: none; stroke: #1f77b4; stroke-width: 1.5"/>
    <path d="M 346.620107 264.049658 
L 337.598453 258.262619 
L 328.518621 252.526345 
L 319.374597 246.847001 
L 310.159242 241.23208 
" clip-path="url(#pf10e1d3833)" style="fill: none; stroke: #1f77b4; stroke-width: 1.5"/>
    <path d="M 135.786497 106.612603 
L 131.486897 114.882207 
L 126.785617 123.030268 
L 121.830779 131.095316 
L 116.75867 139.120157 
" clip-path="url(#pf10e1d3833)" style="fill: none; stroke: #1f77b4; stroke-width: 1.5"/>
    <path d="M 205.506452 205.798329 
L 194.69483 202.095881 
L 183.572004 198.953319 
L 172.128989 196.546421 
L 161.185086 195.165212 
L 150.906195 194.837734 
L 141.097276 195.567377 
L 131.486897 197.46869 
L 131.486897 197.46869 
L 131.486897 197.46869 
L 123.224973 200.237097 
" clip-path="url(#pf10e1d3833)" style="fill: none; stroke: #1f77b4; stroke-width: 1.5"/>
    <path d="M 155.12803 246.00876 
L 143.801379 243.350069 
L 143.801379 243.350069 
L 134.369734 242.23165 
L 124.667665 242.399795 
L 116.459873 243.852248 
" clip-path="url(#pf10e1d3833)" style="fill: none; stroke: #1f77b4; stroke-width: 1.5"/>
    <path d="M 279.26069 243.350069 
L 269.919576 237.852047 
L 260.451657 232.475952 
L 250.842401 227.241161 
L 241.073938 222.172954 
L 231.124718 217.304409 
L 220.969239 212.679211 
" clip-path="url(#pf10e1d3833)" style="fill: none; stroke: #1f77b4; stroke-width: 1.5"/>
    <path d="M 303.889655 197.46869 
L 294.030453 192.498423 
L 284.041879 187.673981 
L 273.905541 183.024207 
L 263.60101 178.585055 
L 253.106157 174.401731 
L 242.398153 170.531448 
" clip-path="url(#pf10e1d3833)" style="fill: none; stroke: #1f77b4; stroke-width: 1.5"/>
   </g>
   <g id="patch_3">
    <path d="M 131.422421 307.301608 
Q 132.396318 307.302809 131.693166 307.301942 
" clip-path="url(#pf10e1d3833)" style="fill: none; stroke: #1f77b4; stroke-width: 1.5; stroke-linecap: round"/>
    <path d="M 127.695636 305.297009 
L 131.693166 307.301942 
L 127.690702 309.297006 
z
" clip-path="url(#pf10e1d3833)" style="fill: #1f77b4; stroke: #1f77b4; stroke-width: 1.5; stroke-linecap: round"/>
   </g>
   <g id="patch_4">
    <path d="M 220.926096 307.295502 
Q 221.899965 307.299384 221.196796 307.296581 
" clip-path="url(#pf10e1d3833)" style="fill: none; stroke: #1f77b4; stroke-width: 1.5; stroke-linecap: round"/>
    <path d="M 217.2048 305.280652 
L 221.196796 307.296581 
L 217.188855 309.28062 
z
" clip-path="url(#pf10e1d3833)" style="fill: #1f77b4; stroke: #1f77b4; stroke-width: 1.5; stroke-linecap: round"/>
   </g>
   <g id="patch_5">
    <path d="M 282.506202 307.272346 
Q 283.480029 307.276175 282.776818 307.27341 
" clip-path="url(#pf10e1d3833)" style="fill: none; stroke: #1f77b4; stroke-width: 1.5; stroke-linecap: round"/>
    <path d="M 278.784714 305.257694 
L 282.776818 307.27341 
L 278.768983 309.257663 
z
" clip-path="url(#pf10e1d3833)" style="fill: #1f77b4; stroke: #1f77b4; stroke-width: 1.5; stroke-linecap: round"/>
   </g>
   <g id="patch_6">
    <path d="M 337.862745 307.362373 
Q 338.784585 307.366287 338.029389 307.36308 
" clip-path="url(#pf10e1d3833)" style="fill: none; stroke: #1f77b4; stroke-width: 1.5; stroke-linecap: round"/>
    <path d="M 334.037916 305.346116 
L 338.029389 307.36308 
L 334.020934 309.34608 
z
" clip-path="url(#pf10e1d3833)" style="fill: #1f77b4; stroke: #1f77b4; stroke-width: 1.5; stroke-linecap: round"/>
   </g>
   <g id="patch_7">
    <path d="M 213.603906 186.277429 
Q 212.762428 186.022532 213.525979 186.253824 
" clip-path="url(#pf10e1d3833)" style="fill: none; stroke: #1f77b4; stroke-width: 1.5; stroke-linecap: round"/>
    <path d="M 216.774386 189.32756 
L 213.525979 186.253824 
L 217.934013 185.499341 
z
" clip-path="url(#pf10e1d3833)" style="fill: #1f77b4; stroke: #1f77b4; stroke-width: 1.5; stroke-linecap: round"/>
   </g>
   <g id="patch_8">
    <path d="M 394.850803 276.706293 
Q 394.274774 276.340581 395.114557 276.873746 
" clip-path="url(#pf10e1d3833)" style="fill: none; stroke: #1f77b4; stroke-width: 1.5; stroke-linecap: round"/>
    <path d="M 397.419492 280.706144 
L 395.114557 276.873746 
L 399.563436 277.329237 
z
" clip-path="url(#pf10e1d3833)" style="fill: #1f77b4; stroke: #1f77b4; stroke-width: 1.5; stroke-linecap: round"/>
   </g>
   <g id="patch_9">
    <path d="M 403.874438 273.322908 
Q 403.287519 272.95701 404.123745 273.478331 
" clip-path="url(#pf10e1d3833)" style="fill: none; stroke: #1f77b4; stroke-width: 1.5; stroke-linecap: round"/>
    <path d="M 406.460074 277.291672 
L 404.123745 273.478331 
L 408.576215 273.897273 
z
" clip-path="url(#pf10e1d3833)" style="fill: #1f77b4; stroke: #1f77b4; stroke-width: 1.5; stroke-linecap: round"/>
   </g>
   <g id="patch_10">
    <path d="M 281.233321 194.00612 
Q 280.532801 193.672265 281.346194 194.059913 
" clip-path="url(#pf10e1d3833)" style="fill: none; stroke: #1f77b4; stroke-width: 1.5; stroke-linecap: round"/>
    <path d="M 284.096645 197.586244 
L 281.346194 194.059913 
L 285.81753 193.97535 
z
" clip-path="url(#pf10e1d3833)" style="fill: #1f77b4; stroke: #1f77b4; stroke-width: 1.5; stroke-linecap: round"/>
   </g>
   <g id="patch_11">
    <path d="M 403.784939 255.058049 
Q 403.187977 254.695542 404.024466 255.203503 
" clip-path="url(#pf10e1d3833)" style="fill: none; stroke: #1f77b4; stroke-width: 1.5; stroke-linecap: round"/>
    <path d="M 406.405352 258.989185 
L 404.024466 255.203503 
L 408.481543 255.570204 
z
" clip-path="url(#pf10e1d3833)" style="fill: #1f77b4; stroke: #1f77b4; stroke-width: 1.5; stroke-linecap: round"/>
   </g>
   <g id="patch_12">
    <path d="M 287.956835 174.645359 
Q 287.217536 174.326795 288.018389 174.671882 
" clip-path="url(#pf10e1d3833)" style="fill: none; stroke: #1f77b4; stroke-width: 1.5; stroke-linecap: round"/>
    <path d="M 290.900413 178.091522 
L 288.018389 174.671882 
L 292.483315 174.418046 
z
" clip-path="url(#pf10e1d3833)" style="fill: #1f77b4; stroke: #1f77b4; stroke-width: 1.5; stroke-linecap: round"/>
   </g>
   <g id="patch_13">
    <path d="M 306.240311 167.685631 
Q 305.501817 167.366016 306.302413 167.712508 
" clip-path="url(#pf10e1d3833)" style="fill: none; stroke: #1f77b4; stroke-width: 1.5; stroke-linecap: round"/>
    <path d="M 309.178978 171.136741 
L 306.302413 167.712508 
L 310.767738 167.465795 
z
" clip-path="url(#pf10e1d3833)" style="fill: #1f77b4; stroke: #1f77b4; stroke-width: 1.5; stroke-linecap: round"/>
   </g>
   <g id="patch_14">
    <path d="M 314.431413 156.134187 
Q 313.667497 155.825274 314.458323 156.145069 
" clip-path="url(#pf10e1d3833)" style="fill: none; stroke: #1f77b4; stroke-width: 1.5; stroke-linecap: round"/>
    <path d="M 317.416823 159.498765 
L 314.458323 156.145069 
L 318.91638 155.790487 
z
" clip-path="url(#pf10e1d3833)" style="fill: #1f77b4; stroke: #1f77b4; stroke-width: 1.5; stroke-linecap: round"/>
   </g>
   <g id="patch_15">
    <path d="M 322.656909 144.639713 
Q 321.869512 144.348105 322.654781 144.638925 
" clip-path="url(#pf10e1d3833)" style="fill: none; stroke: #1f77b4; stroke-width: 1.5; stroke-linecap: round"/>
    <path d="M 325.711222 147.90361 
L 322.654781 144.638925 
L 327.100393 144.152583 
z
" clip-path="url(#pf10e1d3833)" style="fill: #1f77b4; stroke: #1f77b4; stroke-width: 1.5; stroke-linecap: round"/>
   </g>
   <g id="patch_16">
    <path d="M 330.916934 133.266393 
Q 330.094998 132.996235 330.866261 133.249737 
" clip-path="url(#pf10e1d3833)" style="fill: none; stroke: #1f77b4; stroke-width: 1.5; stroke-linecap: round"/>
    <path d="M 334.041759 136.398739 
L 330.866261 133.249737 
L 335.290761 132.59874 
z
" clip-path="url(#pf10e1d3833)" style="fill: #1f77b4; stroke: #1f77b4; stroke-width: 1.5; stroke-linecap: round"/>
   </g>
   <g id="patch_17">
    <path d="M 361.026971 129.143187 
Q 360.216786 128.862873 360.991473 129.130905 
" clip-path="url(#pf10e1d3833)" style="fill: none; stroke: #1f77b4; stroke-width: 1.5; stroke-linecap: round"/>
    <path d="M 364.117673 132.328853 
L 360.991473 129.130905 
L 365.425551 128.548713 
z
" clip-path="url(#pf10e1d3833)" style="fill: #1f77b4; stroke: #1f77b4; stroke-width: 1.5; stroke-linecap: round"/>
   </g>
   <g id="patch_18">
    <path d="M 336.161399 108.891288 
Q 335.232342 108.735092 335.957126 108.856945 
" clip-path="url(#pf10e1d3833)" style="fill: none; stroke: #1f77b4; stroke-width: 1.5; stroke-linecap: round"/>
    <path d="M 339.570172 111.492452 
L 335.957126 108.856945 
L 340.233359 107.547812 
z
" clip-path="url(#pf10e1d3833)" style="fill: #1f77b4; stroke: #1f77b4; stroke-width: 1.5; stroke-linecap: round"/>
   </g>
   <g id="patch_19">
    <path d="M 356.310581 100.828521 
Q 355.361542 100.707112 356.075997 100.798511 
" clip-path="url(#pf10e1d3833)" style="fill: none; stroke: #1f77b4; stroke-width: 1.5; stroke-linecap: round"/>
    <path d="M 359.789874 103.28992 
L 356.075997 100.798511 
L 360.29745 99.322255 
z
" clip-path="url(#pf10e1d3833)" style="fill: #1f77b4; stroke: #1f77b4; stroke-width: 1.5; stroke-linecap: round"/>
   </g>
   <g id="patch_20">
    <path d="M 401.501408 102.416799 
Q 400.60081 102.220699 401.338867 102.381406 
" clip-path="url(#pf10e1d3833)" style="fill: none; stroke: #1f77b4; stroke-width: 1.5; stroke-linecap: round"/>
    <path d="M 404.821769 105.18665 
L 401.338867 102.381406 
L 405.672803 101.278231 
z
" clip-path="url(#pf10e1d3833)" style="fill: #1f77b4; stroke: #1f77b4; stroke-width: 1.5; stroke-linecap: round"/>
   </g>
   <g id="patch_21">
    <path d="M 365.17919 86.609175 
Q 364.207624 86.657688 364.911022 86.622566 
" clip-path="url(#pf10e1d3833)" style="fill: none; stroke: #1f77b4; stroke-width: 1.5; stroke-linecap: round"/>
    <path d="M 369.005786 88.420594 
L 364.911022 86.622566 
L 368.806303 84.425571 
z
" clip-path="url(#pf10e1d3833)" style="fill: #1f77b4; stroke: #1f77b4; stroke-width: 1.5; stroke-linecap: round"/>
   </g>
   <g id="patch_22">
    <path d="M 400.907612 79.41483 
Q 399.946806 79.506187 400.655521 79.4388 
" clip-path="url(#pf10e1d3833)" style="fill: none; stroke: #1f77b4; stroke-width: 1.5; stroke-linecap: round"/>
    <path d="M 404.826875 81.051191 
L 400.655521 79.4388 
L 404.448247 77.069152 
z
" clip-path="url(#pf10e1d3833)" style="fill: #1f77b4; stroke: #1f77b4; stroke-width: 1.5; stroke-linecap: round"/>
   </g>
   <g id="patch_23">
    <path d="M 406.560318 61.402821 
Q 406.102199 61.763338 406.961983 61.086729 
" clip-path="url(#pf10e1d3833)" style="fill: none; stroke: #1f77b4; stroke-width: 1.5; stroke-linecap: round"/>
    <path d="M 411.342211 60.184729 
L 406.961983 61.086729 
L 408.868521 57.041347 
z
" clip-path="url(#pf10e1d3833)" style="fill: #1f77b4; stroke: #1f77b4; stroke-width: 1.5; stroke-linecap: round"/>
   </g>
   <g id="patch_24">
    <path d="M 372.463633 68.936613 
Q 371.662312 69.36176 372.342445 69.00091 
" clip-path="url(#pf10e1d3833)" style="fill: none; stroke: #1f77b4; stroke-width: 1.5; stroke-linecap: round"/>
    <path d="M 376.813277 68.892931 
L 372.342445 69.00091 
L 374.938562 65.359457 
z
" clip-path="url(#pf10e1d3833)" style="fill: #1f77b4; stroke: #1f77b4; stroke-width: 1.5; stroke-linecap: round"/>
   </g>
   <g id="patch_25">
    <path d="M 362.457979 57.044779 
Q 362.145045 57.584124 362.673746 56.672901 
" clip-path="url(#pf10e1d3833)" style="fill: none; stroke: #1f77b4; stroke-width: 1.5; stroke-linecap: round"/>
    <path d="M 366.411069 54.216804 
L 362.673746 56.672901 
L 362.951262 52.209384 
z
" clip-path="url(#pf10e1d3833)" style="fill: #1f77b4; stroke: #1f77b4; stroke-width: 1.5; stroke-linecap: round"/>
   </g>
   <g id="patch_26">
    <path d="M 334.913665 63.794762 
Q 334.503477 64.284946 335.169542 63.488982 
" clip-path="url(#pf10e1d3833)" style="fill: none; stroke: #1f77b4; stroke-width: 1.5; stroke-linecap: round"/>
    <path d="M 339.270378 61.704844 
L 335.169542 63.488982 
L 336.202733 59.137831 
z
" clip-path="url(#pf10e1d3833)" style="fill: #1f77b4; stroke: #1f77b4; stroke-width: 1.5; stroke-linecap: round"/>
   </g>
   <g id="patch_27">
    <path d="M 243.537014 100.721588 
Q 242.69722 100.980412 243.460087 100.745296 
" clip-path="url(#pf10e1d3833)" style="fill: none; stroke: #1f77b4; stroke-width: 1.5; stroke-linecap: round"/>
    <path d="M 247.871715 101.478467 
L 243.460087 100.745296 
L 246.693601 97.655897 
z
" clip-path="url(#pf10e1d3833)" style="fill: #1f77b4; stroke: #1f77b4; stroke-width: 1.5; stroke-linecap: round"/>
   </g>
   <g id="patch_28">
    <path d="M 302.00353 60.209168 
Q 301.666505 60.953889 302.020924 60.170733 
" clip-path="url(#pf10e1d3833)" style="fill: none; stroke: #1f77b4; stroke-width: 1.5; stroke-linecap: round"/>
    <path d="M 305.492214 57.351133 
L 302.020924 60.170733 
L 301.848018 55.701941 
z
" clip-path="url(#pf10e1d3833)" style="fill: #1f77b4; stroke: #1f77b4; stroke-width: 1.5; stroke-linecap: round"/>
   </g>
   <g id="patch_29">
    <path d="M 274.915507 67.958412 
Q 274.463639 68.656407 274.92315 67.946607 
" clip-path="url(#pf10e1d3833)" style="fill: none; stroke: #1f77b4; stroke-width: 1.5; stroke-linecap: round"/>
    <path d="M 278.77581 65.675702 
L 274.92315 67.946607 
L 275.418022 63.501936 
z
" clip-path="url(#pf10e1d3833)" style="fill: #1f77b4; stroke: #1f77b4; stroke-width: 1.5; stroke-linecap: round"/>
   </g>
   <g id="patch_30">
    <path d="M 251.370654 68.919093 
Q 250.914842 69.760653 251.257736 69.127571 
" clip-path="url(#pf10e1d3833)" style="fill: none; stroke: #1f77b4; stroke-width: 1.5; stroke-linecap: round"/>
    <path d="M 254.921374 66.562857 
L 251.257736 69.127571 
L 251.404148 64.657832 
z
" clip-path="url(#pf10e1d3833)" style="fill: #1f77b4; stroke: #1f77b4; stroke-width: 1.5; stroke-linecap: round"/>
   </g>
   <g id="patch_31">
    <path d="M 219.200445 84.093249 
Q 219.074975 84.233749 220.066562 83.123376 
" clip-path="url(#pf10e1d3833)" style="fill: none; stroke: #1f77b4; stroke-width: 1.5; stroke-linecap: round"/>
    <path d="M 224.222651 81.472037 
L 220.066562 83.123376 
L 221.239144 78.807701 
z
" clip-path="url(#pf10e1d3833)" style="fill: #1f77b4; stroke: #1f77b4; stroke-width: 1.5; stroke-linecap: round"/>
   </g>
   <g id="patch_32">
    <path d="M 218.60982 52.305785 
Q 218.604461 52.5166 218.64172 51.050906 
" clip-path="url(#pf10e1d3833)" style="fill: none; stroke: #1f77b4; stroke-width: 1.5; stroke-linecap: round"/>
    <path d="M 220.742723 47.103022 
L 218.64172 51.050906 
L 216.744014 47.001373 
z
" clip-path="url(#pf10e1d3833)" style="fill: #1f77b4; stroke: #1f77b4; stroke-width: 1.5; stroke-linecap: round"/>
   </g>
   <g id="patch_33">
    <path d="M 204.218653 69.854318 
Q 204.134873 70.104473 204.583683 68.764392 
" clip-path="url(#pf10e1d3833)" style="fill: none; stroke: #1f77b4; stroke-width: 1.5; stroke-linecap: round"/>
    <path d="M 207.75045 65.60661 
L 204.583683 68.764392 
L 203.957518 64.336309 
z
" clip-path="url(#pf10e1d3833)" style="fill: #1f77b4; stroke: #1f77b4; stroke-width: 1.5; stroke-linecap: round"/>
   </g>
   <g id="patch_34">
    <path d="M 193.791276 61.151512 
Q 193.762353 61.371606 193.951939 59.928946 
" clip-path="url(#pf10e1d3833)" style="fill: none; stroke: #1f77b4; stroke-width: 1.5; stroke-linecap: round"/>
    <path d="M 196.456065 56.223632 
L 193.951939 59.928946 
L 192.490164 55.702456 
z
" clip-path="url(#pf10e1d3833)" style="fill: #1f77b4; stroke: #1f77b4; stroke-width: 1.5; stroke-linecap: round"/>
   </g>
   <g id="patch_35">
    <path d="M 181.735275 52.311653 
Q 181.737538 52.527404 181.722209 51.066197 
" clip-path="url(#pf10e1d3833)" style="fill: none; stroke: #1f77b4; stroke-width: 1.5; stroke-linecap: round"/>
    <path d="M 183.680137 47.045436 
L 181.722209 51.066197 
L 179.680357 47.087398 
z
" clip-path="url(#pf10e1d3833)" style="fill: #1f77b4; stroke: #1f77b4; stroke-width: 1.5; stroke-linecap: round"/>
   </g>
   <g id="patch_36">
    <path d="M 130.683996 134.168008 
Q 130.389422 134.516751 131.177022 133.584322 
" clip-path="url(#pf10e1d3833)" style="fill: none; stroke: #1f77b4; stroke-width: 1.5; stroke-linecap: round"/>
    <path d="M 135.286044 131.81912 
L 131.177022 133.584322 
L 132.230274 129.237983 
z
" clip-path="url(#pf10e1d3833)" style="fill: #1f77b4; stroke: #1f77b4; stroke-width: 1.5; stroke-linecap: round"/>
   </g>
   <g id="patch_37">
    <path d="M 156.322931 70.006091 
Q 156.286332 70.231311 156.518732 68.801195 
" clip-path="url(#pf10e1d3833)" style="fill: none; stroke: #1f77b4; stroke-width: 1.5; stroke-linecap: round"/>
    <path d="M 159.134437 65.173787 
L 156.518732 68.801195 
L 155.186229 64.532186 
z
" clip-path="url(#pf10e1d3833)" style="fill: #1f77b4; stroke: #1f77b4; stroke-width: 1.5; stroke-linecap: round"/>
   </g>
   <g id="patch_38">
    <path d="M 144.774063 61.178476 
Q 144.763408 61.399702 144.833427 59.945818 
" clip-path="url(#pf10e1d3833)" style="fill: none; stroke: #1f77b4; stroke-width: 1.5; stroke-linecap: round"/>
    <path d="M 147.023529 56.046657 
L 144.833427 59.945818 
L 143.02816 55.85424 
z
" clip-path="url(#pf10e1d3833)" style="fill: #1f77b4; stroke: #1f77b4; stroke-width: 1.5; stroke-linecap: round"/>
   </g>
   <g id="patch_39">
    <path d="M 124.224139 104.922154 
Q 124.125317 105.185607 124.615486 103.87884 
" clip-path="url(#pf10e1d3833)" style="fill: none; stroke: #1f77b4; stroke-width: 1.5; stroke-linecap: round"/>
    <path d="M 127.892907 100.83606 
L 124.615486 103.87884 
L 124.147714 99.431235 
z
" clip-path="url(#pf10e1d3833)" style="fill: #1f77b4; stroke: #1f77b4; stroke-width: 1.5; stroke-linecap: round"/>
   </g>
   <g id="patch_40">
    <path d="M 120.037727 61.190417 
Q 120.032617 61.411805 120.066209 59.956589 
" clip-path="url(#pf10e1d3833)" style="fill: none; stroke: #1f77b4; stroke-width: 1.5; stroke-linecap: round"/>
    <path d="M 122.157987 56.00381 
L 120.066209 59.956589 
L 118.159052 55.911499 
z
" clip-path="url(#pf10e1d3833)" style="fill: #1f77b4; stroke: #1f77b4; stroke-width: 1.5; stroke-linecap: round"/>
   </g>
   <g id="patch_41">
    <path d="M 93.698461 140.127941 
Q 93.623172 140.37525 94.036303 139.018207 
" clip-path="url(#pf10e1d3833)" style="fill: none; stroke: #1f77b4; stroke-width: 1.5; stroke-linecap: round"/>
    <path d="M 97.114555 135.77408 
L 94.036303 139.018207 
L 93.287952 134.609129 
z
" clip-path="url(#pf10e1d3833)" style="fill: #1f77b4; stroke: #1f77b4; stroke-width: 1.5; stroke-linecap: round"/>
   </g>
   <g id="patch_42">
    <path d="M 94.63619 78.934687 
Q 94.621079 79.155851 94.720287 77.703865 
" clip-path="url(#pf10e1d3833)" style="fill: none; stroke: #1f77b4; stroke-width: 1.5; stroke-linecap: round"/>
    <path d="M 96.988302 73.849503 
L 94.720287 77.703865 
L 92.997606 73.576835 
z
" clip-path="url(#pf10e1d3833)" style="fill: #1f77b4; stroke: #1f77b4; stroke-width: 1.5; stroke-linecap: round"/>
   </g>
   <g id="patch_43">
    <path d="M 78.815175 123.208686 
Q 78.788645 123.429265 78.96238 121.984793 
" clip-path="url(#pf10e1d3833)" style="fill: none; stroke: #1f77b4; stroke-width: 1.5; stroke-linecap: round"/>
    <path d="M 81.42573 118.252246 
L 78.96238 121.984793 
L 77.454353 117.774585 
z
" clip-path="url(#pf10e1d3833)" style="fill: #1f77b4; stroke: #1f77b4; stroke-width: 1.5; stroke-linecap: round"/>
   </g>
   <g id="patch_44">
    <path d="M 69.832555 87.817967 
Q 69.826445 88.039384 69.866593 86.584387 
" clip-path="url(#pf10e1d3833)" style="fill: none; stroke: #1f77b4; stroke-width: 1.5; stroke-linecap: round"/>
    <path d="M 71.976163 82.641075 
L 69.866593 86.584387 
L 67.977685 82.530744 
z
" clip-path="url(#pf10e1d3833)" style="fill: #1f77b4; stroke: #1f77b4; stroke-width: 1.5; stroke-linecap: round"/>
   </g>
   <g id="patch_45">
    <path d="M 57.821437 186.312571 
Q 57.821991 186.534036 57.818348 185.078454 
" clip-path="url(#pf10e1d3833)" style="fill: none; stroke: #1f77b4; stroke-width: 1.5; stroke-linecap: round"/>
    <path d="M 59.808331 181.073461 
L 57.818348 185.078454 
L 55.808343 181.083472 
z
" clip-path="url(#pf10e1d3833)" style="fill: #1f77b4; stroke: #1f77b4; stroke-width: 1.5; stroke-linecap: round"/>
   </g>
   <g id="patch_46">
    <path d="M 91.960746 269.535132 
Q 91.470162 270.376851 91.824058 269.769655 
" clip-path="url(#pf10e1d3833)" style="fill: none; stroke: #1f77b4; stroke-width: 1.5; stroke-linecap: round"/>
    <path d="M 95.566192 267.320893 
L 91.824058 269.769655 
L 92.110329 265.306691 
z
" clip-path="url(#pf10e1d3833)" style="fill: #1f77b4; stroke: #1f77b4; stroke-width: 1.5; stroke-linecap: round"/>
   </g>
   <g id="patch_47">
    <path d="M 145.368889 270.223097 
Q 144.835646 270.039416 145.888021 270.401917 
" clip-path="url(#pf10e1d3833)" style="fill: none; stroke: #1f77b4; stroke-width: 1.5; stroke-linecap: round"/>
    <path d="M 149.018581 273.595598 
L 145.888021 270.401917 
L 150.321302 269.813678 
z
" clip-path="url(#pf10e1d3833)" style="fill: #1f77b4; stroke: #1f77b4; stroke-width: 1.5; stroke-linecap: round"/>
   </g>
   <g id="patch_48">
    <path d="M 208.787778 272.552949 
Q 208.247881 272.182886 209.091278 272.760978 
" clip-path="url(#pf10e1d3833)" style="fill: none; stroke: #1f77b4; stroke-width: 1.5; stroke-linecap: round"/>
    <path d="M 211.259886 276.672134 
L 209.091278 272.760978 
L 213.521368 273.372785 
z
" clip-path="url(#pf10e1d3833)" style="fill: #1f77b4; stroke: #1f77b4; stroke-width: 1.5; stroke-linecap: round"/>
   </g>
   <g id="patch_49">
    <path d="M 237.415531 287.586387 
Q 237.056255 287.195329 237.831587 288.039248 
" clip-path="url(#pf10e1d3833)" style="fill: none; stroke: #1f77b4; stroke-width: 1.5; stroke-linecap: round"/>
    <path d="M 239.064988 292.337936 
L 237.831587 288.039248 
L 242.010578 289.63174 
z
" clip-path="url(#pf10e1d3833)" style="fill: #1f77b4; stroke: #1f77b4; stroke-width: 1.5; stroke-linecap: round"/>
   </g>
   <g id="patch_50">
    <path d="M 179.77382 243.356247 
Q 179.00794 243.050782 179.799784 243.366603 
" clip-path="url(#pf10e1d3833)" style="fill: none; stroke: #1f77b4; stroke-width: 1.5; stroke-linecap: round"/>
    <path d="M 182.774243 246.706152 
L 179.799784 243.366603 
L 184.256099 242.990765 
z
" clip-path="url(#pf10e1d3833)" style="fill: #1f77b4; stroke: #1f77b4; stroke-width: 1.5; stroke-linecap: round"/>
   </g>
   <g id="patch_51">
    <path d="M 208.541282 244.860361 
Q 207.865591 244.518787 208.686583 244.933814 
" clip-path="url(#pf10e1d3833)" style="fill: none; stroke: #1f77b4; stroke-width: 1.5; stroke-linecap: round"/>
    <path d="M 211.354077 248.523309 
L 208.686583 244.933814 
L 213.158675 244.953515 
z
" clip-path="url(#pf10e1d3833)" style="fill: #1f77b4; stroke: #1f77b4; stroke-width: 1.5; stroke-linecap: round"/>
   </g>
   <g id="patch_52">
    <path d="M 225.750615 241.383071 
Q 225.092737 241.035198 225.917403 241.471265 
" clip-path="url(#pf10e1d3833)" style="fill: none; stroke: #1f77b4; stroke-width: 1.5; stroke-linecap: round"/>
    <path d="M 228.518573 245.109109 
L 225.917403 241.471265 
L 230.388381 241.573035 
z
" clip-path="url(#pf10e1d3833)" style="fill: #1f77b4; stroke: #1f77b4; stroke-width: 1.5; stroke-linecap: round"/>
   </g>
   <g id="patch_53">
    <path d="M 299.426769 273.804584 
Q 298.899929 273.434151 299.744967 274.028316 
" clip-path="url(#pf10e1d3833)" style="fill: none; stroke: #1f77b4; stroke-width: 1.5; stroke-linecap: round"/>
    <path d="M 301.866735 277.965079 
L 299.744967 274.028316 
L 304.167438 274.69296 
z
" clip-path="url(#pf10e1d3833)" style="fill: #1f77b4; stroke: #1f77b4; stroke-width: 1.5; stroke-linecap: round"/>
   </g>
   <g id="patch_54">
    <path d="M 327.22726 277.807996 
Q 326.696891 277.435168 327.538506 278.026788 
" clip-path="url(#pf10e1d3833)" style="fill: none; stroke: #1f77b4; stroke-width: 1.5; stroke-linecap: round"/>
    <path d="M 329.660707 281.963318 
L 327.538506 278.026788 
L 331.96105 278.690945 
z
" clip-path="url(#pf10e1d3833)" style="fill: #1f77b4; stroke: #1f77b4; stroke-width: 1.5; stroke-linecap: round"/>
   </g>
   <g id="patch_55">
    <path d="M 338.914704 278.224078 
Q 338.380876 277.853991 339.225285 278.439395 
" clip-path="url(#pf10e1d3833)" style="fill: none; stroke: #1f77b4; stroke-width: 1.5; stroke-linecap: round"/>
    <path d="M 341.373084 282.362016 
L 339.225285 278.439395 
L 343.652062 279.074729 
z
" clip-path="url(#pf10e1d3833)" style="fill: #1f77b4; stroke: #1f77b4; stroke-width: 1.5; stroke-linecap: round"/>
   </g>
   <g id="patch_56">
    <path d="M 367.896867 290.851635 
Q 367.38305 290.480058 368.228172 291.091224 
" clip-path="url(#pf10e1d3833)" style="fill: none; stroke: #1f77b4; stroke-width: 1.5; stroke-linecap: round"/>
    <path d="M 370.29744 295.055834 
L 368.228172 291.091224 
L 372.64142 291.814575 
z
" clip-path="url(#pf10e1d3833)" style="fill: #1f77b4; stroke: #1f77b4; stroke-width: 1.5; stroke-linecap: round"/>
   </g>
   <g id="patch_57">
    <path d="M 379.895742 291.096715 
Q 379.363224 290.725577 380.206568 291.313345 
" clip-path="url(#pf10e1d3833)" style="fill: none; stroke: #1f77b4; stroke-width: 1.5; stroke-linecap: round"/>
    <path d="M 382.344626 295.241285 
L 380.206568 291.313345 
L 384.631754 291.959662 
z
" clip-path="url(#pf10e1d3833)" style="fill: #1f77b4; stroke: #1f77b4; stroke-width: 1.5; stroke-linecap: round"/>
   </g>
   <g id="patch_58">
    <path d="M 400.749584 297.289316 
Q 400.202251 296.919651 401.044685 297.488626 
" clip-path="url(#pf10e1d3833)" style="fill: none; stroke: #1f77b4; stroke-width: 1.5; stroke-linecap: round"/>
    <path d="M 403.240079 301.384809 
L 401.044685 297.488626 
L 405.478868 298.070021 
z
" clip-path="url(#pf10e1d3833)" style="fill: #1f77b4; stroke: #1f77b4; stroke-width: 1.5; stroke-linecap: round"/>
   </g>
   <g id="patch_59">
    <path d="M 242.183749 52.646447 
Q 242.169691 52.856876 242.267423 51.393983 
" clip-path="url(#pf10e1d3833)" style="fill: none; stroke: #1f77b4; stroke-width: 1.5; stroke-linecap: round"/>
    <path d="M 244.52961 47.536198 
L 242.267423 51.393983 
L 240.538506 47.269563 
z
" clip-path="url(#pf10e1d3833)" style="fill: #1f77b4; stroke: #1f77b4; stroke-width: 1.5; stroke-linecap: round"/>
   </g>
   <g id="patch_60">
    <path d="M 117.92257 288.76069 
Q 117.598087 288.634675 118.836903 289.115778 
" clip-path="url(#pf10e1d3833)" style="fill: none; stroke: #1f77b4; stroke-width: 1.5; stroke-linecap: round"/>
    <path d="M 121.841559 292.428186 
L 118.836903 289.115778 
L 123.289623 288.699499 
z
" clip-path="url(#pf10e1d3833)" style="fill: #1f77b4; stroke: #1f77b4; stroke-width: 1.5; stroke-linecap: round"/>
   </g>
   <g id="patch_61">
    <path d="M 170.506236 272.876325 
Q 169.891837 272.523226 170.731467 273.005767 
" clip-path="url(#pf10e1d3833)" style="fill: none; stroke: #1f77b4; stroke-width: 1.5; stroke-linecap: round"/>
    <path d="M 173.202971 276.732921 
L 170.731467 273.005767 
L 175.196092 273.264856 
z
" clip-path="url(#pf10e1d3833)" style="fill: #1f77b4; stroke: #1f77b4; stroke-width: 1.5; stroke-linecap: round"/>
   </g>
   <g id="patch_62">
    <path d="M 347.911911 216.79323 
Q 347.280016 216.435886 348.107915 216.904072 
" clip-path="url(#pf10e1d3833)" style="fill: none; stroke: #1f77b4; stroke-width: 1.5; stroke-linecap: round"/>
    <path d="M 350.605226 220.613983 
L 348.107915 216.904072 
L 352.57423 217.13217 
z
" clip-path="url(#pf10e1d3833)" style="fill: #1f77b4; stroke: #1f77b4; stroke-width: 1.5; stroke-linecap: round"/>
   </g>
   <g id="patch_63">
    <path d="M 365.873775 155.224223 
Q 365.149907 154.898963 365.955758 155.261061 
" clip-path="url(#pf10e1d3833)" style="fill: none; stroke: #1f77b4; stroke-width: 1.5; stroke-linecap: round"/>
    <path d="M 368.784628 158.7248 
L 365.955758 155.261061 
L 370.424072 155.076208 
z
" clip-path="url(#pf10e1d3833)" style="fill: #1f77b4; stroke: #1f77b4; stroke-width: 1.5; stroke-linecap: round"/>
   </g>
   <g id="patch_64">
    <path d="M 298.293854 213.125263 
Q 297.642226 212.775505 298.46825 213.218869 
" clip-path="url(#pf10e1d3833)" style="fill: none; stroke: #1f77b4; stroke-width: 1.5; stroke-linecap: round"/>
    <path d="M 301.046802 216.872781 
L 298.46825 213.218869 
L 302.93851 213.348374 
z
" clip-path="url(#pf10e1d3833)" style="fill: #1f77b4; stroke: #1f77b4; stroke-width: 1.5; stroke-linecap: round"/>
   </g>
   <g id="patch_65">
    <path d="M 184.038306 209.026462 
Q 183.175578 208.79197 183.931187 208.997347 
" clip-path="url(#pf10e1d3833)" style="fill: none; stroke: #1f77b4; stroke-width: 1.5; stroke-linecap: round"/>
    <path d="M 187.266572 211.976475 
L 183.931187 208.997347 
L 188.315721 208.116516 
z
" clip-path="url(#pf10e1d3833)" style="fill: #1f77b4; stroke: #1f77b4; stroke-width: 1.5; stroke-linecap: round"/>
   </g>
   <g id="patch_66">
    <path d="M 251.987758 216.896262 
Q 251.304421 216.55639 252.12266 216.963358 
" clip-path="url(#pf10e1d3833)" style="fill: none; stroke: #1f77b4; stroke-width: 1.5; stroke-linecap: round"/>
    <path d="M 254.813469 220.535409 
L 252.12266 216.963358 
L 256.594786 216.953941 
z
" clip-path="url(#pf10e1d3833)" style="fill: #1f77b4; stroke: #1f77b4; stroke-width: 1.5; stroke-linecap: round"/>
   </g>
   <g id="patch_67">
    <path d="M 335.907068 257.19407 
Q 335.327069 256.82765 336.164883 257.356947 
" clip-path="url(#pf10e1d3833)" style="fill: none; stroke: #1f77b4; stroke-width: 1.5; stroke-linecap: round"/>
    <path d="M 338.478357 261.184196 
L 336.164883 257.356947 
L 340.614767 257.802516 
z
" clip-path="url(#pf10e1d3833)" style="fill: #1f77b4; stroke: #1f77b4; stroke-width: 1.5; stroke-linecap: round"/>
   </g>
   <g id="patch_68">
    <path d="M 125.738037 124.735427 
Q 125.546042 125.04794 126.231922 123.931524 
" clip-path="url(#pf10e1d3833)" style="fill: none; stroke: #1f77b4; stroke-width: 1.5; stroke-linecap: round"/>
    <path d="M 130.029873 121.570259 
L 126.231922 123.931524 
L 126.621681 119.476405 
z
" clip-path="url(#pf10e1d3833)" style="fill: #1f77b4; stroke: #1f77b4; stroke-width: 1.5; stroke-linecap: round"/>
   </g>
   <g id="patch_69">
    <path d="M 170.143803 196.295875 
Q 169.392991 196.201116 170.306031 196.316349 
" clip-path="url(#pf10e1d3833)" style="fill: none; stroke: #1f77b4; stroke-width: 1.5; stroke-linecap: round"/>
    <path d="M 174.02412 198.801467 
L 170.306031 196.316349 
L 174.524979 194.832949 
z
" clip-path="url(#pf10e1d3833)" style="fill: #1f77b4; stroke: #1f77b4; stroke-width: 1.5; stroke-linecap: round"/>
   </g>
   <g id="patch_70">
    <path d="M 141.816497 243.114699 
Q 141.44446 243.070582 142.737805 243.223949 
" clip-path="url(#pf10e1d3833)" style="fill: none; stroke: #1f77b4; stroke-width: 1.5; stroke-linecap: round"/>
    <path d="M 146.474462 245.68106 
L 142.737805 243.223949 
L 146.945488 241.70889 
z
" clip-path="url(#pf10e1d3833)" style="fill: #1f77b4; stroke: #1f77b4; stroke-width: 1.5; stroke-linecap: round"/>
   </g>
   <g id="patch_71">
    <path d="M 258.694495 231.518711 
Q 258.050182 231.167712 258.878571 231.618989 
" clip-path="url(#pf10e1d3833)" style="fill: none; stroke: #1f77b4; stroke-width: 1.5; stroke-linecap: round"/>
    <path d="M 261.434399 235.288832 
L 258.878571 231.618989 
L 263.347942 231.776232 
z
" clip-path="url(#pf10e1d3833)" style="fill: #1f77b4; stroke: #1f77b4; stroke-width: 1.5; stroke-linecap: round"/>
   </g>
   <g id="patch_72">
    <path d="M 282.222981 186.83961 
Q 281.507443 186.511376 282.316229 186.882385 
" clip-path="url(#pf10e1d3833)" style="fill: none; stroke: #1f77b4; stroke-width: 1.5; stroke-linecap: round"/>
    <path d="M 285.118056 190.368036 
L 282.316229 186.882385 
L 286.785846 186.732314 
z
" clip-path="url(#pf10e1d3833)" style="fill: #1f77b4; stroke: #1f77b4; stroke-width: 1.5; stroke-linecap: round"/>
   </g>
   <g id="patch_73">
    <path d="M 57.6 307.584 
L 57.6 41.472 
" style="fill: none; stroke: #000000; stroke-width: 0.8; stroke-linejoin: miter; stroke-linecap: square"/>
   </g>
   <g id="patch_74">
    <path d="M 414.72 307.584 
L 414.72 41.472 
" style="fill: none; stroke: #000000; stroke-width: 0.8; stroke-linejoin: miter; stroke-linecap: square"/>
   </g>
   <g id="patch_75">
    <path d="M 57.6 307.584 
L 414.72 307.584 
" style="fill: none; stroke: #000000; stroke-width: 0.8; stroke-linejoin: miter; stroke-linecap: square"/>
   </g>
   <g id="patch_76">
    <path d="M 57.6 41.472 
L 414.72 41.472 
" style="fill: none; stroke: #000000; stroke-width: 0.8; stroke-linejoin: miter; stroke-linecap: square"/>
   </g>
  </g>
 </g>
 <defs>
  <clipPath id="pf10e1d3833">
   <rect x="57.6" y="41.472" width="357.12" height="266.112"/>
  </clipPath>
 </defs>
</svg>
