<?xml version="1.0" encoding="utf-8" standalone="no"?>
<!DOCTYPE svg PUBLIC "-//W3C//DTD SVG 1.1//EN"
  "http://www.w3.org/Graphics/SVG/1.1/DTD/svg11.dtd">
<svg xmlns:xlink="http://www.w3.org/1999/xlink" width="460.8pt" height="345.6pt" viewBox="0 0 460.8 345.6" xmlns="http://www.w3.org/2000/svg" version="1.1">
 <metadata>
  <rdf:RDF xmlns:dc="http://purl.org/dc/elements/1.1/" xmlns:cc="http://creativecommons.org/ns#" xmlns:rdf="http://www.w3.org/1999/02/22-rdf-syntax-ns#">
   <cc:Work>
    <dc:type rdf:resource="http://purl.org/dc/dcmitype/StillImage"/>
    <dc:date>2025-04-09T09:51:05.064699</dc:date>
    <dc:format>image/svg+xml</dc:format>
    <dc:creator>
     <cc:Agent>
      <dc:title>Matplotlib v3.10.1, https://matplotlib.org/</dc:title>
     </cc:Agent>
    </dc:creator>
   </cc:Work>
  </rdf:RDF>
 </metadata>
 <defs>
  <style type="text/css">*{stroke-linejoin: round; stroke-linecap: butt}</style>
 </defs>
 <g id="figure_1">
  <g id="patch_1">
   <path d="M 0 345.6 
L 460.8 345.6 
L 460.8 0 
L 0 0 
z
" style="fill: #ffffff"/>
  </g>
  <g id="axes_1">
   <g id="patch_2">
    <path d="M 57.6 307.584 
L 414.72 307.584 
L 414.72 41.472 
L 57.6 41.472 
z
" style="fill: #ffffff"/>
   </g>
   <g id="matplotlib.axis_1">
    <g id="xtick_1">
     <g id="line2d_1">
      <defs>
       <path id="medd96e55fc" d="M 0 0 
L 0 3.5 
" style="stroke: #000000; stroke-width: 0.8"/>
      </defs>
      <g>
       <use xlink:href="#medd96e55fc" x="58.094626" y="307.584" style="stroke: #000000; stroke-width: 0.8"/>
      </g>
     </g>
     <g id="text_1">
      <!-- 0 -->
      <g transform="translate(54.913376 322.182437) scale(0.1 -0.1)">
       <defs>
        <path id="DejaVuSans-30" d="M 2034 4250 
Q 1547 4250 1301 3770 
Q 1056 3291 1056 2328 
Q 1056 1369 1301 889 
Q 1547 409 2034 409 
Q 2525 409 2770 889 
Q 3016 1369 3016 2328 
Q 3016 3291 2770 3770 
Q 2525 4250 2034 4250 
z
M 2034 4750 
Q 2819 4750 3233 4129 
Q 3647 3509 3647 2328 
Q 3647 1150 3233 529 
Q 2819 -91 2034 -91 
Q 1250 -91 836 529 
Q 422 1150 422 2328 
Q 422 3509 836 4129 
Q 1250 4750 2034 4750 
z
" transform="scale(0.015625)"/>
       </defs>
       <use xlink:href="#DejaVuSans-30"/>
      </g>
     </g>
    </g>
    <g id="xtick_2">
     <g id="line2d_2">
      <g>
       <use xlink:href="#medd96e55fc" x="107.55723" y="307.584" style="stroke: #000000; stroke-width: 0.8"/>
      </g>
     </g>
     <g id="text_2">
      <!-- 1000 -->
      <g transform="translate(94.83223 322.182437) scale(0.1 -0.1)">
       <defs>
        <path id="DejaVuSans-31" d="M 794 531 
L 1825 531 
L 1825 4091 
L 703 3866 
L 703 4441 
L 1819 4666 
L 2450 4666 
L 2450 531 
L 3481 531 
L 3481 0 
L 794 0 
L 794 531 
z
" transform="scale(0.015625)"/>
       </defs>
       <use xlink:href="#DejaVuSans-31"/>
       <use xlink:href="#DejaVuSans-30" transform="translate(63.623047 0)"/>
       <use xlink:href="#DejaVuSans-30" transform="translate(127.246094 0)"/>
       <use xlink:href="#DejaVuSans-30" transform="translate(190.869141 0)"/>
      </g>
     </g>
    </g>
    <g id="xtick_3">
     <g id="line2d_3">
      <g>
       <use xlink:href="#medd96e55fc" x="157.019834" y="307.584" style="stroke: #000000; stroke-width: 0.8"/>
      </g>
     </g>
     <g id="text_3">
      <!-- 2000 -->
      <g transform="translate(144.294834 322.182437) scale(0.1 -0.1)">
       <defs>
        <path id="DejaVuSans-32" d="M 1228 531 
L 3431 531 
L 3431 0 
L 469 0 
L 469 531 
Q 828 903 1448 1529 
Q 2069 2156 2228 2338 
Q 2531 2678 2651 2914 
Q 2772 3150 2772 3378 
Q 2772 3750 2511 3984 
Q 2250 4219 1831 4219 
Q 1534 4219 1204 4116 
Q 875 4013 500 3803 
L 500 4441 
Q 881 4594 1212 4672 
Q 1544 4750 1819 4750 
Q 2544 4750 2975 4387 
Q 3406 4025 3406 3419 
Q 3406 3131 3298 2873 
Q 3191 2616 2906 2266 
Q 2828 2175 2409 1742 
Q 1991 1309 1228 531 
z
" transform="scale(0.015625)"/>
       </defs>
       <use xlink:href="#DejaVuSans-32"/>
       <use xlink:href="#DejaVuSans-30" transform="translate(63.623047 0)"/>
       <use xlink:href="#DejaVuSans-30" transform="translate(127.246094 0)"/>
       <use xlink:href="#DejaVuSans-30" transform="translate(190.869141 0)"/>
      </g>
     </g>
    </g>
    <g id="xtick_4">
     <g id="line2d_4">
      <g>
       <use xlink:href="#medd96e55fc" x="206.482438" y="307.584" style="stroke: #000000; stroke-width: 0.8"/>
      </g>
     </g>
     <g id="text_4">
      <!-- 3000 -->
      <g transform="translate(193.757438 322.182437) scale(0.1 -0.1)">
       <defs>
        <path id="DejaVuSans-33" d="M 2597 2516 
Q 3050 2419 3304 2112 
Q 3559 1806 3559 1356 
Q 3559 666 3084 287 
Q 2609 -91 1734 -91 
Q 1441 -91 1130 -33 
Q 819 25 488 141 
L 488 750 
Q 750 597 1062 519 
Q 1375 441 1716 441 
Q 2309 441 2620 675 
Q 2931 909 2931 1356 
Q 2931 1769 2642 2001 
Q 2353 2234 1838 2234 
L 1294 2234 
L 1294 2753 
L 1863 2753 
Q 2328 2753 2575 2939 
Q 2822 3125 2822 3475 
Q 2822 3834 2567 4026 
Q 2313 4219 1838 4219 
Q 1578 4219 1281 4162 
Q 984 4106 628 3988 
L 628 4550 
Q 988 4650 1302 4700 
Q 1616 4750 1894 4750 
Q 2613 4750 3031 4423 
Q 3450 4097 3450 3541 
Q 3450 3153 3228 2886 
Q 3006 2619 2597 2516 
z
" transform="scale(0.015625)"/>
       </defs>
       <use xlink:href="#DejaVuSans-33"/>
       <use xlink:href="#DejaVuSans-30" transform="translate(63.623047 0)"/>
       <use xlink:href="#DejaVuSans-30" transform="translate(127.246094 0)"/>
       <use xlink:href="#DejaVuSans-30" transform="translate(190.869141 0)"/>
      </g>
     </g>
    </g>
    <g id="xtick_5">
     <g id="line2d_5">
      <g>
       <use xlink:href="#medd96e55fc" x="255.945042" y="307.584" style="stroke: #000000; stroke-width: 0.8"/>
      </g>
     </g>
     <g id="text_5">
      <!-- 4000 -->
      <g transform="translate(243.220042 322.182437) scale(0.1 -0.1)">
       <defs>
        <path id="DejaVuSans-34" d="M 2419 4116 
L 825 1625 
L 2419 1625 
L 2419 4116 
z
M 2253 4666 
L 3047 4666 
L 3047 1625 
L 3713 1625 
L 3713 1100 
L 3047 1100 
L 3047 0 
L 2419 0 
L 2419 1100 
L 313 1100 
L 313 1709 
L 2253 4666 
z
" transform="scale(0.015625)"/>
       </defs>
       <use xlink:href="#DejaVuSans-34"/>
       <use xlink:href="#DejaVuSans-30" transform="translate(63.623047 0)"/>
       <use xlink:href="#DejaVuSans-30" transform="translate(127.246094 0)"/>
       <use xlink:href="#DejaVuSans-30" transform="translate(190.869141 0)"/>
      </g>
     </g>
    </g>
    <g id="xtick_6">
     <g id="line2d_6">
      <g>
       <use xlink:href="#medd96e55fc" x="305.407645" y="307.584" style="stroke: #000000; stroke-width: 0.8"/>
      </g>
     </g>
     <g id="text_6">
      <!-- 5000 -->
      <g transform="translate(292.682645 322.182437) scale(0.1 -0.1)">
       <defs>
        <path id="DejaVuSans-35" d="M 691 4666 
L 3169 4666 
L 3169 4134 
L 1269 4134 
L 1269 2991 
Q 1406 3038 1543 3061 
Q 1681 3084 1819 3084 
Q 2600 3084 3056 2656 
Q 3513 2228 3513 1497 
Q 3513 744 3044 326 
Q 2575 -91 1722 -91 
Q 1428 -91 1123 -41 
Q 819 9 494 109 
L 494 744 
Q 775 591 1075 516 
Q 1375 441 1709 441 
Q 2250 441 2565 725 
Q 2881 1009 2881 1497 
Q 2881 1984 2565 2268 
Q 2250 2553 1709 2553 
Q 1456 2553 1204 2497 
Q 953 2441 691 2322 
L 691 4666 
z
" transform="scale(0.015625)"/>
       </defs>
       <use xlink:href="#DejaVuSans-35"/>
       <use xlink:href="#DejaVuSans-30" transform="translate(63.623047 0)"/>
       <use xlink:href="#DejaVuSans-30" transform="translate(127.246094 0)"/>
       <use xlink:href="#DejaVuSans-30" transform="translate(190.869141 0)"/>
      </g>
     </g>
    </g>
    <g id="xtick_7">
     <g id="line2d_7">
      <g>
       <use xlink:href="#medd96e55fc" x="354.870249" y="307.584" style="stroke: #000000; stroke-width: 0.8"/>
      </g>
     </g>
     <g id="text_7">
      <!-- 6000 -->
      <g transform="translate(342.145249 322.182437) scale(0.1 -0.1)">
       <defs>
        <path id="DejaVuSans-36" d="M 2113 2584 
Q 1688 2584 1439 2293 
Q 1191 2003 1191 1497 
Q 1191 994 1439 701 
Q 1688 409 2113 409 
Q 2538 409 2786 701 
Q 3034 994 3034 1497 
Q 3034 2003 2786 2293 
Q 2538 2584 2113 2584 
z
M 3366 4563 
L 3366 3988 
Q 3128 4100 2886 4159 
Q 2644 4219 2406 4219 
Q 1781 4219 1451 3797 
Q 1122 3375 1075 2522 
Q 1259 2794 1537 2939 
Q 1816 3084 2150 3084 
Q 2853 3084 3261 2657 
Q 3669 2231 3669 1497 
Q 3669 778 3244 343 
Q 2819 -91 2113 -91 
Q 1303 -91 875 529 
Q 447 1150 447 2328 
Q 447 3434 972 4092 
Q 1497 4750 2381 4750 
Q 2619 4750 2861 4703 
Q 3103 4656 3366 4563 
z
" transform="scale(0.015625)"/>
       </defs>
       <use xlink:href="#DejaVuSans-36"/>
       <use xlink:href="#DejaVuSans-30" transform="translate(63.623047 0)"/>
       <use xlink:href="#DejaVuSans-30" transform="translate(127.246094 0)"/>
       <use xlink:href="#DejaVuSans-30" transform="translate(190.869141 0)"/>
      </g>
     </g>
    </g>
    <g id="xtick_8">
     <g id="line2d_8">
      <g>
       <use xlink:href="#medd96e55fc" x="404.332853" y="307.584" style="stroke: #000000; stroke-width: 0.8"/>
      </g>
     </g>
     <g id="text_8">
      <!-- 7000 -->
      <g transform="translate(391.607853 322.182437) scale(0.1 -0.1)">
       <defs>
        <path id="DejaVuSans-37" d="M 525 4666 
L 3525 4666 
L 3525 4397 
L 1831 0 
L 1172 0 
L 2766 4134 
L 525 4134 
L 525 4666 
z
" transform="scale(0.015625)"/>
       </defs>
       <use xlink:href="#DejaVuSans-37"/>
       <use xlink:href="#DejaVuSans-30" transform="translate(63.623047 0)"/>
       <use xlink:href="#DejaVuSans-30" transform="translate(127.246094 0)"/>
       <use xlink:href="#DejaVuSans-30" transform="translate(190.869141 0)"/>
      </g>
     </g>
    </g>
    <g id="text_9">
     <!-- Fish Population -->
     <g transform="translate(198.62875 335.860562) scale(0.1 -0.1)">
      <defs>
       <path id="DejaVuSans-46" d="M 628 4666 
L 3309 4666 
L 3309 4134 
L 1259 4134 
L 1259 2759 
L 3109 2759 
L 3109 2228 
L 1259 2228 
L 1259 0 
L 628 0 
L 628 4666 
z
" transform="scale(0.015625)"/>
       <path id="DejaVuSans-69" d="M 603 3500 
L 1178 3500 
L 1178 0 
L 603 0 
L 603 3500 
z
M 603 4863 
L 1178 4863 
L 1178 4134 
L 603 4134 
L 603 4863 
z
" transform="scale(0.015625)"/>
       <path id="DejaVuSans-73" d="M 2834 3397 
L 2834 2853 
Q 2591 2978 2328 3040 
Q 2066 3103 1784 3103 
Q 1356 3103 1142 2972 
Q 928 2841 928 2578 
Q 928 2378 1081 2264 
Q 1234 2150 1697 2047 
L 1894 2003 
Q 2506 1872 2764 1633 
Q 3022 1394 3022 966 
Q 3022 478 2636 193 
Q 2250 -91 1575 -91 
Q 1294 -91 989 -36 
Q 684 19 347 128 
L 347 722 
Q 666 556 975 473 
Q 1284 391 1588 391 
Q 1994 391 2212 530 
Q 2431 669 2431 922 
Q 2431 1156 2273 1281 
Q 2116 1406 1581 1522 
L 1381 1569 
Q 847 1681 609 1914 
Q 372 2147 372 2553 
Q 372 3047 722 3315 
Q 1072 3584 1716 3584 
Q 2034 3584 2315 3537 
Q 2597 3491 2834 3397 
z
" transform="scale(0.015625)"/>
       <path id="DejaVuSans-68" d="M 3513 2113 
L 3513 0 
L 2938 0 
L 2938 2094 
Q 2938 2591 2744 2837 
Q 2550 3084 2163 3084 
Q 1697 3084 1428 2787 
Q 1159 2491 1159 1978 
L 1159 0 
L 581 0 
L 581 4863 
L 1159 4863 
L 1159 2956 
Q 1366 3272 1645 3428 
Q 1925 3584 2291 3584 
Q 2894 3584 3203 3211 
Q 3513 2838 3513 2113 
z
" transform="scale(0.015625)"/>
       <path id="DejaVuSans-20" transform="scale(0.015625)"/>
       <path id="DejaVuSans-50" d="M 1259 4147 
L 1259 2394 
L 2053 2394 
Q 2494 2394 2734 2622 
Q 2975 2850 2975 3272 
Q 2975 3691 2734 3919 
Q 2494 4147 2053 4147 
L 1259 4147 
z
M 628 4666 
L 2053 4666 
Q 2838 4666 3239 4311 
Q 3641 3956 3641 3272 
Q 3641 2581 3239 2228 
Q 2838 1875 2053 1875 
L 1259 1875 
L 1259 0 
L 628 0 
L 628 4666 
z
" transform="scale(0.015625)"/>
       <path id="DejaVuSans-6f" d="M 1959 3097 
Q 1497 3097 1228 2736 
Q 959 2375 959 1747 
Q 959 1119 1226 758 
Q 1494 397 1959 397 
Q 2419 397 2687 759 
Q 2956 1122 2956 1747 
Q 2956 2369 2687 2733 
Q 2419 3097 1959 3097 
z
M 1959 3584 
Q 2709 3584 3137 3096 
Q 3566 2609 3566 1747 
Q 3566 888 3137 398 
Q 2709 -91 1959 -91 
Q 1206 -91 779 398 
Q 353 888 353 1747 
Q 353 2609 779 3096 
Q 1206 3584 1959 3584 
z
" transform="scale(0.015625)"/>
       <path id="DejaVuSans-70" d="M 1159 525 
L 1159 -1331 
L 581 -1331 
L 581 3500 
L 1159 3500 
L 1159 2969 
Q 1341 3281 1617 3432 
Q 1894 3584 2278 3584 
Q 2916 3584 3314 3078 
Q 3713 2572 3713 1747 
Q 3713 922 3314 415 
Q 2916 -91 2278 -91 
Q 1894 -91 1617 61 
Q 1341 213 1159 525 
z
M 3116 1747 
Q 3116 2381 2855 2742 
Q 2594 3103 2138 3103 
Q 1681 3103 1420 2742 
Q 1159 2381 1159 1747 
Q 1159 1113 1420 752 
Q 1681 391 2138 391 
Q 2594 391 2855 752 
Q 3116 1113 3116 1747 
z
" transform="scale(0.015625)"/>
       <path id="DejaVuSans-75" d="M 544 1381 
L 544 3500 
L 1119 3500 
L 1119 1403 
Q 1119 906 1312 657 
Q 1506 409 1894 409 
Q 2359 409 2629 706 
Q 2900 1003 2900 1516 
L 2900 3500 
L 3475 3500 
L 3475 0 
L 2900 0 
L 2900 538 
Q 2691 219 2414 64 
Q 2138 -91 1772 -91 
Q 1169 -91 856 284 
Q 544 659 544 1381 
z
M 1991 3584 
L 1991 3584 
z
" transform="scale(0.015625)"/>
       <path id="DejaVuSans-6c" d="M 603 4863 
L 1178 4863 
L 1178 0 
L 603 0 
L 603 4863 
z
" transform="scale(0.015625)"/>
       <path id="DejaVuSans-61" d="M 2194 1759 
Q 1497 1759 1228 1600 
Q 959 1441 959 1056 
Q 959 750 1161 570 
Q 1363 391 1709 391 
Q 2188 391 2477 730 
Q 2766 1069 2766 1631 
L 2766 1759 
L 2194 1759 
z
M 3341 1997 
L 3341 0 
L 2766 0 
L 2766 531 
Q 2569 213 2275 61 
Q 1981 -91 1556 -91 
Q 1019 -91 701 211 
Q 384 513 384 1019 
Q 384 1609 779 1909 
Q 1175 2209 1959 2209 
L 2766 2209 
L 2766 2266 
Q 2766 2663 2505 2880 
Q 2244 3097 1772 3097 
Q 1472 3097 1187 3025 
Q 903 2953 641 2809 
L 641 3341 
Q 956 3463 1253 3523 
Q 1550 3584 1831 3584 
Q 2591 3584 2966 3190 
Q 3341 2797 3341 1997 
z
" transform="scale(0.015625)"/>
       <path id="DejaVuSans-74" d="M 1172 4494 
L 1172 3500 
L 2356 3500 
L 2356 3053 
L 1172 3053 
L 1172 1153 
Q 1172 725 1289 603 
Q 1406 481 1766 481 
L 2356 481 
L 2356 0 
L 1766 0 
Q 1100 0 847 248 
Q 594 497 594 1153 
L 594 3053 
L 172 3053 
L 172 3500 
L 594 3500 
L 594 4494 
L 1172 4494 
z
" transform="scale(0.015625)"/>
       <path id="DejaVuSans-6e" d="M 3513 2113 
L 3513 0 
L 2938 0 
L 2938 2094 
Q 2938 2591 2744 2837 
Q 2550 3084 2163 3084 
Q 1697 3084 1428 2787 
Q 1159 2491 1159 1978 
L 1159 0 
L 581 0 
L 581 3500 
L 1159 3500 
L 1159 2956 
Q 1366 3272 1645 3428 
Q 1925 3584 2291 3584 
Q 2894 3584 3203 3211 
Q 3513 2838 3513 2113 
z
" transform="scale(0.015625)"/>
      </defs>
      <use xlink:href="#DejaVuSans-46"/>
      <use xlink:href="#DejaVuSans-69" transform="translate(50.269531 0)"/>
      <use xlink:href="#DejaVuSans-73" transform="translate(78.052734 0)"/>
      <use xlink:href="#DejaVuSans-68" transform="translate(130.152344 0)"/>
      <use xlink:href="#DejaVuSans-20" transform="translate(193.53125 0)"/>
      <use xlink:href="#DejaVuSans-50" transform="translate(225.318359 0)"/>
      <use xlink:href="#DejaVuSans-6f" transform="translate(281.996094 0)"/>
      <use xlink:href="#DejaVuSans-70" transform="translate(343.177734 0)"/>
      <use xlink:href="#DejaVuSans-75" transform="translate(406.654297 0)"/>
      <use xlink:href="#DejaVuSans-6c" transform="translate(470.033203 0)"/>
      <use xlink:href="#DejaVuSans-61" transform="translate(497.816406 0)"/>
      <use xlink:href="#DejaVuSans-74" transform="translate(559.095703 0)"/>
      <use xlink:href="#DejaVuSans-69" transform="translate(598.304688 0)"/>
      <use xlink:href="#DejaVuSans-6f" transform="translate(626.087891 0)"/>
      <use xlink:href="#DejaVuSans-6e" transform="translate(687.269531 0)"/>
     </g>
    </g>
   </g>
   <g id="matplotlib.axis_2">
    <g id="ytick_1">
     <g id="line2d_9">
      <defs>
       <path id="m07f2605c8f" d="M 0 0 
L -3.5 0 
" style="stroke: #000000; stroke-width: 0.8"/>
      </defs>
      <g>
       <use xlink:href="#m07f2605c8f" x="57.6" y="307.215424" style="stroke: #000000; stroke-width: 0.8"/>
      </g>
     </g>
     <g id="text_10">
      <!-- 0 -->
      <g transform="translate(44.2375 311.014643) scale(0.1 -0.1)">
       <use xlink:href="#DejaVuSans-30"/>
      </g>
     </g>
    </g>
    <g id="ytick_2">
     <g id="line2d_10">
      <g>
       <use xlink:href="#m07f2605c8f" x="57.6" y="270.357806" style="stroke: #000000; stroke-width: 0.8"/>
      </g>
     </g>
     <g id="text_11">
      <!-- 1000 -->
      <g transform="translate(25.15 274.157025) scale(0.1 -0.1)">
       <use xlink:href="#DejaVuSans-31"/>
       <use xlink:href="#DejaVuSans-30" transform="translate(63.623047 0)"/>
       <use xlink:href="#DejaVuSans-30" transform="translate(127.246094 0)"/>
       <use xlink:href="#DejaVuSans-30" transform="translate(190.869141 0)"/>
      </g>
     </g>
    </g>
    <g id="ytick_3">
     <g id="line2d_11">
      <g>
       <use xlink:href="#m07f2605c8f" x="57.6" y="233.500188" style="stroke: #000000; stroke-width: 0.8"/>
      </g>
     </g>
     <g id="text_12">
      <!-- 2000 -->
      <g transform="translate(25.15 237.299407) scale(0.1 -0.1)">
       <use xlink:href="#DejaVuSans-32"/>
       <use xlink:href="#DejaVuSans-30" transform="translate(63.623047 0)"/>
       <use xlink:href="#DejaVuSans-30" transform="translate(127.246094 0)"/>
       <use xlink:href="#DejaVuSans-30" transform="translate(190.869141 0)"/>
      </g>
     </g>
    </g>
    <g id="ytick_4">
     <g id="line2d_12">
      <g>
       <use xlink:href="#m07f2605c8f" x="57.6" y="196.642571" style="stroke: #000000; stroke-width: 0.8"/>
      </g>
     </g>
     <g id="text_13">
      <!-- 3000 -->
      <g transform="translate(25.15 200.441789) scale(0.1 -0.1)">
       <use xlink:href="#DejaVuSans-33"/>
       <use xlink:href="#DejaVuSans-30" transform="translate(63.623047 0)"/>
       <use xlink:href="#DejaVuSans-30" transform="translate(127.246094 0)"/>
       <use xlink:href="#DejaVuSans-30" transform="translate(190.869141 0)"/>
      </g>
     </g>
    </g>
    <g id="ytick_5">
     <g id="line2d_13">
      <g>
       <use xlink:href="#m07f2605c8f" x="57.6" y="159.784953" style="stroke: #000000; stroke-width: 0.8"/>
      </g>
     </g>
     <g id="text_14">
      <!-- 4000 -->
      <g transform="translate(25.15 163.584172) scale(0.1 -0.1)">
       <use xlink:href="#DejaVuSans-34"/>
       <use xlink:href="#DejaVuSans-30" transform="translate(63.623047 0)"/>
       <use xlink:href="#DejaVuSans-30" transform="translate(127.246094 0)"/>
       <use xlink:href="#DejaVuSans-30" transform="translate(190.869141 0)"/>
      </g>
     </g>
    </g>
    <g id="ytick_6">
     <g id="line2d_14">
      <g>
       <use xlink:href="#m07f2605c8f" x="57.6" y="122.927335" style="stroke: #000000; stroke-width: 0.8"/>
      </g>
     </g>
     <g id="text_15">
      <!-- 5000 -->
      <g transform="translate(25.15 126.726554) scale(0.1 -0.1)">
       <use xlink:href="#DejaVuSans-35"/>
       <use xlink:href="#DejaVuSans-30" transform="translate(63.623047 0)"/>
       <use xlink:href="#DejaVuSans-30" transform="translate(127.246094 0)"/>
       <use xlink:href="#DejaVuSans-30" transform="translate(190.869141 0)"/>
      </g>
     </g>
    </g>
    <g id="ytick_7">
     <g id="line2d_15">
      <g>
       <use xlink:href="#m07f2605c8f" x="57.6" y="86.069717" style="stroke: #000000; stroke-width: 0.8"/>
      </g>
     </g>
     <g id="text_16">
      <!-- 6000 -->
      <g transform="translate(25.15 89.868936) scale(0.1 -0.1)">
       <use xlink:href="#DejaVuSans-36"/>
       <use xlink:href="#DejaVuSans-30" transform="translate(63.623047 0)"/>
       <use xlink:href="#DejaVuSans-30" transform="translate(127.246094 0)"/>
       <use xlink:href="#DejaVuSans-30" transform="translate(190.869141 0)"/>
      </g>
     </g>
    </g>
    <g id="ytick_8">
     <g id="line2d_16">
      <g>
       <use xlink:href="#m07f2605c8f" x="57.6" y="49.2121" style="stroke: #000000; stroke-width: 0.8"/>
      </g>
     </g>
     <g id="text_17">
      <!-- 7000 -->
      <g transform="translate(25.15 53.011318) scale(0.1 -0.1)">
       <use xlink:href="#DejaVuSans-37"/>
       <use xlink:href="#DejaVuSans-30" transform="translate(63.623047 0)"/>
       <use xlink:href="#DejaVuSans-30" transform="translate(127.246094 0)"/>
       <use xlink:href="#DejaVuSans-30" transform="translate(190.869141 0)"/>
      </g>
     </g>
    </g>
    <g id="text_18">
     <!-- Shark Population -->
     <g transform="translate(19.070312 216.741281) rotate(-90) scale(0.1 -0.1)">
      <defs>
       <path id="DejaVuSans-53" d="M 3425 4513 
L 3425 3897 
Q 3066 4069 2747 4153 
Q 2428 4238 2131 4238 
Q 1616 4238 1336 4038 
Q 1056 3838 1056 3469 
Q 1056 3159 1242 3001 
Q 1428 2844 1947 2747 
L 2328 2669 
Q 3034 2534 3370 2195 
Q 3706 1856 3706 1288 
Q 3706 609 3251 259 
Q 2797 -91 1919 -91 
Q 1588 -91 1214 -16 
Q 841 59 441 206 
L 441 856 
Q 825 641 1194 531 
Q 1563 422 1919 422 
Q 2459 422 2753 634 
Q 3047 847 3047 1241 
Q 3047 1584 2836 1778 
Q 2625 1972 2144 2069 
L 1759 2144 
Q 1053 2284 737 2584 
Q 422 2884 422 3419 
Q 422 4038 858 4394 
Q 1294 4750 2059 4750 
Q 2388 4750 2728 4690 
Q 3069 4631 3425 4513 
z
" transform="scale(0.015625)"/>
       <path id="DejaVuSans-72" d="M 2631 2963 
Q 2534 3019 2420 3045 
Q 2306 3072 2169 3072 
Q 1681 3072 1420 2755 
Q 1159 2438 1159 1844 
L 1159 0 
L 581 0 
L 581 3500 
L 1159 3500 
L 1159 2956 
Q 1341 3275 1631 3429 
Q 1922 3584 2338 3584 
Q 2397 3584 2469 3576 
Q 2541 3569 2628 3553 
L 2631 2963 
z
" transform="scale(0.015625)"/>
       <path id="DejaVuSans-6b" d="M 581 4863 
L 1159 4863 
L 1159 1991 
L 2875 3500 
L 3609 3500 
L 1753 1863 
L 3688 0 
L 2938 0 
L 1159 1709 
L 1159 0 
L 581 0 
L 581 4863 
z
" transform="scale(0.015625)"/>
      </defs>
      <use xlink:href="#DejaVuSans-53"/>
      <use xlink:href="#DejaVuSans-68" transform="translate(63.476562 0)"/>
      <use xlink:href="#DejaVuSans-61" transform="translate(126.855469 0)"/>
      <use xlink:href="#DejaVuSans-72" transform="translate(188.134766 0)"/>
      <use xlink:href="#DejaVuSans-6b" transform="translate(229.248047 0)"/>
      <use xlink:href="#DejaVuSans-20" transform="translate(287.158203 0)"/>
      <use xlink:href="#DejaVuSans-50" transform="translate(318.945312 0)"/>
      <use xlink:href="#DejaVuSans-6f" transform="translate(375.623047 0)"/>
      <use xlink:href="#DejaVuSans-70" transform="translate(436.804688 0)"/>
      <use xlink:href="#DejaVuSans-75" transform="translate(500.28125 0)"/>
      <use xlink:href="#DejaVuSans-6c" transform="translate(563.660156 0)"/>
      <use xlink:href="#DejaVuSans-61" transform="translate(591.443359 0)"/>
      <use xlink:href="#DejaVuSans-74" transform="translate(652.722656 0)"/>
      <use xlink:href="#DejaVuSans-69" transform="translate(691.931641 0)"/>
      <use xlink:href="#DejaVuSans-6f" transform="translate(719.714844 0)"/>
      <use xlink:href="#DejaVuSans-6e" transform="translate(780.896484 0)"/>
     </g>
    </g>
   </g>
   <g id="LineCollection_1">
    <path d="M 69.914483 307.584 
L 69.914483 307.584 
L 81.805575 307.356855 
L 93.709208 307.310096 
L 105.613184 307.296932 
L 117.517182 307.295763 
L 129.421177 307.301527 
L 141.325163 307.313122 
L 153.229134 307.330943 
L 165.133066 307.356284 
L 177.036929 307.391323 
L 188.940681 307.439293 
L 200.844267 307.50481 
" clip-path="url(#p6bef1fc981)" style="fill: none; stroke: #1f77b4; stroke-width: 1.5"/>
    <path d="M 219.33196 307.327224 
L 231.235815 307.364453 
L 243.139526 307.415634 
L 255.043021 307.486244 
L 266.946207 307.584 
L 266.946207 307.584 
" clip-path="url(#p6bef1fc981)" style="fill: none; stroke: #1f77b4; stroke-width: 1.5"/>
    <path d="M 280.904594 307.314554 
L 292.808437 307.352364 
L 304.712126 307.405311 
L 316.615559 307.47957 
L 328.518621 307.584 
L 328.518621 307.584 
" clip-path="url(#p6bef1fc981)" style="fill: none; stroke: #1f77b4; stroke-width: 1.5"/>
    <path d="M 342.47714 307.307784 
L 354.380974 307.345607 
L 366.284656 307.399311 
L 378.188052 307.475553 
L 390.091034 307.584 
L 390.091034 307.584 
" clip-path="url(#p6bef1fc981)" style="fill: none; stroke: #1f77b4; stroke-width: 1.5"/>
    <path d="M 414.72 280.055172 
L 414.72 280.055172 
L 414.72 280.055172 
L 411.069129 273.063553 
L 406.4043 266.588139 
L 399.986758 259.123222 
L 393.020885 251.932939 
L 385.686813 244.947548 
L 378.08475 238.122465 
L 370.275943 231.427911 
L 362.300343 224.843256 
L 354.185259 218.353809 
L 345.949961 211.948932 
L 337.608339 205.620868 
L 329.170501 199.364005 
L 320.643782 193.174388 
L 312.033395 187.049408 
L 303.342871 180.987592 
L 294.574333 174.98848 
L 285.728683 169.05256 
L 276.805705 163.181265 
L 267.804104 157.377003 
L 258.721499 151.643257 
L 249.554358 145.984732 
L 240.29788 140.407585 
L 230.945809 134.919756 
L 221.490166 129.531453 
L 211.920882 124.255835 
L 202.225284 119.110039 
L 192.387392 114.116723 
L 182.386961 109.306464 
L 172.198217 104.721642 
L 161.788283 100.422994 
L 151.115711 96.501195 
L 140.130969 93.098575 
L 128.786786 90.451164 
L 117.089253 88.968291 
L 117.089253 88.968291 
L 108.497597 88.974459 
L 99.952467 90.309644 
L 93.160396 92.693392 
L 87.669682 95.844742 
L 83.007413 99.742501 
L 78.906236 104.494144 
L 75.232845 110.274583 
L 71.92839 117.313291 
L 68.976318 125.897375 
L 66.751949 134.607292 
L 65.044908 143.383885 
L 63.715692 152.197665 
L 62.668885 161.033058 
L 61.837035 169.881379 
L 61.171362 178.737659 
L 60.635677 187.598924 
L 60.202656 196.463343 
L 59.851463 205.329804 
L 59.565938 214.197588 
L 59.333538 223.066249 
L 59.144436 231.935497 
L 58.990942 240.805131 
L 58.867177 249.67503 
L 58.768846 258.545105 
L 58.693387 267.415315 
L 58.640555 276.285621 
L 58.615245 285.155991 
L 58.640929 294.026328 
" clip-path="url(#p6bef1fc981)" style="fill: none; stroke: #1f77b4; stroke-width: 1.5"/>
    <path d="M 414.72 252.526345 
L 414.72 252.526345 
L 407.464776 245.495435 
L 399.936362 238.625186 
L 392.19892 231.884778 
L 384.294212 225.252819 
L 376.250798 218.714003 
L 368.088913 212.257143 
L 359.823251 205.873958 
L 351.464651 199.558297 
L 343.021154 193.305633 
L 334.498702 187.112719 
L 325.901597 180.977357 
L 317.232812 174.89825 
L 308.494206 168.874904 
L 299.686657 162.907576 
L 290.81015 156.997262 
L 281.863811 151.145711 
L 272.845913 145.355484 
L 263.753835 139.63005 
L 254.583991 133.973924 
L 245.33171 128.392871 
L 235.991066 122.8942 
L 226.55464 117.487163 
L 217.013197 112.183537 
L 207.355246 106.998464 
L 197.566437 101.951698 
L 187.628747 97.069502 
L 177.519384 92.387665 
L 167.209383 87.956444 
L 156.662001 83.849131 
L 145.831831 80.177533 
L 134.668346 77.121597 
L 123.139161 74.986956 
L 123.139161 74.986956 
L 113.596276 74.272589 
L 113.596276 74.272589 
L 105.473059 74.699869 
L 97.558651 76.40742 
L 91.231467 79.052263 
L 86.035809 82.436783 
L 81.568504 86.590487 
L 77.611758 91.645326 
L 74.060119 97.793299 
" clip-path="url(#p6bef1fc981)" style="fill: none; stroke: #1f77b4; stroke-width: 1.5"/>
    <path d="M 414.72 234.173793 
L 414.72 234.173793 
L 406.917053 227.475295 
L 398.968407 220.872465 
L 390.897128 214.352678 
L 382.719921 207.906544 
L 374.449155 201.526995 
L 366.094097 195.208702 
L 357.661741 188.947671 
L 349.157336 182.740973 
L 340.584763 176.586559 
L 331.946786 170.483129 
L 323.245228 164.430053 
L 314.481091 158.427317 
L 305.654629 152.475506 
L 296.765391 146.575804 
L 287.812233 140.730026 
L 278.793299 134.940673 
L 269.705986 129.211015 
L 260.546865 123.545222 
L 251.311576 117.948529 
L 241.994683 112.427487 
L 232.589461 106.99029 
L 223.087635 101.647244 
L 213.479001 96.411438 
L 203.750937 91.299715 
L 193.887717 86.334135 
L 183.869619 81.544214 
L 173.671709 76.970532 
L 163.262345 72.670784 
L 152.601697 68.73036 
L 141.641811 65.281962 
L 130.334633 62.543417 
L 118.67322 60.890078 
L 118.67322 60.890078 
L 109.800315 60.711284 
L 100.908074 61.880996 
L 93.859659 64.155009 
L 88.207152 67.21411 
L 83.442751 71.01003 
" clip-path="url(#p6bef1fc981)" style="fill: none; stroke: #1f77b4; stroke-width: 1.5"/>
    <path d="M 414.72 224.997517 
L 414.72 224.997517 
L 406.748422 218.410014 
L 398.661995 211.900629 
L 390.475789 205.460819 
" clip-path="url(#p6bef1fc981)" style="fill: none; stroke: #1f77b4; stroke-width: 1.5"/>
    <path d="M 414.72 215.821241 
L 414.72 215.821241 
L 406.618395 209.322318 
L 398.422891 202.889059 
L 390.143719 196.515534 
L 381.788683 190.1972 
L 373.363756 183.930595 
L 364.873499 177.713132 
L 356.321344 171.542945 
L 347.709801 165.418791 
L 339.040595 159.339976 
L 330.314769 153.306311 
L 321.532745 147.318091 
L 312.694369 141.376087 
L 303.798925 135.481564 
L 294.845132 129.636306 
L 285.831124 123.842675 
L 276.754404 118.103679 
L 267.611779 112.423084 
L 258.39927 106.805553 
L 249.111983 101.256843 
L 239.74394 95.784072 
L 230.287858 90.396086 
L 220.734846 85.103975 
L 211.074006 79.921809 
L 201.2919 74.867716 
L 191.371819 69.965502 
L 181.292811 65.247188 
L 171.02841 60.757086 
L 160.545105 56.558734 
L 149.801051 52.747189 
L 138.74724 49.472083 
L 127.34025 46.982278 
L 115.601752 45.708713 
L 115.601752 45.708713 
L 107.165141 45.896098 
L 98.833908 47.395567 
L 92.203995 49.895761 
L 86.817998 53.147636 
L 82.227429 57.150287 
L 78.182943 62.020612 
L 74.561419 67.939354 
L 71.309478 75.141606 
L 68.461284 83.745871 
" clip-path="url(#p6bef1fc981)" style="fill: none; stroke: #1f77b4; stroke-width: 1.5"/>
    <path d="M 414.72 206.644966 
L 414.72 206.644966 
L 406.515175 200.218289 
L 398.231294 193.84815 
L 389.875498 187.530362 
L 381.453297 181.261713 
L 372.968928 175.03978 
L 364.425609 168.862793 
L 355.825716 162.729547 
L 347.170917 156.639336 
L 338.462252 150.591912 
L 329.7002 144.58746 
" clip-path="url(#p6bef1fc981)" style="fill: none; stroke: #1f77b4; stroke-width: 1.5"/>
    <path d="M 414.72 197.46869 
L 414.72 197.46869 
L 406.431304 191.102017 
L 398.074432 184.785009 
L 389.654464 178.514686 
L 381.175333 172.288781 
L 372.640052 166.10562 
L 364.050869 159.96404 
L 355.409386 153.863331 
" clip-path="url(#p6bef1fc981)" style="fill: none; stroke: #1f77b4; stroke-width: 1.5"/>
    <path d="M 414.72 188.292414 
L 414.72 188.292414 
L 406.361838 181.976345 
L 397.943704 175.704647 
L 389.469251 169.475199 
L 380.941297 163.28642 
L 372.361967 157.137192 
L 363.732793 151.026811 
L 355.054792 144.954946 
L 346.328513 138.921623 
L 337.554072 132.927212 
L 328.731172 126.97243 
L 319.859108 121.05835 
L 310.936761 115.186429 
L 301.962579 109.35854 
L 292.934548 103.577026 
L 283.850142 97.844764 
L 274.706266 92.165262 
L 265.499165 86.542781 
L 256.224323 80.98249 
L 246.876312 75.49069 
L 237.448611 70.075103 
L 227.933357 64.745279 
L 218.321024 59.513164 
L 208.599988 54.393911 
L 198.75595 49.407077 
L 188.771155 44.578444 
L 182.179642 41.472 
" clip-path="url(#p6bef1fc981)" style="fill: none; stroke: #1f77b4; stroke-width: 1.5"/>
    <path d="M 414.72 179.116138 
L 414.72 179.116138 
L 406.303379 172.843306 
L 397.83312 166.610685 
L 389.311859 160.416784 
L 380.741601 154.260529 
L 372.123813 148.141227 
L 363.459488 142.058521 
L 354.749195 136.01238 
" clip-path="url(#p6bef1fc981)" style="fill: none; stroke: #1f77b4; stroke-width: 1.5"/>
    <path d="M 414.72 169.939862 
L 414.72 169.939862 
L 406.253515 163.704389 
L 397.738381 157.505805 
L 389.17649 151.343085 
L 380.569242 145.215546 
L 371.917605 139.122816 
L 363.22216 133.064814 
L 354.483126 127.04174 
L 345.700383 121.054074 
L 336.873476 115.10258 
L 328.001618 109.188318 
L 319.083678 103.31267 
L 310.118162 97.477368 
L 301.103186 91.684539 
L 292.036435 85.936762 
L 282.915108 80.237145 
L 273.73585 74.589419 
L 264.494664 68.998071 
L 255.186791 63.468511 
L 245.806561 58.007299 
L 236.3472 52.622453 
L 226.800575 47.323874 
L 217.156854 42.123937 
L 215.928792 41.472 
" clip-path="url(#p6bef1fc981)" style="fill: none; stroke: #1f77b4; stroke-width: 1.5"/>
    <path d="M 414.72 160.763586 
L 414.72 160.763586 
L 406.210489 154.560711 
L 397.656326 148.39203 
L 389.058848 142.256876 
L 380.418995 136.154864 
L 371.737352 130.085876 
L 363.014174 124.050048 
L 354.249409 118.047768 
" clip-path="url(#p6bef1fc981)" style="fill: none; stroke: #1f77b4; stroke-width: 1.5"/>
    <path d="M 414.72 151.58731 
L 414.72 151.58731 
L 406.172988 145.413124 
L 397.584578 139.270918 
L 388.95568 133.1603 
L 380.28688 127.081123 
" clip-path="url(#p6bef1fc981)" style="fill: none; stroke: #1f77b4; stroke-width: 1.5"/>
    <path d="M 414.72 142.411034 
L 414.72 142.411034 
L 406.140018 136.262288 
L 397.521317 130.143681 
L 388.864481 124.055041 
L 380.169814 117.996407 
L 371.437363 111.968023 
L 362.666923 105.97034 
L 353.858042 100.004021 
L 345.010019 94.069953 
L 336.121892 88.16926 
L 327.192428 82.303327 
L 318.2201 76.473829 
L 309.20306 70.682771 
L 300.1391 64.932536 
L 291.02561 59.225946 
L 281.859511 53.566347 
L 272.637186 47.957711 
L 263.35438 42.404773 
L 261.781506 41.472 
" clip-path="url(#p6bef1fc981)" style="fill: none; stroke: #1f77b4; stroke-width: 1.5"/>
    <path d="M 414.72 133.234759 
L 414.72 133.234759 
L 406.110805 127.108723 
L 397.465128 121.011282 
L 388.78329 114.942438 
L 380.065376 108.902379 
" clip-path="url(#p6bef1fc981)" style="fill: none; stroke: #1f77b4; stroke-width: 1.5"/>
    <path d="M 414.72 124.058483 
L 414.72 124.058483 
L 406.084744 117.952845 
L 397.41489 111.874493 
L 388.710551 105.823569 
L 379.971632 99.800386 
L 371.197833 93.805426 
L 362.388644 87.839354 
L 353.54335 81.903021 
L 344.661012 75.997483 
L 335.740463 70.124016 
L 326.780279 64.284148 
L 317.778766 58.479684 
L 308.73392 52.712752 
L 299.64339 46.985851 
L 290.836521 41.472 
" clip-path="url(#p6bef1fc981)" style="fill: none; stroke: #1f77b4; stroke-width: 1.5"/>
    <path d="M 414.72 114.882207 
L 414.72 114.882207 
L 406.061353 108.794989 
L 397.369709 102.733938 
L 388.645014 96.699313 
L 379.887027 90.691525 
" clip-path="url(#p6bef1fc981)" style="fill: none; stroke: #1f77b4; stroke-width: 1.5"/>
    <path d="M 414.72 105.705931 
L 414.72 105.705931 
L 406.040242 99.635428 
L 397.328859 93.590131 
L 388.585663 87.570391 
L 379.81029 81.576705 
L 371.002206 75.609723 
L 362.160696 69.670256 
L 353.284857 63.759289 
L 344.373588 57.878 
L 335.425571 52.027777 
L 326.439249 46.21025 
L 319.082861 41.472 
" clip-path="url(#p6bef1fc981)" style="fill: none; stroke: #1f77b4; stroke-width: 1.5"/>
    <path d="M 414.72 96.529655 
L 414.72 96.529655 
L 406.021093 90.474389 
L 397.291749 84.443494 
L 388.531664 78.437402 
L 379.740375 72.456679 
" clip-path="url(#p6bef1fc981)" style="fill: none; stroke: #1f77b4; stroke-width: 1.5"/>
    <path d="M 414.72 87.353379 
L 414.72 87.353379 
L 406.003647 81.312058 
L 397.257888 75.294382 
L 388.482326 69.300847 
L 379.676414 63.33208 
L 370.839454 57.38885 
L 361.970585 51.472073 
L 353.068772 45.582833 
L 346.82847 41.472 
" clip-path="url(#p6bef1fc981)" style="fill: none; stroke: #1f77b4; stroke-width: 1.5"/>
    <path d="M 414.72 78.177103 
L 414.72 78.177103 
L 405.987685 72.148594 
L 397.226868 66.143091 
L 388.437071 60.161148 
L 379.617679 54.203443 
" clip-path="url(#p6bef1fc981)" style="fill: none; stroke: #1f77b4; stroke-width: 1.5"/>
    <path d="M 414.72 69.000828 
L 414.72 69.000828 
L 405.973027 62.984128 
L 397.198347 56.989872 
L 388.395416 51.018663 
L 379.563556 45.071221 
L 374.198991 41.472 
" clip-path="url(#p6bef1fc981)" style="fill: none; stroke: #1f77b4; stroke-width: 1.5"/>
    <path d="M 414.72 59.824552 
L 414.72 59.824552 
L 405.95952 53.818773 
L 397.172035 47.834941 
L 388.356946 41.873698 
L 387.760852 41.472 
" clip-path="url(#p6bef1fc981)" style="fill: none; stroke: #1f77b4; stroke-width: 1.5"/>
    <path d="M 306.688946 58.512989 
L 297.596858 52.787465 
L 288.4552 47.105949 
L 279.26069 41.472 
L 279.26069 41.472 
" clip-path="url(#p6bef1fc981)" style="fill: none; stroke: #1f77b4; stroke-width: 1.5"/>
    <path d="M 225.155048 77.992839 
L 215.531586 72.772144 
L 205.79433 67.670103 
L 195.928128 62.707754 
L 185.914076 57.913048 
L 175.728396 53.324125 
L 165.341008 48.994733 
L 154.714031 45.003665 
L 143.801379 41.472 
L 143.801379 41.472 
" clip-path="url(#p6bef1fc981)" style="fill: none; stroke: #1f77b4; stroke-width: 1.5"/>
    <path d="M 57.6 41.472 
L 57.6 41.472 
L 57.689052 50.342133 
L 57.761919 59.21233 
L 57.821566 68.08258 
L 57.870409 76.952872 
L 57.910423 85.823199 
L 57.943217 94.693554 
L 57.970086 103.563924 
L 57.992087 112.434299 
L 58.010098 121.304672 
L 58.024852 130.175044 
L 58.036943 139.045415 
" clip-path="url(#p6bef1fc981)" style="fill: none; stroke: #1f77b4; stroke-width: 1.5"/>
    <path d="M 192.068444 302.439101 
L 200.883634 300.995795 
L 207.604412 299.362547 
L 212.724589 297.533837 
L 216.618753 295.453692 
L 219.580099 292.906779 
L 221.545104 289.427022 
L 221.853186 285.712369 
L 221.853186 285.712369 
L 220.589303 281.209538 
L 220.589303 281.209538 
L 217.342222 275.679126 
L 217.342222 275.679126 
L 210.911706 268.238916 
L 203.382156 261.378841 
L 195.17644 254.958832 
L 186.473595 248.911423 
L 177.35463 243.214116 
L 167.8503 237.878369 
L 157.959017 232.950143 
L 147.653915 228.521712 
L 137.102289 224.825216 
L 127.762324 222.390226 
L 119.453435 221.043017 
L 111.947526 220.667517 
L 104.967191 221.249087 
L 98.181427 222.96645 
L 91.497582 226.215575 
L 86.017643 230.546968 
L 86.017643 230.546968 
L 80.970739 236.5808 
L 80.970739 236.5808 
L 76.415239 244.756688 
L 73.166651 253.282225 
L 70.833423 261.976403 
L 69.197887 270.759961 
L 68.186184 279.595558 
L 67.923391 287.856224 
L 68.279947 292.88962 
L 69.914483 298.407724 
L 69.914483 298.407724 
L 69.914483 298.407724 
L 71.860363 301.04588 
" clip-path="url(#p6bef1fc981)" style="fill: none; stroke: #1f77b4; stroke-width: 1.5"/>
    <path d="M 127.188497 302.770491 
L 139.045814 302.02751 
L 150.059194 300.836057 
L 158.409017 299.407533 
L 164.705317 297.789337 
L 169.428333 295.988597 
L 172.946573 293.950228 
L 175.545124 291.418448 
L 177.009699 287.891562 
L 176.702167 284.262821 
L 176.702167 284.262821 
L 174.652435 279.900651 
L 174.652435 279.900651 
L 170.367373 274.646187 
L 170.367373 274.646187 
L 162.586403 267.966015 
L 153.659864 262.11951 
L 143.954407 257.095315 
L 134.804705 253.422958 
L 126.444122 250.984732 
L 118.860035 249.632223 
L 111.908767 249.260319 
L 105.349647 249.873169 
L 98.888509 251.695079 
L 92.567288 255.141454 
L 87.557392 259.630978 
L 87.557392 259.630978 
L 82.394045 267.152724 
L 79.097631 275.265716 
L 77.566111 282.322277 
L 77.287736 287.793515 
L 77.866529 291.926342 
L 79.223515 295.222518 
L 82.228966 298.407724 
L 82.228966 298.407724 
L 82.228966 298.407724 
L 86.597473 300.519472 
L 90.978776 301.620446 
L 96.985169 302.431252 
L 105.463165 302.936073 
" clip-path="url(#p6bef1fc981)" style="fill: none; stroke: #1f77b4; stroke-width: 1.5"/>
    <path d="M 230.002759 298.407724 
L 230.002759 298.407724 
L 230.002759 298.407724 
L 235.565542 295.611427 
L 235.565542 295.611427 
L 238.915927 292.512051 
L 240.621946 288.765071 
L 240.674993 285.089918 
L 239.513525 281.125953 
L 237.043891 276.548578 
L 232.97154 271.136266 
L 226.896726 264.697764 
L 219.300106 257.875502 
L 211.16006 251.407357 
L 202.610383 245.238313 
L 193.71791 239.343965 
L 184.513588 233.721646 
L 175.005193 228.388052 
L 165.182408 223.381764 
L 155.018305 218.771436 
L 144.469737 214.673673 
L 133.482475 211.289749 
L 122.023549 208.981044 
L 122.023549 208.981044 
L 113.218905 208.311298 
L 113.218905 208.311298 
L 105.63275 208.779622 
L 98.305905 210.497722 
L 92.392023 213.130731 
L 87.464799 216.519154 
L 83.17347 220.716024 
L 79.337801 225.867403 
L 75.877724 232.178213 
L 72.771925 239.907535 
" clip-path="url(#p6bef1fc981)" style="fill: none; stroke: #1f77b4; stroke-width: 1.5"/>
    <path d="M 242.317241 298.407724 
L 242.317241 298.407724 
L 242.317241 298.407724 
L 247.755218 295.587681 
L 247.755218 295.587681 
L 251.022287 292.45705 
L 252.655473 288.707542 
L 252.683067 285.001114 
L 251.502476 280.973606 
L 249.008094 276.306512 
L 244.900326 270.770959 
L 238.772797 264.161277 
" clip-path="url(#p6bef1fc981)" style="fill: none; stroke: #1f77b4; stroke-width: 1.5"/>
    <path d="M 254.631724 298.407724 
L 254.631724 298.407724 
L 254.631724 298.407724 
L 259.965795 295.566909 
L 259.965795 295.566909 
L 263.162655 292.408893 
L 264.735196 288.655999 
L 264.74073 284.920552 
L 263.542972 280.836624 
L 261.026297 276.089544 
L 256.887074 270.444998 
L 250.712375 263.683358 
L 243.306251 256.744508 
L 235.402377 250.114838 
L 227.130404 243.738225 
L 218.560187 237.583649 
L 209.730108 231.636299 
L 200.659408 225.89349 
L 191.353917 220.363322 
L 181.808496 215.065419 
L 172.007638 210.033835 
L 161.924825 205.323108 
L 151.521225 201.019992 
L 140.745753 197.266205 
L 129.54465 194.304174 
L 117.915163 192.566457 
L 117.915163 192.566457 
L 109.568758 192.439721 
L 101.24712 193.640653 
L 94.603951 195.913343 
L 89.210806 198.971226 
L 84.608108 202.791332 
L 80.538099 207.482588 
" clip-path="url(#p6bef1fc981)" style="fill: none; stroke: #1f77b4; stroke-width: 1.5"/>
    <path d="M 265.421403 302.162713 
L 272.388455 300.658749 
L 279.26069 298.407724 
L 279.26069 298.407724 
L 279.26069 298.407724 
L 284.431782 295.532234 
L 284.431782 295.532234 
L 287.516848 292.328646 
L 288.994018 288.568206 
L 288.963892 284.782163 
L 287.737163 280.602348 
L 285.182858 275.720559 
L 280.990285 269.891237 
L 274.7363 262.873252 
L 267.471372 255.851224 
L 259.740122 249.108967 
L 251.667927 242.59132 
L 243.325129 236.265203 
L 234.753222 230.111246 
L 225.976592 224.119532 
L 217.008336 218.287472 
L 207.853181 212.618995 
L 198.508885 207.124702 
L 188.966616 201.822975 
L 179.210593 196.74233 
L 169.217081 191.925679 
L 158.952816 187.43801 
L 148.3735 183.380591 
L 137.42523 179.918308 
L 126.060978 177.334331 
L 126.060978 177.334331 
L 116.373074 176.196721 
L 116.373074 176.196721 
L 108.134551 176.272619 
L 100.000959 177.659938 
L 93.502333 180.06582 
L 88.197141 183.23904 
L 83.649584 187.179056 
L 79.619597 192.004902 
L 75.990522 197.900714 
L 72.714025 205.106093 
L 69.840876 213.705977 
L 67.670883 222.423909 
" clip-path="url(#p6bef1fc981)" style="fill: none; stroke: #1f77b4; stroke-width: 1.5"/>
    <path d="M 290.382078 302.187521 
L 297.189007 300.672205 
L 303.889655 298.407724 
L 303.889655 298.407724 
L 303.889655 298.407724 
L 308.939019 295.504265 
L 308.939019 295.504265 
L 311.938948 292.264604 
L 313.344744 288.495611 
L 313.28622 284.666937 
L 312.035564 280.409134 
L 309.449867 275.416874 
L 305.212874 269.436496 
L 298.893699 262.210092 
L 291.737129 255.126023 
L 284.137034 248.301145 
L 276.214918 241.681786 
L 268.040662 235.234426 
L 259.65702 228.937873 
L 251.090832 222.779117 
L 242.358724 216.751059 
L 233.470158 210.851314 
L 224.429101 205.08168 
L 215.234864 199.44812 
L 205.882406 193.961196 
L 196.36219 188.637076 
L 186.659657 183.499289 
L 176.754256 178.581721 
L 166.618024 173.933719 
L 156.21385 169.629067 
L 145.494298 165.782635 
L 134.405175 162.582557 
L 122.911146 160.353829 
L 122.911146 160.353829 
L 113.648619 159.627756 
L 113.648619 159.627756 
L 105.720459 160.04545 
L 98.013182 161.734209 
L 91.827189 164.356755 
L 86.717823 167.72686 
L 82.299475 171.881602 
" clip-path="url(#p6bef1fc981)" style="fill: none; stroke: #1f77b4; stroke-width: 1.5"/>
    <path d="M 316.204138 298.407724 
L 316.204138 298.407724 
L 316.204138 298.407724 
L 321.203426 295.49228 
L 321.203426 295.49228 
L 324.168043 292.23716 
L 325.544565 288.464054 
L 325.474064 284.616264 
L 324.212937 280.324228 
L 321.613827 275.284523 
L 317.357988 269.239326 
L 311.010633 261.922816 
L 303.899319 254.813285 
" clip-path="url(#p6bef1fc981)" style="fill: none; stroke: #1f77b4; stroke-width: 1.5"/>
    <path d="M 328.518621 298.407724 
L 328.518621 298.407724 
L 328.518621 298.407724 
L 333.473417 295.481388 
L 333.473417 295.481388 
L 336.406525 292.212208 
L 337.757017 288.435087 
L 337.67565 284.569663 
L 336.404877 280.246364 
L 333.793495 275.163414 
L 329.520171 269.058645 
L 323.147324 261.660092 
L 316.076534 254.52798 
L 308.579423 247.639925 
L 300.774083 240.943813 
L 292.72962 234.406293 
L 284.489231 228.005463 
L 276.080979 221.72688 
L 267.523331 215.561312 
L 258.828219 209.503432 
L 250.002785 203.551097 
L 241.050398 197.704983 
L 231.971199 191.968516 
L 222.76233 186.348045 
L 213.417914 180.853292 
L 203.928788 175.498161 
L 194.281993 170.302039 
L 184.459956 165.291905 
L 174.439319 160.505786 
L 164.189368 155.99859 
L 153.670329 151.852392 
L 142.832796 148.195626 
L 131.624137 145.240416 
L 120.025607 143.355105 
L 120.025607 143.355105 
L 111.131726 142.993148 
L 111.131726 142.993148 
L 103.496199 143.722204 
L 96.18554 145.677305 
L 90.283238 148.499357 
L 85.353407 152.061483 
L 81.057741 156.431427 
L 77.221398 161.761167 
L 73.762695 168.26029 
L 70.651881 176.195633 
L 68.137183 184.860087 
" clip-path="url(#p6bef1fc981)" style="fill: none; stroke: #1f77b4; stroke-width: 1.5"/>
    <path d="M 340.833103 298.407724 
L 340.833103 298.407724 
L 340.833103 298.407724 
L 345.748116 295.471442 
L 345.748116 295.471442 
L 348.652931 292.189419 
L 349.980125 288.408407 
L 349.888853 284.526673 
L 348.6093 280.174719 
L 345.986314 275.051565 
L 341.696415 268.891616 
L 335.300721 261.418661 
L 328.266401 254.266403 
L 320.812853 247.35206 
L 313.056656 240.624254 
L 305.066473 234.049825 
L 296.885558 227.606725 
L 288.542333 221.280111 
L 280.055848 215.060117 
L 271.438818 208.940545 
L 262.699387 202.918101 
L 253.842178 196.99196 
L 244.868906 191.163587 
" clip-path="url(#p6bef1fc981)" style="fill: none; stroke: #1f77b4; stroke-width: 1.5"/>
    <path d="M 353.147586 298.407724 
L 353.147586 298.407724 
L 353.147586 298.407724 
L 358.026999 295.462176 
L 358.026999 295.462176 
L 360.90619 292.168356 
L 362.212333 288.383595 
L 362.112046 284.486787 
L 360.824462 280.108706 
L 358.19075 274.948433 
L 353.88629 268.738464 
L 347.519426 261.251604 
L 340.521864 254.079241 
L 333.110232 247.139859 
L 325.400194 240.382608 
L 317.460216 233.774451 
L 309.333689 227.29321 
L 301.049374 220.92372 
L 292.626809 214.655631 
L 284.079342 208.482086 
L 275.415904 202.398935 
L 266.642091 196.404253 
L 257.7608 190.498104 
L 248.772619 184.682449 
L 239.675995 178.96121 
L 230.467266 173.340481 
L 221.140534 167.828918 
L 211.6874 162.438363 
L 202.09652 157.184815 
L 192.352946 152.089933 
L 182.437195 147.183397 
L 172.323963 142.506775 
L 161.980513 138.120047 
L 151.365073 134.113245 
L 140.427083 130.628247 
L 129.117089 127.901336 
L 117.437428 126.344181 
L 117.437428 126.344181 
L 108.876105 126.302021 
L 100.349978 127.590329 
L 93.567102 129.937666 
L 88.080917 133.058485 
L 83.418509 136.928887 
L 79.312203 141.655604 
L 75.628807 147.413681 
L 72.309792 154.432623 
L 69.337729 163.004295 
" clip-path="url(#p6bef1fc981)" style="fill: none; stroke: #1f77b4; stroke-width: 1.5"/>
    <path d="M 365.462069 298.407724 
L 365.462069 298.407724 
L 365.462069 298.407724 
L 370.309286 295.453652 
L 370.309286 295.453652 
L 373.16523 292.148972 
L 374.452319 288.360608 
L 374.343766 284.449799 
L 373.048744 280.047655 
L 370.405308 274.853156 
L 366.087035 268.596658 
L 359.746389 261.097237 
L 352.782212 253.90676 
L 345.40856 246.94489 
L 337.740243 240.16129 
L 329.845494 233.523078 
L 321.767791 227.008003 
L 313.536147 220.600678 
L 305.170477 214.290394 
L 296.684617 208.069806 
L 288.088108 201.934124 
L 279.387283 195.880621 
L 270.585942 189.908342 
L 261.685768 184.017954 
L 252.68656 178.211733 
L 243.58632 172.493643 
" clip-path="url(#p6bef1fc981)" style="fill: none; stroke: #1f77b4; stroke-width: 1.5"/>
    <path d="M 377.776552 298.407724 
L 377.776552 298.407724 
L 377.776552 298.407724 
L 382.59451 295.445784 
L 382.59451 295.445784 
L 385.429267 292.131074 
L 386.699038 288.339272 
L 386.582882 284.415429 
L 385.28093 279.99098 
L 382.628443 274.764844 
L 378.297549 268.465308 
L 371.980855 260.954472 
L 365.04713 253.747585 
L 357.708058 246.765406 
L 350.077629 239.958088 
L 342.223848 233.292918 
L 334.190228 226.747623 
L 326.005965 220.306659 
L 317.691268 213.959053 
L 309.260359 207.697088 
L 300.723252 201.515498 
" clip-path="url(#p6bef1fc981)" style="fill: none; stroke: #1f77b4; stroke-width: 1.5"/>
    <path d="M 390.091034 298.407724 
L 390.091034 298.407724 
L 390.091034 298.407724 
L 394.882286 295.4385 
L 394.882286 295.4385 
L 397.697655 292.114499 
L 398.951653 288.319477 
L 398.828592 284.383525 
L 397.520227 279.938042 
L 394.859356 274.682741 
L 390.516738 268.343282 
L 384.222052 260.822021 
L 377.316234 253.600198 
L 370.008784 246.599584 
L 362.412918 239.770805 
L 354.596419 233.08132 
L 346.602798 226.508867 
" clip-path="url(#p6bef1fc981)" style="fill: none; stroke: #1f77b4; stroke-width: 1.5"/>
    <path d="M 300.657848 78.764962 
L 291.56729 73.0381 
L 282.423224 67.358748 
L 273.222155 61.730763 
L 263.959952 56.158758 
L 254.631724 50.648276 
L 245.231684 45.206008 
L 238.713161 41.472 
" clip-path="url(#p6bef1fc981)" style="fill: none; stroke: #1f77b4; stroke-width: 1.5"/>
    <path d="M 129.91711 293.529007 
L 133.176367 291.971966 
L 135.460278 290.062009 
L 136.668785 287.367095 
L 136.139315 284.558625 
L 136.139315 284.558625 
L 133.751153 281.35556 
L 133.751153 281.35556 
L 128.736694 277.771045 
L 122.989208 275.305351 
L 117.255886 273.944929 
L 111.766699 273.604902 
L 106.530937 274.295161 
L 101.675183 276.141388 
L 97.72908 279.068214 
L 95.221239 282.503898 
L 94.177562 285.803111 
L 94.543448 289.231448 
L 94.543448 289.231448 
L 94.543448 289.231448 
L 94.543448 289.231448 
L 96.479193 292.07585 
" clip-path="url(#p6bef1fc981)" style="fill: none; stroke: #1f77b4; stroke-width: 1.5"/>
    <path d="M 154.025375 292.12973 
L 156.115862 289.231448 
L 156.115862 289.231448 
L 156.115862 289.231448 
L 156.472884 285.580167 
L 155.331991 282.471113 
L 152.927213 279.086435 
L 149.012019 275.326875 
L 143.325333 271.278364 
L 135.819086 267.283914 
L 126.949857 263.982644 
L 117.766783 262.088034 
L 117.766783 262.088034 
L 110.782018 261.82309 
L 103.879143 262.857822 
L 98.323913 264.962773 
L 93.84235 267.866691 
L 90.128872 271.546867 
" clip-path="url(#p6bef1fc981)" style="fill: none; stroke: #1f77b4; stroke-width: 1.5"/>
    <path d="M 166.505137 292.22745 
L 168.430345 289.231448 
L 168.430345 289.231448 
L 168.430345 289.231448 
L 168.71578 285.377184 
L 167.546682 282.054662 
L 165.092981 278.351369 
L 161.095711 274.153543 
L 155.248345 269.472573 
L 147.383056 264.538607 
L 137.74116 259.895718 
" clip-path="url(#p6bef1fc981)" style="fill: none; stroke: #1f77b4; stroke-width: 1.5"/>
    <path d="M 191.322319 292.351427 
L 193.05931 289.231448 
L 193.05931 289.231448 
L 193.05931 289.231448 
L 193.26336 285.093752 
L 192.058941 281.473586 
L 189.543984 277.327964 
L 185.44421 272.521733 
L 179.399627 266.964979 
L 171.097345 260.717871 
L 162.01951 254.991202 
L 152.343307 249.837325 
L 142.092848 245.34689 
L 131.246246 241.733991 
L 131.246246 241.733991 
L 121.634561 239.670569 
L 121.634561 239.670569 
L 113.339159 238.968846 
L 104.930589 239.62318 
L 98.189147 241.498282 
L 92.780211 244.224929 
" clip-path="url(#p6bef1fc981)" style="fill: none; stroke: #1f77b4; stroke-width: 1.5"/>
    <path d="M 203.6952 292.394168 
L 205.373793 289.231448 
L 205.373793 289.231448 
L 205.373793 289.231448 
L 205.552324 284.990868 
L 204.336085 281.262852 
L 201.800869 276.957018 
L 197.666924 271.930697 
L 191.556784 266.057783 
L 183.440785 259.579687 
" clip-path="url(#p6bef1fc981)" style="fill: none; stroke: #1f77b4; stroke-width: 1.5"/>
    <path d="M 235.49539 161.799531 
L 226.170091 156.286545 
L 216.729489 150.883715 
L 207.16305 145.605361 
L 197.457171 140.470513 
L 187.594374 135.50481 
L 177.552206 130.743496 
L 167.301783 126.236395 
L 156.806121 122.056534 
L 146.019117 118.315807 
L 134.888953 115.195038 
L 125.124763 113.245668 
L 116.515192 112.326095 
L 108.77131 112.342211 
L 101.579616 113.312972 
L 94.593693 115.467353 
L 87.756126 119.237894 
L 82.228966 124.058483 
L 82.228966 124.058483 
L 82.228966 124.058483 
" clip-path="url(#p6bef1fc981)" style="fill: none; stroke: #1f77b4; stroke-width: 1.5"/>
    <path d="M 131.486897 69.000828 
L 119.859152 67.210712 
L 119.859152 67.210712 
L 110.816789 66.889804 
L 110.816789 66.889804 
L 103.075101 67.652103 
L 95.659006 69.644006 
L 89.688055 72.498418 
" clip-path="url(#p6bef1fc981)" style="fill: none; stroke: #1f77b4; stroke-width: 1.5"/>
    <path d="M 187.605771 125.599226 
L 177.543229 120.861829 
L 167.27479 116.377524 
L 156.763509 112.219469 
L 145.963462 108.499634 
L 134.823226 105.398751 
L 125.043539 103.463737 
L 116.422356 102.556825 
L 108.669769 102.584528 
L 101.473163 103.566151 
L 94.543448 105.705931 
L 94.543448 105.705931 
L 94.543448 105.705931 
L 88.876128 108.672686 
" clip-path="url(#p6bef1fc981)" style="fill: none; stroke: #1f77b4; stroke-width: 1.5"/>
    <path d="M 133.703805 169.343826 
L 124.280102 167.460441 
L 115.930038 166.598522 
L 108.374173 166.673872 
L 101.303541 167.724231 
L 94.543448 169.939862 
L 94.543448 169.939862 
L 94.543448 169.939862 
L 88.973998 173.005908 
" clip-path="url(#p6bef1fc981)" style="fill: none; stroke: #1f77b4; stroke-width: 1.5"/>
    <path d="M 170.198847 249.724238 
L 160.647944 244.437562 
L 150.628151 239.659659 
L 140.112982 235.522583 
L 130.617768 232.653847 
L 122.155213 230.928636 
L 114.535682 230.209198 
L 107.51256 230.440503 
L 100.801061 231.717554 
L 94.543448 234.173793 
L 94.543448 234.173793 
L 94.543448 234.173793 
L 89.297077 237.554687 
" clip-path="url(#p6bef1fc981)" style="fill: none; stroke: #1f77b4; stroke-width: 1.5"/>
    <path d="M 303.441008 100.96511 
L 294.402629 95.192575 
L 285.309553 89.467947 
L 276.158661 83.794719 
L 266.946207 78.177103 
L 257.667722 72.620181 
" clip-path="url(#p6bef1fc981)" style="fill: none; stroke: #1f77b4; stroke-width: 1.5"/>
    <path d="M 144.289115 138.583277 
L 133.387275 135.60483 
L 123.862169 133.795837 
L 115.501424 133.003247 
L 106.857931 133.234759 
L 106.857931 133.234759 
L 106.857931 133.234759 
" clip-path="url(#p6bef1fc981)" style="fill: none; stroke: #1f77b4; stroke-width: 1.5"/>
    <path d="M 154.725271 160.652135 
L 143.937723 156.91429 
L 133.158477 153.942644 
L 123.727242 152.138439 
L 115.43532 151.349887 
L 106.857931 151.58731 
L 106.857931 151.58731 
L 106.857931 151.58731 
" clip-path="url(#p6bef1fc981)" style="fill: none; stroke: #1f77b4; stroke-width: 1.5"/>
    <path d="M 288.407558 115.409676 
L 279.32472 109.676048 
L 270.178634 103.998538 
L 260.965378 98.381677 
L 251.680177 92.831016 
L 242.317241 87.353379 
" clip-path="url(#p6bef1fc981)" style="fill: none; stroke: #1f77b4; stroke-width: 1.5"/>
    <path d="M 346.271265 108.350652 
L 337.416364 102.422289 
L 328.518621 96.529655 
L 319.57672 90.674258 
L 310.589003 84.857946 
" clip-path="url(#p6bef1fc981)" style="fill: none; stroke: #1f77b4; stroke-width: 1.5"/>
    <path d="M 266.946207 243.350069 
L 258.750459 236.918037 
L 250.330723 230.648409 
L 241.715634 224.527758 
L 232.922346 218.5494 
L 223.959961 212.712123 
L 214.83134 207.019716 
" clip-path="url(#p6bef1fc981)" style="fill: none; stroke: #1f77b4; stroke-width: 1.5"/>
    <path d="M 291.575172 243.350069 
L 283.544127 236.803567 
L 275.299858 230.405629 
L 266.874028 224.140238 
L 258.287042 217.997442 
L 249.55174 211.97183 
L 240.675457 206.06171 
L 231.661175 200.26874 
" clip-path="url(#p6bef1fc981)" style="fill: none; stroke: #1f77b4; stroke-width: 1.5"/>
    <path d="M 291.575172 188.292414 
L 282.79108 182.305991 
L 273.920228 176.391034 
L 264.962396 170.549328 
L 255.915993 164.783924 
L 246.778039 159.099281 
L 237.544075 153.501485 
L 228.207994 147.998601 
L 218.761767 142.601185 
L 209.195056 137.323039 
L 199.494669 132.182343 
" clip-path="url(#p6bef1fc981)" style="fill: none; stroke: #1f77b4; stroke-width: 1.5"/>
    <path d="M 284.648468 190.978322 
L 275.843352 185.009098 
L 266.946207 179.116138 
L 257.95662 173.301611 
L 248.87258 167.569196 
" clip-path="url(#p6bef1fc981)" style="fill: none; stroke: #1f77b4; stroke-width: 1.5"/>
   </g>
   <g id="patch_3">
    <path d="M 131.423581 307.303478 
Q 132.397478 307.304426 131.694326 307.303741 
" clip-path="url(#p6bef1fc981)" style="fill: none; stroke: #1f77b4; stroke-width: 1.5; stroke-linecap: round"/>
    <path d="M 127.696276 305.299846 
L 131.694326 307.303741 
L 127.69238 309.299845 
z
" clip-path="url(#p6bef1fc981)" style="fill: #1f77b4; stroke: #1f77b4; stroke-width: 1.5; stroke-linecap: round"/>
   </g>
   <g id="patch_4">
    <path d="M 233.238173 307.373062 
Q 234.212048 307.377249 233.508888 307.374226 
" clip-path="url(#p6bef1fc981)" style="fill: none; stroke: #1f77b4; stroke-width: 1.5; stroke-linecap: round"/>
    <path d="M 229.517524 305.357046 
L 233.508888 307.374226 
L 229.500326 309.357009 
z
" clip-path="url(#p6bef1fc981)" style="fill: #1f77b4; stroke: #1f77b4; stroke-width: 1.5; stroke-linecap: round"/>
   </g>
   <g id="patch_5">
    <path d="M 294.810791 307.361271 
Q 295.784664 307.365602 295.081503 307.362475 
" clip-path="url(#p6bef1fc981)" style="fill: none; stroke: #1f77b4; stroke-width: 1.5; stroke-linecap: round"/>
    <path d="M 291.090438 305.344703 
L 295.081503 307.362475 
L 291.072647 309.344664 
z
" clip-path="url(#p6bef1fc981)" style="fill: #1f77b4; stroke: #1f77b4; stroke-width: 1.5; stroke-linecap: round"/>
   </g>
   <g id="patch_6">
    <path d="M 356.383327 307.354641 
Q 357.3572 307.359034 356.654039 307.355862 
" clip-path="url(#p6bef1fc981)" style="fill: none; stroke: #1f77b4; stroke-width: 1.5; stroke-linecap: round"/>
    <path d="M 352.663102 305.337836 
L 356.654039 307.355862 
L 352.645056 309.337795 
z
" clip-path="url(#p6bef1fc981)" style="fill: #1f77b4; stroke: #1f77b4; stroke-width: 1.5; stroke-linecap: round"/>
   </g>
   <g id="patch_7">
    <path d="M 170.350556 103.958674 
Q 169.594834 103.646608 170.389204 103.974633 
" clip-path="url(#p6bef1fc981)" style="fill: none; stroke: #1f77b4; stroke-width: 1.5; stroke-linecap: round"/>
    <path d="M 173.323036 107.34993 
L 170.389204 103.974633 
L 174.849741 103.652746 
z
" clip-path="url(#p6bef1fc981)" style="fill: #1f77b4; stroke: #1f77b4; stroke-width: 1.5; stroke-linecap: round"/>
   </g>
   <g id="patch_8">
    <path d="M 262.05016 138.579193 
Q 261.460686 138.215594 262.298573 138.732418 
" clip-path="url(#p6bef1fc981)" style="fill: none; stroke: #1f77b4; stroke-width: 1.5; stroke-linecap: round"/>
    <path d="M 264.653062 142.534573 
L 262.298573 138.732418 
L 266.75299 139.13012 
z
" clip-path="url(#p6bef1fc981)" style="fill: #1f77b4; stroke: #1f77b4; stroke-width: 1.5; stroke-linecap: round"/>
   </g>
   <g id="patch_9">
    <path d="M 268.004303 128.158362 
Q 267.415519 127.794142 268.25296 128.31218 
" clip-path="url(#p6bef1fc981)" style="fill: none; stroke: #1f77b4; stroke-width: 1.5; stroke-linecap: round"/>
    <path d="M 270.602555 132.117361 
L 268.25296 128.31218 
L 272.706862 128.715613 
z
" clip-path="url(#p6bef1fc981)" style="fill: #1f77b4; stroke: #1f77b4; stroke-width: 1.5; stroke-linecap: round"/>
   </g>
   <g id="patch_10">
    <path d="M 405.190758 217.156131 
Q 404.725931 216.781956 405.567484 217.459386 
" clip-path="url(#p6bef1fc981)" style="fill: none; stroke: #1f77b4; stroke-width: 1.5; stroke-linecap: round"/>
    <path d="M 407.429268 221.525558 
L 405.567484 217.459386 
L 409.937493 218.409662 
z
" clip-path="url(#p6bef1fc981)" style="fill: #1f77b4; stroke: #1f77b4; stroke-width: 1.5; stroke-linecap: round"/>
   </g>
   <g id="patch_11">
    <path d="M 247.385208 100.248068 
Q 246.768633 99.887868 247.600117 100.373617 
" clip-path="url(#p6bef1fc981)" style="fill: none; stroke: #1f77b4; stroke-width: 1.5; stroke-linecap: round"/>
    <path d="M 250.045082 104.118232 
L 247.600117 100.373617 
L 252.062788 100.664414 
z
" clip-path="url(#p6bef1fc981)" style="fill: #1f77b4; stroke: #1f77b4; stroke-width: 1.5; stroke-linecap: round"/>
   </g>
   <g id="patch_12">
    <path d="M 371.348284 173.868022 
Q 370.834391 173.496467 371.679534 174.107522 
" clip-path="url(#p6bef1fc981)" style="fill: none; stroke: #1f77b4; stroke-width: 1.5; stroke-linecap: round"/>
    <path d="M 373.749193 178.071927 
L 371.679534 174.107522 
L 376.092854 174.830438 
z
" clip-path="url(#p6bef1fc981)" style="fill: #1f77b4; stroke: #1f77b4; stroke-width: 1.5; stroke-linecap: round"/>
   </g>
   <g id="patch_13">
    <path d="M 388.041856 177.330609 
Q 387.535191 176.958585 388.380311 177.579124 
" clip-path="url(#p6bef1fc981)" style="fill: none; stroke: #1f77b4; stroke-width: 1.5; stroke-linecap: round"/>
    <path d="M 390.420801 181.558621 
L 388.380311 177.579124 
L 392.788203 178.33443 
z
" clip-path="url(#p6bef1fc981)" style="fill: #1f77b4; stroke: #1f77b4; stroke-width: 1.5; stroke-linecap: round"/>
   </g>
   <g id="patch_14">
    <path d="M 309.260674 114.097969 
Q 308.693807 113.729841 309.533433 114.2751 
" clip-path="url(#p6bef1fc981)" style="fill: none; stroke: #1f77b4; stroke-width: 1.5; stroke-linecap: round"/>
    <path d="M 311.798842 118.130995 
L 309.533433 114.2751 
L 313.977394 114.77631 
z
" clip-path="url(#p6bef1fc981)" style="fill: #1f77b4; stroke: #1f77b4; stroke-width: 1.5; stroke-linecap: round"/>
   </g>
   <g id="patch_15">
    <path d="M 387.686104 159.248959 
Q 387.167994 158.876786 388.011947 159.483021 
" clip-path="url(#p6bef1fc981)" style="fill: none; stroke: #1f77b4; stroke-width: 1.5; stroke-linecap: round"/>
    <path d="M 390.093838 163.441016 
L 388.011947 159.483021 
L 392.427478 160.192305 
z
" clip-path="url(#p6bef1fc981)" style="fill: #1f77b4; stroke: #1f77b4; stroke-width: 1.5; stroke-linecap: round"/>
   </g>
   <g id="patch_16">
    <path d="M 317.40921 102.222825 
Q 316.84289 101.854229 317.682129 102.400457 
" clip-path="url(#p6bef1fc981)" style="fill: none; stroke: #1f77b4; stroke-width: 1.5; stroke-linecap: round"/>
    <path d="M 319.943594 106.258666 
L 317.682129 102.400457 
L 322.125576 102.906211 
z
" clip-path="url(#p6bef1fc981)" style="fill: #1f77b4; stroke: #1f77b4; stroke-width: 1.5; stroke-linecap: round"/>
   </g>
   <g id="patch_17">
    <path d="M 387.42411 141.10232 
Q 386.898348 140.730994 387.742437 141.327143 
" clip-path="url(#p6bef1fc981)" style="fill: none; stroke: #1f77b4; stroke-width: 1.5; stroke-linecap: round"/>
    <path d="M 389.85594 145.268349 
L 387.742437 141.327143 
L 392.163504 142.001064 
z
" clip-path="url(#p6bef1fc981)" style="fill: #1f77b4; stroke: #1f77b4; stroke-width: 1.5; stroke-linecap: round"/>
   </g>
   <g id="patch_18">
    <path d="M 395.951913 138.114734 
Q 395.426818 137.742884 396.270351 138.340238 
" clip-path="url(#p6bef1fc981)" style="fill: none; stroke: #1f77b4; stroke-width: 1.5; stroke-linecap: round"/>
    <path d="M 398.378876 142.284109 
L 396.270351 138.340238 
L 400.690563 139.01974 
z
" clip-path="url(#p6bef1fc981)" style="fill: #1f77b4; stroke: #1f77b4; stroke-width: 1.5; stroke-linecap: round"/>
   </g>
   <g id="patch_19">
    <path d="M 343.345665 92.965014 
Q 342.787823 92.594671 343.627163 93.151896 
" clip-path="url(#p6bef1fc981)" style="fill: none; stroke: #1f77b4; stroke-width: 1.5; stroke-linecap: round"/>
    <path d="M 345.853447 97.030511 
L 343.627163 93.151896 
L 348.065826 93.698038 
z
" clip-path="url(#p6bef1fc981)" style="fill: #1f77b4; stroke: #1f77b4; stroke-width: 1.5; stroke-linecap: round"/>
   </g>
   <g id="patch_20">
    <path d="M 395.826685 119.865965 
Q 395.294899 119.494232 396.137635 120.083327 
" clip-path="url(#p6bef1fc981)" style="fill: none; stroke: #1f77b4; stroke-width: 1.5; stroke-linecap: round"/>
    <path d="M 398.270205 124.014249 
L 396.137635 120.083327 
L 400.561914 120.735824 
z
" clip-path="url(#p6bef1fc981)" style="fill: #1f77b4; stroke: #1f77b4; stroke-width: 1.5; stroke-linecap: round"/>
   </g>
   <g id="patch_21">
    <path d="M 360.727992 86.724842 
Q 360.176402 86.354655 361.017329 86.919025 
" clip-path="url(#p6bef1fc981)" style="fill: none; stroke: #1f77b4; stroke-width: 1.5; stroke-linecap: round"/>
    <path d="M 363.224148 90.808748 
L 361.017329 86.919025 
L 365.453199 87.487403 
z
" clip-path="url(#p6bef1fc981)" style="fill: #1f77b4; stroke: #1f77b4; stroke-width: 1.5; stroke-linecap: round"/>
   </g>
   <g id="patch_22">
    <path d="M 404.42106 107.651143 
Q 403.888673 107.279887 404.731895 107.867902 
" clip-path="url(#p6bef1fc981)" style="fill: none; stroke: #1f77b4; stroke-width: 1.5; stroke-linecap: round"/>
    <path d="M 406.868918 111.796404 
L 404.731895 107.867902 
L 409.156911 108.515385 
z
" clip-path="url(#p6bef1fc981)" style="fill: #1f77b4; stroke: #1f77b4; stroke-width: 1.5; stroke-linecap: round"/>
   </g>
   <g id="patch_23">
    <path d="M 369.342264 74.494623 
Q 368.79091 74.12424 369.631659 74.68903 
" clip-path="url(#p6bef1fc981)" style="fill: none; stroke: #1f77b4; stroke-width: 1.5; stroke-linecap: round"/>
    <path d="M 371.836758 78.579729 
L 369.631659 74.68903 
L 374.067278 75.25937 
z
" clip-path="url(#p6bef1fc981)" style="fill: #1f77b4; stroke: #1f77b4; stroke-width: 1.5; stroke-linecap: round"/>
   </g>
   <g id="patch_24">
    <path d="M 404.373685 89.336234 
Q 403.838989 88.966826 404.684075 89.550675 
" clip-path="url(#p6bef1fc981)" style="fill: none; stroke: #1f77b4; stroke-width: 1.5; stroke-linecap: round"/>
    <path d="M 406.83822 93.469815 
L 404.684075 89.550675 
L 409.111874 90.178843 
z
" clip-path="url(#p6bef1fc981)" style="fill: #1f77b4; stroke: #1f77b4; stroke-width: 1.5; stroke-linecap: round"/>
   </g>
   <g id="patch_25">
    <path d="M 386.824768 68.177331 
Q 386.279173 67.80752 387.121787 68.378655 
" clip-path="url(#p6bef1fc981)" style="fill: none; stroke: #1f77b4; stroke-width: 1.5; stroke-linecap: round"/>
    <path d="M 389.310712 72.278477 
L 387.121787 68.378655 
L 391.554999 68.967408 
z
" clip-path="url(#p6bef1fc981)" style="fill: #1f77b4; stroke: #1f77b4; stroke-width: 1.5; stroke-linecap: round"/>
   </g>
   <g id="patch_26">
    <path d="M 404.338615 71.018164 
Q 403.798482 70.647905 404.641603 71.22586 
" clip-path="url(#p6bef1fc981)" style="fill: none; stroke: #1f77b4; stroke-width: 1.5; stroke-linecap: round"/>
    <path d="M 406.810043 75.137109 
L 404.641603 71.22586 
L 409.071666 71.837857 
z
" clip-path="url(#p6bef1fc981)" style="fill: #1f77b4; stroke: #1f77b4; stroke-width: 1.5; stroke-linecap: round"/>
   </g>
   <g id="patch_27">
    <path d="M 395.54135 55.865897 
Q 394.99594 55.495935 395.838412 56.0674 
" clip-path="url(#p6bef1fc981)" style="fill: none; stroke: #1f77b4; stroke-width: 1.5; stroke-linecap: round"/>
    <path d="M 398.025982 59.967982 
L 395.838412 56.0674 
L 400.271419 56.657693 
z
" clip-path="url(#p6bef1fc981)" style="fill: #1f77b4; stroke: #1f77b4; stroke-width: 1.5; stroke-linecap: round"/>
   </g>
   <g id="patch_28">
    <path d="M 404.30543 52.692422 
Q 403.760978 52.321677 404.602711 52.894855 
" clip-path="url(#p6bef1fc981)" style="fill: none; stroke: #1f77b4; stroke-width: 1.5; stroke-linecap: round"/>
    <path d="M 406.783264 56.799364 
L 404.602711 52.894855 
L 409.03465 53.493118 
z
" clip-path="url(#p6bef1fc981)" style="fill: #1f77b4; stroke: #1f77b4; stroke-width: 1.5; stroke-linecap: round"/>
   </g>
   <g id="patch_29">
    <path d="M 295.89842 51.73189 
Q 295.310758 51.36666 296.14747 51.886674 
" clip-path="url(#p6bef1fc981)" style="fill: none; stroke: #1f77b4; stroke-width: 1.5; stroke-linecap: round"/>
    <path d="M 298.489085 55.696772 
L 296.14747 51.886674 
L 300.600517 52.299441 
z
" clip-path="url(#p6bef1fc981)" style="fill: #1f77b4; stroke: #1f77b4; stroke-width: 1.5; stroke-linecap: round"/>
   </g>
   <g id="patch_30">
    <path d="M 194.126283 61.845035 
Q 193.426715 61.510083 194.239755 61.899365 
" clip-path="url(#p6bef1fc981)" style="fill: none; stroke: #1f77b4; stroke-width: 1.5; stroke-linecap: round"/>
    <path d="M 196.983838 65.430655 
L 194.239755 61.899365 
L 198.711237 61.822873 
z
" clip-path="url(#p6bef1fc981)" style="fill: #1f77b4; stroke: #1f77b4; stroke-width: 1.5; stroke-linecap: round"/>
   </g>
   <g id="patch_31">
    <path d="M 57.917805 87.819895 
Q 57.918623 88.041358 57.913242 86.585783 
" clip-path="url(#p6bef1fc981)" style="fill: none; stroke: #1f77b4; stroke-width: 1.5; stroke-linecap: round"/>
    <path d="M 59.89844 82.578416 
L 57.913242 86.585783 
L 55.898468 82.593204 
z
" clip-path="url(#p6bef1fc981)" style="fill: #1f77b4; stroke: #1f77b4; stroke-width: 1.5; stroke-linecap: round"/>
   </g>
   <g id="patch_32">
    <path d="M 145.765648 227.860205 
Q 145.016352 227.597708 145.849794 227.889684 
" clip-path="url(#p6bef1fc981)" style="fill: none; stroke: #1f77b4; stroke-width: 1.5; stroke-linecap: round"/>
    <path d="M 148.963598 231.099703 
L 145.849794 227.889684 
L 150.286092 227.324652 
z
" clip-path="url(#p6bef1fc981)" style="fill: #1f77b4; stroke: #1f77b4; stroke-width: 1.5; stroke-linecap: round"/>
   </g>
   <g id="patch_33">
    <path d="M 132.881934 252.862213 
Q 132.712179 252.812707 134.152408 253.232726 
" clip-path="url(#p6bef1fc981)" style="fill: none; stroke: #1f77b4; stroke-width: 1.5; stroke-linecap: round"/>
    <path d="M 137.432501 256.272626 
L 134.152408 253.232726 
L 138.552383 252.432591 
z
" clip-path="url(#p6bef1fc981)" style="fill: #1f77b4; stroke: #1f77b4; stroke-width: 1.5; stroke-linecap: round"/>
   </g>
   <g id="patch_34">
    <path d="M 173.223375 227.479929 
Q 172.549477 227.13647 173.369761 227.554536 
" clip-path="url(#p6bef1fc981)" style="fill: none; stroke: #1f77b4; stroke-width: 1.5; stroke-linecap: round"/>
    <path d="M 176.02542 231.152796 
L 173.369761 227.554536 
L 177.841765 227.588965 
z
" clip-path="url(#p6bef1fc981)" style="fill: #1f77b4; stroke: #1f77b4; stroke-width: 1.5; stroke-linecap: round"/>
   </g>
   <g id="patch_35">
    <path d="M 252.121595 283.085688 
Q 252.107183 283.036524 252.564518 284.596694 
" clip-path="url(#p6bef1fc981)" style="fill: none; stroke: #1f77b4; stroke-width: 1.5; stroke-linecap: round"/>
    <path d="M 251.770457 288.99777 
L 252.564518 284.596694 
L 255.608942 287.872588 
z
" clip-path="url(#p6bef1fc981)" style="fill: #1f77b4; stroke: #1f77b4; stroke-width: 1.5; stroke-linecap: round"/>
   </g>
   <g id="patch_36">
    <path d="M 198.939619 224.871435 
Q 198.333838 224.511425 199.169734 225.008191 
" clip-path="url(#p6bef1fc981)" style="fill: none; stroke: #1f77b4; stroke-width: 1.5; stroke-linecap: round"/>
    <path d="M 201.586571 228.771022 
L 199.169734 225.008191 
L 203.630101 225.332419 
z
" clip-path="url(#p6bef1fc981)" style="fill: #1f77b4; stroke: #1f77b4; stroke-width: 1.5; stroke-linecap: round"/>
   </g>
   <g id="patch_37">
    <path d="M 196.759314 206.152632 
Q 196.123428 205.799331 196.953518 206.260533 
" clip-path="url(#p6bef1fc981)" style="fill: none; stroke: #1f77b4; stroke-width: 1.5; stroke-linecap: round"/>
    <path d="M 199.478724 209.951514 
L 196.953518 206.260533 
L 201.421426 206.454957 
z
" clip-path="url(#p6bef1fc981)" style="fill: #1f77b4; stroke: #1f77b4; stroke-width: 1.5; stroke-linecap: round"/>
   </g>
   <g id="patch_38">
    <path d="M 231.785996 209.77655 
Q 231.211244 209.409767 232.050205 209.945157 
" clip-path="url(#p6bef1fc981)" style="fill: none; stroke: #1f77b4; stroke-width: 1.5; stroke-linecap: round"/>
    <path d="M 234.346201 213.782917 
L 232.050205 209.945157 
L 236.49801 210.411016 
z
" clip-path="url(#p6bef1fc981)" style="fill: #1f77b4; stroke: #1f77b4; stroke-width: 1.5; stroke-linecap: round"/>
   </g>
   <g id="patch_39">
    <path d="M 323.29538 278.545074 
Q 323.104381 278.174725 323.682076 279.294882 
" clip-path="url(#p6bef1fc981)" style="fill: none; stroke: #1f77b4; stroke-width: 1.5; stroke-linecap: round"/>
    <path d="M 323.737986 283.766668 
L 323.682076 279.294882 
L 327.293051 281.933226 
z
" clip-path="url(#p6bef1fc981)" style="fill: #1f77b4; stroke: #1f77b4; stroke-width: 1.5; stroke-linecap: round"/>
   </g>
   <g id="patch_40">
    <path d="M 221.039909 185.335218 
Q 220.427771 184.975265 221.261273 185.465385 
" clip-path="url(#p6bef1fc981)" style="fill: none; stroke: #1f77b4; stroke-width: 1.5; stroke-linecap: round"/>
    <path d="M 223.695555 189.216954 
L 221.261273 185.465385 
L 225.723097 185.768901 
z
" clip-path="url(#p6bef1fc981)" style="fill: #1f77b4; stroke: #1f77b4; stroke-width: 1.5; stroke-linecap: round"/>
   </g>
   <g id="patch_41">
    <path d="M 311.51363 239.354631 
Q 311.059854 238.981259 311.901099 239.673447 
" clip-path="url(#p6bef1fc981)" style="fill: none; stroke: #1f77b4; stroke-width: 1.5; stroke-linecap: round"/>
    <path d="M 313.71915 243.75936 
L 311.901099 239.673447 
L 316.260661 240.670554 
z
" clip-path="url(#p6bef1fc981)" style="fill: #1f77b4; stroke: #1f77b4; stroke-width: 1.5; stroke-linecap: round"/>
   </g>
   <g id="patch_42">
    <path d="M 237.969592 177.919673 
Q 237.373868 177.556062 238.209614 178.066175 
" clip-path="url(#p6bef1fc981)" style="fill: none; stroke: #1f77b4; stroke-width: 1.5; stroke-linecap: round"/>
    <path d="M 240.581889 181.857259 
L 238.209614 178.066175 
L 242.665846 178.443005 
z
" clip-path="url(#p6bef1fc981)" style="fill: #1f77b4; stroke: #1f77b4; stroke-width: 1.5; stroke-linecap: round"/>
   </g>
   <g id="patch_43">
    <path d="M 328.28951 232.268099 
Q 327.82761 231.895552 328.671084 232.575857 
" clip-path="url(#p6bef1fc981)" style="fill: none; stroke: #1f77b4; stroke-width: 1.5; stroke-linecap: round"/>
    <path d="M 330.528988 236.643804 
L 328.671084 232.575857 
L 333.040184 233.530302 
z
" clip-path="url(#p6bef1fc981)" style="fill: #1f77b4; stroke: #1f77b4; stroke-width: 1.5; stroke-linecap: round"/>
   </g>
   <g id="patch_44">
    <path d="M 356.214014 245.432528 
Q 355.800329 245.063468 356.638072 245.810842 
" clip-path="url(#p6bef1fc981)" style="fill: none; stroke: #1f77b4; stroke-width: 1.5; stroke-linecap: round"/>
    <path d="M 358.291479 249.96611 
L 356.638072 245.810842 
L 360.95433 246.981278 
z
" clip-path="url(#p6bef1fc981)" style="fill: #1f77b4; stroke: #1f77b4; stroke-width: 1.5; stroke-linecap: round"/>
   </g>
   <g id="patch_45">
    <path d="M 382.842912 259.379772 
Q 382.497621 259.018681 383.31137 259.869666 
" clip-path="url(#p6bef1fc981)" style="fill: none; stroke: #1f77b4; stroke-width: 1.5; stroke-linecap: round"/>
    <path d="M 384.630355 264.142871 
L 383.31137 259.869666 
L 387.521325 261.378401 
z
" clip-path="url(#p6bef1fc981)" style="fill: #1f77b4; stroke: #1f77b4; stroke-width: 1.5; stroke-linecap: round"/>
   </g>
   <g id="patch_46">
    <path d="M 271.510366 60.700976 
Q 270.907402 60.338242 271.741492 60.840018 
" clip-path="url(#p6bef1fc981)" style="fill: none; stroke: #1f77b4; stroke-width: 1.5; stroke-linecap: round"/>
    <path d="M 274.138076 64.615782 
L 271.741492 60.840018 
L 276.200053 61.188209 
z
" clip-path="url(#p6bef1fc981)" style="fill: #1f77b4; stroke: #1f77b4; stroke-width: 1.5; stroke-linecap: round"/>
   </g>
   <g id="patch_47">
    <path d="M 115.259087 273.821237 
Q 114.88519 273.798076 116.185135 273.878601 
" clip-path="url(#p6bef1fc981)" style="fill: none; stroke: #1f77b4; stroke-width: 1.5; stroke-linecap: round"/>
    <path d="M 120.05383 276.122081 
L 116.185135 273.878601 
L 120.301136 272.129733 
z
" clip-path="url(#p6bef1fc981)" style="fill: #1f77b4; stroke: #1f77b4; stroke-width: 1.5; stroke-linecap: round"/>
   </g>
   <g id="patch_48">
    <path d="M 133.943903 266.585941 
Q 133.600229 266.45802 134.828261 266.915113 
" clip-path="url(#p6bef1fc981)" style="fill: none; stroke: #1f77b4; stroke-width: 1.5; stroke-linecap: round"/>
    <path d="M 137.879328 270.184822 
L 134.828261 266.915113 
L 139.274668 266.436085 
z
" clip-path="url(#p6bef1fc981)" style="fill: #1f77b4; stroke: #1f77b4; stroke-width: 1.5; stroke-linecap: round"/>
   </g>
   <g id="patch_49">
    <path d="M 159.533939 272.903303 
Q 158.852983 272.35818 159.481248 272.861123 
" clip-path="url(#p6bef1fc981)" style="fill: none; stroke: #1f77b4; stroke-width: 1.5; stroke-linecap: round"/>
    <path d="M 161.354031 276.922242 
L 159.481248 272.861123 
L 163.853813 273.799569 
z
" clip-path="url(#p6bef1fc981)" style="fill: #1f77b4; stroke: #1f77b4; stroke-width: 1.5; stroke-linecap: round"/>
   </g>
   <g id="patch_50">
    <path d="M 160.254831 254.051274 
Q 159.602029 253.703569 160.429407 254.144259 
" clip-path="url(#p6bef1fc981)" style="fill: none; stroke: #1f77b4; stroke-width: 1.5; stroke-linecap: round"/>
    <path d="M 163.019628 257.789908 
L 160.429407 254.144259 
L 164.900059 254.259472 
z
" clip-path="url(#p6bef1fc981)" style="fill: #1f77b4; stroke: #1f77b4; stroke-width: 1.5; stroke-linecap: round"/>
   </g>
   <g id="patch_51">
    <path d="M 200.531215 275.41329 
Q 200.132556 274.928574 200.799184 275.739104 
" clip-path="url(#p6bef1fc981)" style="fill: none; stroke: #1f77b4; stroke-width: 1.5; stroke-linecap: round"/>
    <path d="M 201.795372 280.098876 
L 200.799184 275.739104 
L 204.884714 277.558017 
z
" clip-path="url(#p6bef1fc981)" style="fill: #1f77b4; stroke: #1f77b4; stroke-width: 1.5; stroke-linecap: round"/>
   </g>
   <g id="patch_52">
    <path d="M 165.44403 125.496551 
Q 164.677621 125.191331 165.469255 125.506597 
" clip-path="url(#p6bef1fc981)" style="fill: none; stroke: #1f77b4; stroke-width: 1.5; stroke-linecap: round"/>
    <path d="M 168.445432 128.844615 
L 165.469255 125.506597 
L 169.925376 125.128465 
z
" clip-path="url(#p6bef1fc981)" style="fill: #1f77b4; stroke: #1f77b4; stroke-width: 1.5; stroke-linecap: round"/>
   </g>
   <g id="patch_53">
    <path d="M 108.824666 67.085962 
Q 107.885305 67.178457 108.614925 67.106614 
" clip-path="url(#p6bef1fc981)" style="fill: none; stroke: #1f77b4; stroke-width: 1.5; stroke-linecap: round"/>
    <path d="M 112.791659 68.705017 
L 108.614925 67.106614 
L 112.399688 64.724269 
z
" clip-path="url(#p6bef1fc981)" style="fill: #1f77b4; stroke: #1f77b4; stroke-width: 1.5; stroke-linecap: round"/>
   </g>
   <g id="patch_54">
    <path d="M 144.035135 107.962885 
Q 143.176255 107.723816 143.933006 107.934457 
" clip-path="url(#p6bef1fc981)" style="fill: none; stroke: #1f77b4; stroke-width: 1.5; stroke-linecap: round"/>
    <path d="M 147.250198 110.93383 
L 143.933006 107.934457 
L 148.32282 107.080328 
z
" clip-path="url(#p6bef1fc981)" style="fill: #1f77b4; stroke: #1f77b4; stroke-width: 1.5; stroke-linecap: round"/>
   </g>
   <g id="patch_55">
    <path d="M 113.926701 166.6185 
Q 113.039403 166.627348 113.829073 166.619473 
" clip-path="url(#p6bef1fc981)" style="fill: none; stroke: #1f77b4; stroke-width: 1.5; stroke-linecap: round"/>
    <path d="M 117.848818 168.579486 
L 113.829073 166.619473 
L 117.808931 164.579685 
z
" clip-path="url(#p6bef1fc981)" style="fill: #1f77b4; stroke: #1f77b4; stroke-width: 1.5; stroke-linecap: round"/>
   </g>
   <g id="patch_56">
    <path d="M 138.198176 234.944073 
Q 137.740336 234.805748 138.887877 235.152449 
" clip-path="url(#p6bef1fc981)" style="fill: none; stroke: #1f77b4; stroke-width: 1.5; stroke-linecap: round"/>
    <path d="M 142.13851 238.22383 
L 138.887877 235.152449 
L 143.295362 234.394771 
z
" clip-path="url(#p6bef1fc981)" style="fill: #1f77b4; stroke: #1f77b4; stroke-width: 1.5; stroke-linecap: round"/>
   </g>
   <g id="patch_57">
    <path d="M 283.609399 88.413913 
Q 283.021144 88.049215 283.858241 88.568185 
" clip-path="url(#p6bef1fc981)" style="fill: none; stroke: #1f77b4; stroke-width: 1.5; stroke-linecap: round"/>
    <path d="M 286.20407 92.375689 
L 283.858241 88.568185 
L 288.311741 88.976025 
z
" clip-path="url(#p6bef1fc981)" style="fill: #1f77b4; stroke: #1f77b4; stroke-width: 1.5; stroke-linecap: round"/>
   </g>
   <g id="patch_58">
    <path d="M 131.419932 135.231195 
Q 131.003653 135.152136 132.234975 135.385987 
" clip-path="url(#p6bef1fc981)" style="fill: none; stroke: #1f77b4; stroke-width: 1.5; stroke-linecap: round"/>
    <path d="M 135.791565 138.097198 
L 132.234975 135.385987 
L 136.537898 134.167441 
z
" clip-path="url(#p6bef1fc981)" style="fill: #1f77b4; stroke: #1f77b4; stroke-width: 1.5; stroke-linecap: round"/>
   </g>
   <g id="patch_59">
    <path d="M 131.192101 153.566475 
Q 130.798777 153.491231 132.052635 153.731095 
" clip-path="url(#p6bef1fc981)" style="fill: none; stroke: #1f77b4; stroke-width: 1.5; stroke-linecap: round"/>
    <path d="M 135.605604 156.44705 
L 132.052635 153.731095 
L 136.35718 152.518292 
z
" clip-path="url(#p6bef1fc981)" style="fill: #1f77b4; stroke: #1f77b4; stroke-width: 1.5; stroke-linecap: round"/>
   </g>
   <g id="patch_60">
    <path d="M 268.471392 102.957718 
Q 267.875376 102.594357 268.711287 103.10397 
" clip-path="url(#p6bef1fc981)" style="fill: none; stroke: #1f77b4; stroke-width: 1.5; stroke-linecap: round"/>
    <path d="M 271.08555 106.893808 
L 268.711287 103.10397 
L 273.167715 103.478463 
z
" clip-path="url(#p6bef1fc981)" style="fill: #1f77b4; stroke: #1f77b4; stroke-width: 1.5; stroke-linecap: round"/>
   </g>
   <g id="patch_61">
    <path d="M 335.750209 101.318859 
Q 335.191764 100.949022 336.031545 101.505177 
" clip-path="url(#p6bef1fc981)" style="fill: none; stroke: #1f77b4; stroke-width: 1.5; stroke-linecap: round"/>
    <path d="M 338.262201 105.38128 
L 336.031545 101.505177 
L 340.470821 102.046314 
z
" clip-path="url(#p6bef1fc981)" style="fill: #1f77b4; stroke: #1f77b4; stroke-width: 1.5; stroke-linecap: round"/>
   </g>
   <g id="patch_62">
    <path d="M 240.060452 223.402437 
Q 239.51564 223.032032 240.357705 223.604533 
" clip-path="url(#p6bef1fc981)" style="fill: none; stroke: #1f77b4; stroke-width: 1.5; stroke-linecap: round"/>
    <path d="M 242.541118 227.507443 
L 240.357705 223.604533 
L 244.790081 224.199548 
z
" clip-path="url(#p6bef1fc981)" style="fill: #1f77b4; stroke: #1f77b4; stroke-width: 1.5; stroke-linecap: round"/>
   </g>
   <g id="patch_63">
    <path d="M 265.249293 222.977966 
Q 264.729355 222.606022 265.573394 223.209815 
" clip-path="url(#p6bef1fc981)" style="fill: none; stroke: #1f77b4; stroke-width: 1.5; stroke-linecap: round"/>
    <path d="M 267.663038 227.163723 
L 265.573394 223.209815 
L 269.990307 223.910444 
z
" clip-path="url(#p6bef1fc981)" style="fill: #1f77b4; stroke: #1f77b4; stroke-width: 1.5; stroke-linecap: round"/>
   </g>
   <g id="patch_64">
    <path d="M 254.218243 163.727768 
Q 253.630819 163.362337 254.46739 163.88276 
" clip-path="url(#p6bef1fc981)" style="fill: none; stroke: #1f77b4; stroke-width: 1.5; stroke-linecap: round"/>
    <path d="M 256.807372 167.693861 
L 254.46739 163.88276 
L 258.920259 164.297435 
z
" clip-path="url(#p6bef1fc981)" style="fill: #1f77b4; stroke: #1f77b4; stroke-width: 1.5; stroke-linecap: round"/>
   </g>
   <g id="patch_65">
    <path d="M 274.177309 183.905607 
Q 273.618901 183.535749 274.458668 184.091963 
" clip-path="url(#p6bef1fc981)" style="fill: none; stroke: #1f77b4; stroke-width: 1.5; stroke-linecap: round"/>
    <path d="M 276.689105 187.968192 
L 274.458668 184.091963 
L 278.897913 184.63335 
z
" clip-path="url(#p6bef1fc981)" style="fill: #1f77b4; stroke: #1f77b4; stroke-width: 1.5; stroke-linecap: round"/>
   </g>
   <g id="patch_66">
    <path d="M 57.6 307.584 
L 57.6 41.472 
" style="fill: none; stroke: #000000; stroke-width: 0.8; stroke-linejoin: miter; stroke-linecap: square"/>
   </g>
   <g id="patch_67">
    <path d="M 414.72 307.584 
L 414.72 41.472 
" style="fill: none; stroke: #000000; stroke-width: 0.8; stroke-linejoin: miter; stroke-linecap: square"/>
   </g>
   <g id="patch_68">
    <path d="M 57.6 307.584 
L 414.72 307.584 
" style="fill: none; stroke: #000000; stroke-width: 0.8; stroke-linejoin: miter; stroke-linecap: square"/>
   </g>
   <g id="patch_69">
    <path d="M 57.6 41.472 
L 414.72 41.472 
" style="fill: none; stroke: #000000; stroke-width: 0.8; stroke-linejoin: miter; stroke-linecap: square"/>
   </g>
  </g>
 </g>
 <defs>
  <clipPath id="p6bef1fc981">
   <rect x="57.6" y="41.472" width="357.12" height="266.112"/>
  </clipPath>
 </defs>
</svg>
